<svg width="32" height="32" viewBox="0 0 32 32" fill="none" xmlns="http://www.w3.org/2000/svg">
<rect x="0.5" y="0.5" width="31" height="31" rx="15.5" fill="white"/>
<rect x="0.5" y="0.5" width="31" height="31" rx="15.5" stroke="#ECECEC"/>
<g clip-path="url(#clip0_967_10361)">
<path d="M12.4749 6.00025H18.7355L12.2364 25.2562C12.1696 25.4541 12.0425 25.626 11.8729 25.7478C11.7032 25.8696 11.4996 25.9352 11.2908 25.9352H6.41849C6.26028 25.9352 6.10435 25.8975 5.96358 25.8253C5.82282 25.7531 5.70127 25.6484 5.60899 25.5199C5.5167 25.3914 5.45634 25.2427 5.43289 25.0863C5.40943 24.9298 5.42356 24.77 5.47411 24.6201L11.5291 6.67926C11.5958 6.48131 11.723 6.30929 11.8927 6.18744C12.0624 6.06558 12.266 6.00002 12.4749 6V6.00025Z" fill="url(#paint0_linear_967_10361)"/>
<path d="M21.5722 18.916H11.6445C11.5522 18.9159 11.462 18.9436 11.3857 18.9955C11.3094 19.0474 11.2505 19.1211 11.2166 19.207C11.1827 19.2928 11.1755 19.3869 11.1959 19.4769C11.2163 19.5669 11.2632 19.6487 11.3308 19.7116L17.7101 25.6659C17.8959 25.8391 18.1404 25.9354 18.3944 25.9354H24.0159L21.5722 18.916Z" fill="#0078D4"/>
<path d="M12.4747 6.00001C12.2635 5.9992 12.0576 6.06594 11.887 6.19048C11.7165 6.31502 11.5902 6.49083 11.5267 6.69224L5.48131 24.6035C5.42734 24.754 5.41039 24.9152 5.43192 25.0736C5.45344 25.232 5.5128 25.3829 5.60498 25.5136C5.69715 25.6442 5.81943 25.7507 5.96146 25.824C6.1035 25.8974 6.26112 25.9355 6.42098 25.935H11.4189C11.6051 25.9018 11.7791 25.8197 11.9231 25.6972C12.0672 25.5747 12.1761 25.4162 12.2388 25.2378L13.4445 21.6848L17.7507 25.7013C17.9311 25.8506 18.1575 25.9331 18.3917 25.935H23.9922L21.5359 18.9156L14.3754 18.9173L18.7579 6.00001H12.4747Z" fill="url(#paint1_linear_967_10361)"/>
<path d="M20.4715 6.67802C20.4049 6.48039 20.2778 6.30867 20.1084 6.18703C19.939 6.0654 19.7357 5.99998 19.5271 6H12.5498C12.9775 6 13.3575 6.27281 13.4943 6.67802L19.5494 24.6196C19.6 24.7695 19.6142 24.9294 19.5908 25.0859C19.5674 25.2425 19.507 25.3912 19.4147 25.5197C19.3224 25.6483 19.2008 25.7531 19.06 25.8253C18.9192 25.8976 18.7632 25.9353 18.6049 25.9353H25.5825C25.7408 25.9352 25.8968 25.8975 26.0375 25.8252C26.1783 25.753 26.2999 25.6482 26.3921 25.5196C26.4844 25.3911 26.5447 25.2424 26.5681 25.0859C26.5916 24.9294 26.5774 24.7695 26.5267 24.6196L20.4715 6.67802Z" fill="url(#paint2_linear_967_10361)"/>
</g>
<defs>
<linearGradient id="paint0_linear_967_10361" x1="790.554" y1="153.74" x2="177.416" y2="1965.13" gradientUnits="userSpaceOnUse">
<stop stop-color="#114A8B"/>
<stop offset="1" stop-color="#0669BC"/>
</linearGradient>
<linearGradient id="paint1_linear_967_10361" x1="1114.37" y1="1048.86" x2="981.82" y2="1093.68" gradientUnits="userSpaceOnUse">
<stop stop-opacity="0.3"/>
<stop offset="0.071" stop-opacity="0.2"/>
<stop offset="0.321" stop-opacity="0.1"/>
<stop offset="0.623" stop-opacity="0.05"/>
<stop offset="1" stop-opacity="0"/>
</linearGradient>
<linearGradient id="paint2_linear_967_10361" x1="535.548" y1="97.7023" x2="1204.75" y2="1880.6" gradientUnits="userSpaceOnUse">
<stop stop-color="#3CCBF4"/>
<stop offset="1" stop-color="#2892DF"/>
</linearGradient>
<clipPath id="clip0_967_10361">
<rect width="21.157" height="20" fill="white" transform="translate(5.42188 6)"/>
</clipPath>
</defs>
</svg>
