<svg width="16" height="17" viewBox="0 0 16 17" fill="none" xmlns="http://www.w3.org/2000/svg">
<g clip-path="url(#clip0_1538_2508)">
<path d="M7.65699 6.747C7.76699 6.417 8.23299 6.417 8.34299 6.747L8.98799 8.684C9.12997 9.1098 9.36917 9.49668 9.68663 9.81398C10.0041 10.1313 10.3911 10.3703 10.817 10.512L12.753 11.157C13.083 11.267 13.083 11.733 12.753 11.843L10.816 12.488C10.3902 12.63 10.0033 12.8692 9.68602 13.1866C9.36872 13.5041 9.12973 13.8911 8.98799 14.317L8.34299 16.253C8.31928 16.3253 8.27335 16.3882 8.21175 16.4328C8.15016 16.4774 8.07605 16.5014 7.99999 16.5014C7.92394 16.5014 7.84983 16.4774 7.78824 16.4328C7.72664 16.3882 7.68071 16.3253 7.65699 16.253L7.01199 14.316C6.87012 13.8903 6.63107 13.5035 6.31379 13.1862C5.9965 12.8689 5.60969 12.6299 5.18399 12.488L3.24699 11.843C3.17473 11.8193 3.11181 11.7734 3.06719 11.7118C3.02258 11.6502 2.99856 11.5761 2.99856 11.5C2.99856 11.4239 3.02258 11.3498 3.06719 11.2882C3.11181 11.2266 3.17473 11.1807 3.24699 11.157L5.18399 10.512C5.60969 10.3701 5.9965 10.1311 6.31379 9.81379C6.63107 9.4965 6.87012 9.10969 7.01199 8.684L7.65699 6.747ZM3.79399 1.648C3.80833 1.60469 3.83596 1.56701 3.87294 1.5403C3.90992 1.51359 3.95438 1.49921 3.99999 1.49921C4.04561 1.49921 4.09007 1.51359 4.12705 1.5403C4.16403 1.56701 4.19165 1.60469 4.20599 1.648L4.59299 2.81C4.76599 3.328 5.17199 3.734 5.68999 3.907L6.85199 4.294C6.8953 4.30834 6.93298 4.33596 6.95969 4.37294C6.9864 4.40992 7.00078 4.45438 7.00078 4.5C7.00078 4.54562 6.9864 4.59007 6.95969 4.62705C6.93298 4.66404 6.8953 4.69166 6.85199 4.706L5.68999 5.093C5.43437 5.17784 5.20208 5.32119 5.01163 5.51164C4.82118 5.70209 4.67783 5.93437 4.59299 6.19L4.20599 7.352C4.19165 7.3953 4.16403 7.43299 4.12705 7.4597C4.09007 7.48641 4.04561 7.50079 3.99999 7.50079C3.95438 7.50079 3.90992 7.48641 3.87294 7.4597C3.83596 7.43299 3.80833 7.3953 3.79399 7.352L3.40699 6.19C3.32216 5.93437 3.1788 5.70209 2.98835 5.51164C2.79791 5.32119 2.56562 5.17784 2.30999 5.093L1.14799 4.706C1.10469 4.69166 1.067 4.66404 1.04029 4.62705C1.01358 4.59007 0.999207 4.54562 0.999207 4.5C0.999207 4.45438 1.01358 4.40992 1.04029 4.37294C1.067 4.33596 1.10469 4.30834 1.14799 4.294L2.30999 3.907C2.56562 3.82216 2.79791 3.67881 2.98835 3.48836C3.1788 3.29791 3.32216 3.06562 3.40699 2.81L3.79399 1.648ZM10.863 0.598998C10.8729 0.570524 10.8914 0.545834 10.9159 0.52836C10.9405 0.510885 10.9699 0.501495 11 0.501495C11.0301 0.501495 11.0595 0.510885 11.0841 0.52836C11.1086 0.545834 11.1271 0.570524 11.137 0.598998L11.395 1.373C11.51 1.719 11.781 1.99 12.127 2.105L12.901 2.363C12.9295 2.37287 12.9542 2.39137 12.9716 2.41592C12.9891 2.44047 12.9985 2.46986 12.9985 2.5C12.9985 2.53013 12.9891 2.55952 12.9716 2.58407C12.9542 2.60863 12.9295 2.62713 12.901 2.637L12.127 2.895C11.9566 2.952 11.8018 3.04779 11.6748 3.17481C11.5478 3.30184 11.452 3.45664 11.395 3.627L11.137 4.401C11.1271 4.42947 11.1086 4.45416 11.0841 4.47164C11.0595 4.48911 11.0301 4.4985 11 4.4985C10.9699 4.4985 10.9405 4.48911 10.9159 4.47164C10.8914 4.45416 10.8729 4.42947 10.863 4.401L10.605 3.627C10.548 3.45664 10.4522 3.30184 10.3252 3.17481C10.1981 3.04779 10.0434 2.952 9.87299 2.895L9.09999 2.637C9.07152 2.62713 9.04683 2.60863 9.02936 2.58407C9.01188 2.55952 9.00249 2.53013 9.00249 2.5C9.00249 2.46986 9.01188 2.44047 9.02936 2.41592C9.04683 2.39137 9.07152 2.37287 9.09999 2.363L9.87399 2.105C10.22 1.99 10.491 1.719 10.606 1.373L10.863 0.598998Z" fill="white"/>
</g>
<defs>
<clipPath id="clip0_1538_2508">
<rect width="16" height="16" fill="white" transform="translate(0 0.5)"/>
</clipPath>
</defs>
</svg>
