<svg width="87" height="19" viewBox="0 0 87 19" fill="none" xmlns="http://www.w3.org/2000/svg">
<path d="M13.4596 16.158C13.2836 16.3047 12.9536 16.5027 12.4696 16.752C12.0003 17.0013 11.4209 17.2213 10.7316 17.412C10.0423 17.6027 9.27959 17.6907 8.44359 17.676C7.16759 17.6467 6.02359 17.4193 5.01159 16.994C4.01425 16.554 3.16359 15.96 2.45959 15.212C1.77025 14.464 1.24225 13.606 0.875586 12.638C0.508919 11.67 0.325586 10.636 0.325586 9.536C0.325586 8.304 0.508919 7.17467 0.875586 6.148C1.25692 5.12133 1.79225 4.234 2.48159 3.486C3.18559 2.738 4.02159 2.15867 4.98959 1.748C5.95759 1.33733 7.02825 1.132 8.20159 1.132C9.28692 1.132 10.2476 1.27867 11.0836 1.572C11.9196 1.86533 12.6016 2.18067 13.1296 2.518L11.8756 5.532C11.5089 5.25333 11.0176 4.96733 10.4016 4.674C9.80025 4.366 9.10359 4.212 8.31159 4.212C7.69559 4.212 7.10159 4.344 6.52959 4.608C5.97225 4.85733 5.47359 5.21667 5.03359 5.686C4.60825 6.15533 4.27092 6.70533 4.02159 7.336C3.77225 7.952 3.64759 8.62667 3.64759 9.36C3.64759 10.1373 3.75759 10.8487 3.97759 11.494C4.21225 12.1393 4.54225 12.6967 4.96759 13.166C5.39292 13.6207 5.89892 13.9727 6.48559 14.222C7.08692 14.4713 7.76159 14.596 8.50959 14.596C9.37492 14.596 10.1156 14.4567 10.7316 14.178C11.3476 13.8993 11.8169 13.606 12.1396 13.298L13.4596 16.158ZM15.6654 9.426C15.6654 8.31133 15.8781 7.25533 16.3034 6.258C16.7288 5.26067 17.3154 4.38067 18.0634 3.618C18.8261 2.84067 19.7061 2.232 20.7034 1.792C21.7008 1.352 22.7714 1.132 23.9154 1.132C25.0448 1.132 26.1081 1.352 27.1054 1.792C28.1028 2.232 28.9828 2.84067 29.7454 3.618C30.5228 4.38067 31.1241 5.26067 31.5494 6.258C31.9894 7.25533 32.2094 8.31133 32.2094 9.426C32.2094 10.57 31.9894 11.6407 31.5494 12.638C31.1241 13.6353 30.5228 14.5153 29.7454 15.278C28.9828 16.026 28.1028 16.6127 27.1054 17.038C26.1081 17.4633 25.0448 17.676 23.9154 17.676C22.7714 17.676 21.7008 17.4633 20.7034 17.038C19.7061 16.6127 18.8261 16.026 18.0634 15.278C17.3154 14.5153 16.7288 13.6353 16.3034 12.638C15.8781 11.6407 15.6654 10.57 15.6654 9.426ZM18.9654 9.426C18.9654 10.1447 19.0901 10.8193 19.3394 11.45C19.6034 12.066 19.9628 12.616 20.4174 13.1C20.8868 13.5693 21.4221 13.936 22.0234 14.2C22.6394 14.464 23.3068 14.596 24.0254 14.596C24.7148 14.596 25.3528 14.464 25.9394 14.2C26.5408 13.936 27.0614 13.5693 27.5014 13.1C27.9414 12.616 28.2861 12.066 28.5354 11.45C28.7848 10.8193 28.9094 10.1447 28.9094 9.426C28.9094 8.69267 28.7774 8.01067 28.5134 7.38C28.2641 6.74933 27.9121 6.19933 27.4574 5.73C27.0174 5.246 26.4968 4.872 25.8954 4.608C25.2941 4.344 24.6414 4.212 23.9374 4.212C23.2334 4.212 22.5808 4.344 21.9794 4.608C21.3781 4.872 20.8501 5.246 20.3954 5.73C19.9408 6.19933 19.5888 6.74933 19.3394 7.38C19.0901 8.01067 18.9654 8.69267 18.9654 9.426ZM49.8878 18.16L37.6118 7.072L38.5578 7.6L38.6238 17.5H35.3898V0.669999H35.5218L47.5338 11.714L46.8298 11.406L46.7638 1.308H49.9758V18.16H49.8878ZM65.5857 14.376H70.6017V17.5H61.4057L65.5857 14.376ZM53.1557 9.426C53.1557 8.31133 53.3683 7.25533 53.7937 6.258C54.219 5.26067 54.8057 4.38067 55.5537 3.618C56.3163 2.84067 57.1963 2.232 58.1937 1.792C59.191 1.352 60.2617 1.132 61.4057 1.132C62.535 1.132 63.5983 1.352 64.5957 1.792C65.593 2.232 66.473 2.84067 67.2357 3.618C68.013 4.38067 68.6143 5.26067 69.0397 6.258C69.4797 7.25533 69.6997 8.31133 69.6997 9.426C69.6997 10.57 69.4797 11.6407 69.0397 12.638C68.6143 13.6353 68.013 14.5153 67.2357 15.278C66.473 16.026 65.593 16.6127 64.5957 17.038C63.5983 17.4633 62.535 17.676 61.4057 17.676C60.2617 17.676 59.191 17.4633 58.1937 17.038C57.1963 16.6127 56.3163 16.026 55.5537 15.278C54.8057 14.5153 54.219 13.6353 53.7937 12.638C53.3683 11.6407 53.1557 10.57 53.1557 9.426ZM56.4557 9.426C56.4557 10.13 56.5803 10.7973 56.8297 11.428C57.0937 12.044 57.453 12.594 57.9077 13.078C58.377 13.5473 58.9123 13.914 59.5137 14.178C60.1297 14.442 60.797 14.574 61.5157 14.574C62.205 14.574 62.843 14.442 63.4297 14.178C64.031 13.914 64.5517 13.5473 64.9917 13.078C65.4317 12.6087 65.7763 12.066 66.0257 11.45C66.275 10.8193 66.3997 10.1447 66.3997 9.426C66.3997 8.722 66.2677 8.062 66.0037 7.446C65.7543 6.81533 65.4023 6.26533 64.9477 5.796C64.5077 5.32667 63.987 4.96 63.3857 4.696C62.7843 4.432 62.1317 4.3 61.4277 4.3C60.7237 4.3 60.071 4.432 59.4697 4.696C58.8683 4.96 58.3403 5.32667 57.8857 5.796C57.431 6.26533 57.079 6.81533 56.8297 7.446C56.5803 8.062 56.4557 8.722 56.4557 9.426ZM78.6884 1.308C79.7004 1.308 80.6024 1.44 81.3944 1.704C82.1864 1.95333 82.8464 2.32 83.3744 2.804C83.917 3.27333 84.3277 3.84533 84.6064 4.52C84.885 5.18 85.0244 5.928 85.0244 6.764C85.0244 7.424 84.9217 8.084 84.7164 8.744C84.5257 9.404 84.2031 10.0053 83.7484 10.548C83.3084 11.0907 82.7217 11.5307 81.9884 11.868C81.255 12.1907 80.3457 12.352 79.2604 12.352H76.9724V17.5H73.7824V1.308H78.6884ZM79.2384 9.272C79.7224 9.272 80.1257 9.19133 80.4484 9.03C80.771 8.86867 81.0204 8.66333 81.1964 8.414C81.387 8.16467 81.519 7.908 81.5924 7.644C81.6804 7.36533 81.7244 7.10867 81.7244 6.874C81.7244 6.698 81.6951 6.478 81.6364 6.214C81.5924 5.93533 81.4897 5.65667 81.3284 5.378C81.167 5.09933 80.9177 4.86467 80.5804 4.674C80.2577 4.48333 79.8177 4.388 79.2604 4.388H76.9724V9.272H79.2384ZM82.2304 11.252L86.2344 17.5H82.5164L78.4244 11.34L82.2304 11.252Z" fill="#242546"/>
</svg>
