<svg width="346" height="257" viewBox="0 0 346 257" fill="none" xmlns="http://www.w3.org/2000/svg">
<g filter="url(#filter0_d_1347_1143)">
<rect x="6" y="2.14575" width="333.33" height="244" rx="8.66441" fill="white"/>
<rect x="6.25" y="2.39575" width="332.83" height="243.5" rx="8.41441" stroke="#BFC0CE" stroke-width="0.5"/>
<path d="M83.9429 31.4941C83.9429 30.1167 82.8256 28.9939 81.4496 29.0587C74.9382 29.3653 68.5317 30.871 62.5545 33.5074C56.5772 36.1437 51.1455 39.8595 46.5285 44.4612C45.5528 45.4336 45.6286 47.0158 46.6458 47.9446L51.9641 52.8006C52.9813 53.7294 54.5537 53.6516 55.5429 52.693C59.0082 49.335 63.0467 46.6133 67.4738 44.6607C71.9009 42.708 76.6338 41.5609 81.4503 41.2662C82.8252 41.1821 83.9429 40.0733 83.9429 38.6959V31.4941Z" fill="#02877F"/>
<path d="M85.8651 31.5307C85.9175 30.1542 87.0768 29.0748 88.4492 29.1919C95.8214 29.821 102.99 31.9877 109.489 35.5629C115.988 39.138 121.656 44.0328 126.134 49.9228C126.967 51.0193 126.676 52.5763 125.542 53.3575L119.61 57.4417C118.475 58.2229 116.928 57.931 116.079 56.8463C112.688 52.5133 108.449 48.9039 103.613 46.2434C98.7771 43.583 93.4594 41.9354 87.984 41.3906C86.6133 41.2542 85.5386 40.1037 85.591 38.7273L85.8651 31.5307Z" fill="#475AC2"/>
<path d="M125.635 54.9302C126.798 54.1919 128.345 54.5334 129.028 55.7297C132.695 62.1558 134.981 69.2872 135.728 76.6669C136.474 84.0466 135.662 91.4914 133.356 98.5216C132.926 99.8304 131.479 100.475 130.192 99.9842L123.462 97.4198C122.175 96.9293 121.537 95.4901 121.948 94.1753C123.59 88.9235 124.155 83.3851 123.599 77.8935C123.044 72.4019 121.381 67.0889 118.721 62.2721C118.056 61.0663 118.393 59.5284 119.555 58.7901L125.635 54.9302Z" fill="#C7469C"/>
<path d="M130.454 101.686C131.723 102.222 132.321 103.689 131.725 104.931C128.08 112.528 122.669 119.157 115.932 124.257C109.195 129.358 101.345 132.766 93.0443 134.213C91.6873 134.449 90.4382 133.475 90.2658 132.109L89.3642 124.963C89.1917 123.597 90.1619 122.357 91.5154 122.101C97.6984 120.934 103.54 118.35 108.575 114.538C113.609 110.727 117.682 105.806 120.484 100.172C121.097 98.9388 122.554 98.3416 123.822 98.8785L130.454 101.686Z" fill="#FFBA24"/>
<path d="M87.677 132.368C87.7789 133.741 86.7476 134.944 85.3706 134.981C76.9475 135.208 68.5785 133.423 60.9638 129.759C53.3492 126.096 46.7321 120.67 41.6531 113.946C40.8228 112.847 41.1188 111.291 42.2557 110.514L48.2 106.448C49.3369 105.67 50.8831 105.967 51.7288 107.054C55.5917 112.021 60.5586 116.037 66.249 118.775C71.9394 121.513 78.1769 122.888 84.4687 122.807C85.846 122.789 87.0427 123.812 87.1446 125.186L87.677 132.368Z" fill="#1F69FD"/>
<path d="M41.0602 108.682C39.8906 109.409 38.3469 109.054 37.6751 107.851C32.6746 98.9019 30.3681 88.676 31.0644 78.4123C31.7608 68.1485 35.4274 58.328 41.5909 50.136C42.4191 49.0353 43.9966 48.8914 45.0572 49.7704L50.602 54.3661C51.6625 55.2451 51.8029 56.8132 50.9903 57.9255C46.4505 64.1392 43.7497 71.5259 43.2265 79.2375C42.7033 86.949 44.3816 94.6328 48.0404 101.403C48.6953 102.615 48.3445 104.149 47.1749 104.877L41.0602 108.682Z" fill="#835FDD"/>
<rect x="30.4486" y="193.137" width="285.096" height="28.3288" rx="6.78082" fill="#F5F5F5"/>
<rect x="30.4486" y="193.137" width="285.096" height="28.3288" rx="6.78082" stroke="#E5E5E5" stroke-width="0.90411"/>
<rect x="33.6128" y="196.302" width="66.6243" height="21.6986" rx="3.61644" fill="#02877F"/>
<rect x="103.854" y="196.302" width="66.6243" height="21.6986" rx="3.61644" fill="#475AC2"/>
<rect x="174.094" y="196.302" width="138.286" height="22" rx="3.61644" fill="#C7469C"/>
<path d="M188 65.5953C188 62.1106 190.825 59.2858 194.31 59.2858C197.794 59.2858 200.619 62.1106 200.619 65.5953V133.073C200.619 134.137 199.756 135 198.692 135H189.927C188.863 135 188 134.137 188 133.073V65.5953Z" fill="url(#paint0_linear_1347_1143)"/>
<path d="M215.762 78.2143C215.762 74.7297 218.587 71.9048 222.071 71.9048C225.556 71.9048 228.381 74.7297 228.381 78.2143V133.073C228.381 134.137 227.518 135 226.453 135H217.689C216.625 135 215.762 134.137 215.762 133.073V78.2143Z" fill="url(#paint1_linear_1347_1143)"/>
<path d="M243.524 58.0238C243.524 54.5391 246.349 51.7142 249.833 51.7142C253.318 51.7142 256.143 54.5391 256.143 58.0238V133.073C256.143 134.137 255.28 135 254.216 135H245.451C244.387 135 243.524 134.137 243.524 133.073V58.0238Z" fill="url(#paint2_linear_1347_1143)"/>
<path d="M271.286 78.2143C271.286 74.7297 274.111 71.9048 277.595 71.9048C281.08 71.9048 283.905 74.7297 283.905 78.2143V133.073C283.905 134.137 283.042 135 281.977 135H273.213C272.149 135 271.286 134.137 271.286 133.073V78.2143Z" fill="url(#paint3_linear_1347_1143)"/>
<path d="M299.048 35.3095C299.048 31.8249 301.873 29 305.357 29C308.842 29 311.667 31.8249 311.667 35.3095V133.073C311.667 134.137 310.804 135 309.74 135H300.975C299.911 135 299.048 134.137 299.048 133.073V35.3095Z" fill="url(#paint4_linear_1347_1143)"/>
</g>
<defs>
<filter id="filter0_d_1347_1143" x="0" y="0.145752" width="345.33" height="256" filterUnits="userSpaceOnUse" color-interpolation-filters="sRGB">
<feFlood flood-opacity="0" result="BackgroundImageFix"/>
<feColorMatrix in="SourceAlpha" type="matrix" values="0 0 0 0 0 0 0 0 0 0 0 0 0 0 0 0 0 0 127 0" result="hardAlpha"/>
<feOffset dy="4"/>
<feGaussianBlur stdDeviation="3"/>
<feComposite in2="hardAlpha" operator="out"/>
<feColorMatrix type="matrix" values="0 0 0 0 0 0 0 0 0 0 0 0 0 0 0 0 0 0 0.06 0"/>
<feBlend mode="normal" in2="BackgroundImageFix" result="effect1_dropShadow_1347_1143"/>
<feBlend mode="normal" in="SourceGraphic" in2="effect1_dropShadow_1347_1143" result="shape"/>
</filter>
<linearGradient id="paint0_linear_1347_1143" x1="194.883" y1="49.8215" x2="194.883" y2="135" gradientUnits="userSpaceOnUse">
<stop stop-color="#AF91FA"/>
<stop offset="0.893173" stop-color="white"/>
</linearGradient>
<linearGradient id="paint1_linear_1347_1143" x1="222.645" y1="64.0179" x2="222.645" y2="135" gradientUnits="userSpaceOnUse">
<stop stop-color="#AF91FA"/>
<stop offset="0.893173" stop-color="white"/>
</linearGradient>
<linearGradient id="paint2_linear_1347_1143" x1="250.407" y1="41.3035" x2="250.407" y2="135" gradientUnits="userSpaceOnUse">
<stop stop-color="#AF91FA"/>
<stop offset="0.893173" stop-color="white"/>
</linearGradient>
<linearGradient id="paint3_linear_1347_1143" x1="278.169" y1="64.0179" x2="278.169" y2="135" gradientUnits="userSpaceOnUse">
<stop stop-color="#AF91FA"/>
<stop offset="0.893173" stop-color="white"/>
</linearGradient>
<linearGradient id="paint4_linear_1347_1143" x1="305.931" y1="15.75" x2="305.931" y2="135" gradientUnits="userSpaceOnUse">
<stop stop-color="#AF91FA"/>
<stop offset="0.893173" stop-color="white"/>
</linearGradient>
</defs>
</svg>
