<svg width="346" height="250" viewBox="0 0 346 250" fill="none" xmlns="http://www.w3.org/2000/svg">
<g opacity="0.6" filter="url(#filter0_d_1347_1310)">
<rect x="6.00342" y="5.14661" width="333.33" height="72.4271" rx="8.66441" fill="white"/>
<rect x="6.25342" y="5.39661" width="332.83" height="71.9271" rx="8.41441" stroke="#BFC0CE" stroke-width="0.5"/>
<rect x="21.1664" y="20.3094" width="15.8858" height="15.8858" rx="7.94292" stroke="#E5E5E5" stroke-width="1.44417"/>
<path d="M29.8618 24.9505V31.2523H28.5295V26.2152H28.4925L27.0494 27.1198V25.9382L28.6095 24.9505H29.8618Z" fill="#767796"/>
<path d="M47.3713 32.5873V23.1352H49.0835V27.4782H49.1989L52.8865 23.1352H54.9772L51.3219 27.3766L55.0095 32.5873H52.9511L50.1312 28.5351L49.0835 29.772V32.5873H47.3713ZM58.711 32.7257C58.0002 32.7257 57.3864 32.578 56.8695 32.2827C56.3556 31.9842 55.9603 31.5627 55.6834 31.0181C55.4064 30.4704 55.268 29.8258 55.268 29.0843C55.268 28.3551 55.4064 27.7151 55.6834 27.1643C55.9634 26.6105 56.3541 26.1797 56.8556 25.8721C57.3572 25.5613 57.9464 25.4059 58.6233 25.4059C59.0602 25.4059 59.4725 25.4767 59.8602 25.6182C60.2509 25.7567 60.5955 25.9721 60.894 26.2644C61.1955 26.5567 61.4325 26.929 61.6048 27.3813C61.7771 27.8305 61.8632 28.3658 61.8632 28.9874V29.4997H56.0526V28.3735H60.2617C60.2586 28.0535 60.1894 27.7689 60.054 27.5197C59.9186 27.2674 59.7294 27.069 59.4863 26.9243C59.2463 26.7797 58.9664 26.7074 58.6464 26.7074C58.3048 26.7074 58.0048 26.7905 57.7464 26.9566C57.4879 27.1197 57.2864 27.3351 57.1418 27.6028C57.0002 27.8674 56.9279 28.1582 56.9249 28.4751V29.4581C56.9249 29.8704 57.0002 30.2243 57.151 30.5196C57.3018 30.8119 57.5125 31.0365 57.7833 31.1935C58.0541 31.3473 58.371 31.4242 58.7341 31.4242C58.9771 31.4242 59.1971 31.3904 59.394 31.3227C59.591 31.2519 59.7617 31.1489 59.9063 31.0135C60.0509 30.8781 60.1602 30.7104 60.234 30.5104L61.794 30.6858C61.6955 31.0981 61.5078 31.4581 61.2309 31.7658C60.9571 32.0704 60.6063 32.3073 60.1786 32.4765C59.751 32.6427 59.2617 32.7257 58.711 32.7257ZM64.112 35.2457C63.8843 35.2457 63.6736 35.2272 63.4797 35.1903C63.2889 35.1564 63.1366 35.1165 63.0228 35.0703L63.4105 33.7688C63.6536 33.8396 63.8705 33.8734 64.0612 33.8703C64.252 33.8672 64.4197 33.8073 64.5643 33.6903C64.712 33.5765 64.8366 33.3857 64.9381 33.118L65.0812 32.735L62.5105 25.4982H64.2828L65.9166 30.8519H65.9904L67.6288 25.4982H69.4057L66.5673 33.4457C66.435 33.8211 66.2596 34.1426 66.0412 34.4103C65.8227 34.6811 65.555 34.8872 65.2381 35.0288C64.9243 35.1734 64.5489 35.2457 64.112 35.2457ZM77.0625 32.5873H73.8595V23.1352H77.1271C78.0655 23.1352 78.8716 23.3244 79.5455 23.7029C80.2224 24.0783 80.7424 24.6182 81.1054 25.3228C81.4685 26.0274 81.65 26.8705 81.65 27.852C81.65 28.8366 81.467 29.6827 81.1008 30.3904C80.7378 31.0981 80.2132 31.6411 79.527 32.0196C78.844 32.3981 78.0224 32.5873 77.0625 32.5873ZM75.5717 31.1058H76.9794C77.6378 31.1058 78.187 30.9858 78.627 30.7458C79.067 30.5027 79.3978 30.1412 79.6193 29.6612C79.8409 29.1781 79.9516 28.5751 79.9516 27.852C79.9516 27.1289 79.8409 26.529 79.6193 26.0521C79.3978 25.5721 79.0701 25.2136 78.6363 24.9767C78.2055 24.7367 77.6701 24.6167 77.0302 24.6167H75.5717V31.1058ZM86.3415 32.7257C85.6307 32.7257 85.0169 32.578 84.5 32.2827C83.9861 31.9842 83.5908 31.5627 83.3139 31.0181C83.0369 30.4704 82.8985 29.8258 82.8985 29.0843C82.8985 28.3551 83.0369 27.7151 83.3139 27.1643C83.5938 26.6105 83.9846 26.1797 84.4861 25.8721C84.9877 25.5613 85.5769 25.4059 86.2538 25.4059C86.6907 25.4059 87.103 25.4767 87.4907 25.6182C87.8814 25.7567 88.226 25.9721 88.5245 26.2644C88.826 26.5567 89.0629 26.929 89.2352 27.3813C89.4076 27.8305 89.4937 28.3658 89.4937 28.9874V29.4997H83.6831V28.3735H87.8922C87.8891 28.0535 87.8199 27.7689 87.6845 27.5197C87.5491 27.2674 87.3599 27.069 87.1168 26.9243C86.8768 26.7797 86.5968 26.7074 86.2769 26.7074C85.9353 26.7074 85.6353 26.7905 85.3769 26.9566C85.1184 27.1197 84.9169 27.3351 84.7723 27.6028C84.6307 27.8674 84.5584 28.1582 84.5554 28.4751V29.4581C84.5554 29.8704 84.6307 30.2243 84.7815 30.5196C84.9323 30.8119 85.143 31.0365 85.4138 31.1935C85.6846 31.3473 86.0015 31.4242 86.3645 31.4242C86.6076 31.4242 86.8276 31.3904 87.0245 31.3227C87.2214 31.2519 87.3922 31.1489 87.5368 31.0135C87.6814 30.8781 87.7907 30.7104 87.8645 30.5104L89.4245 30.6858C89.326 31.0981 89.1383 31.4581 88.8614 31.7658C88.5876 32.0704 88.2368 32.3073 87.8091 32.4765C87.3814 32.6427 86.8922 32.7257 86.3415 32.7257ZM92.9471 32.7304C92.4979 32.7304 92.0933 32.6504 91.7333 32.4904C91.3763 32.3273 91.0933 32.0873 90.8841 31.7704C90.6779 31.4535 90.5748 31.0627 90.5748 30.5981C90.5748 30.1981 90.6487 29.8673 90.7964 29.6058C90.9441 29.3443 91.1456 29.1351 91.401 28.9781C91.6563 28.8212 91.944 28.7028 92.264 28.6228C92.5871 28.5397 92.9209 28.4797 93.2655 28.4428C93.6809 28.3997 94.0178 28.3612 94.2763 28.3274C94.5347 28.2905 94.7224 28.2351 94.8393 28.1612C94.9593 28.0843 95.0193 27.9659 95.0193 27.8059V27.7782C95.0193 27.4305 94.9163 27.1613 94.7101 26.9705C94.504 26.7797 94.207 26.6843 93.8194 26.6843C93.4101 26.6843 93.0855 26.7736 92.8455 26.952C92.6086 27.1305 92.4486 27.3413 92.3656 27.5843L90.8056 27.3628C90.9287 26.932 91.1317 26.572 91.4148 26.2828C91.6979 25.9905 92.044 25.7721 92.4532 25.6274C92.8625 25.4798 93.3148 25.4059 93.8101 25.4059C94.1517 25.4059 94.4917 25.4459 94.8301 25.5259C95.1686 25.6059 95.4778 25.7382 95.7578 25.9228C96.0378 26.1044 96.2624 26.352 96.4316 26.6659C96.6039 26.9797 96.6901 27.372 96.6901 27.8428V32.5873H95.084V31.6135H95.0286C94.927 31.8104 94.784 31.995 94.5993 32.1673C94.4178 32.3365 94.1886 32.4734 93.9117 32.578C93.6378 32.6796 93.3163 32.7304 92.9471 32.7304ZM93.3809 31.5027C93.7163 31.5027 94.0071 31.4365 94.2532 31.3042C94.4993 31.1689 94.6886 30.9904 94.8209 30.7689C94.9563 30.5473 95.024 30.3058 95.024 30.0443V29.2089C94.9716 29.252 94.8824 29.292 94.7563 29.3289C94.6332 29.3658 94.4947 29.3981 94.3409 29.4258C94.187 29.4535 94.0347 29.4781 93.884 29.4997C93.7332 29.5212 93.6024 29.5397 93.4917 29.555C93.2425 29.5889 93.0194 29.6443 92.8225 29.7212C92.6255 29.7981 92.4702 29.9058 92.3563 30.0443C92.2425 30.1796 92.1856 30.355 92.1856 30.5704C92.1856 30.8781 92.2979 31.1104 92.5225 31.2673C92.7471 31.4242 93.0332 31.5027 93.3809 31.5027ZM100.041 23.1352V32.5873H98.37V23.1352H100.041ZM104.641 24.5706V23.1352H112.182V24.5706H109.261V32.5873H107.562V24.5706H104.641ZM115.673 32.7257C114.962 32.7257 114.348 32.578 113.831 32.2827C113.317 31.9842 112.922 31.5627 112.645 31.0181C112.368 30.4704 112.23 29.8258 112.23 29.0843C112.23 28.3551 112.368 27.7151 112.645 27.1643C112.925 26.6105 113.316 26.1797 113.817 25.8721C114.319 25.5613 114.908 25.4059 115.585 25.4059C116.022 25.4059 116.434 25.4767 116.822 25.6182C117.213 25.7567 117.557 25.9721 117.856 26.2644C118.157 26.5567 118.394 26.929 118.566 27.3813C118.739 27.8305 118.825 28.3658 118.825 28.9874V29.4997H113.014V28.3735H117.223C117.22 28.0535 117.151 27.7689 117.016 27.5197C116.88 27.2674 116.691 27.069 116.448 26.9243C116.208 26.7797 115.928 26.7074 115.608 26.7074C115.267 26.7074 114.967 26.7905 114.708 26.9566C114.45 27.1197 114.248 27.3351 114.103 27.6028C113.962 27.8674 113.89 28.1582 113.887 28.4751V29.4581C113.887 29.8704 113.962 30.2243 114.113 30.5196C114.263 30.8119 114.474 31.0365 114.745 31.1935C115.016 31.3473 115.333 31.4242 115.696 31.4242C115.939 31.4242 116.159 31.3904 116.356 31.3227C116.553 31.2519 116.723 31.1489 116.868 31.0135C117.013 30.8781 117.122 30.7104 117.196 30.5104L118.756 30.6858C118.657 31.0981 118.47 31.4581 118.193 31.7658C117.919 32.0704 117.568 32.3073 117.14 32.4765C116.713 32.6427 116.223 32.7257 115.673 32.7257ZM120.238 32.5873V25.4982H121.858V26.6797H121.932C122.061 26.2705 122.283 25.9551 122.597 25.7336C122.914 25.509 123.275 25.3967 123.681 25.3967C123.774 25.3967 123.877 25.4013 123.991 25.4105C124.107 25.4167 124.204 25.4275 124.281 25.4428V26.9797C124.211 26.9551 124.098 26.9336 123.944 26.9151C123.794 26.8936 123.647 26.8828 123.506 26.8828C123.201 26.8828 122.928 26.949 122.684 27.0813C122.444 27.2105 122.255 27.3905 122.117 27.6212C121.978 27.852 121.909 28.1182 121.909 28.4197V32.5873H120.238ZM125.391 32.5873V25.4982H126.988V26.7028H127.071C127.219 26.2967 127.464 25.9797 127.805 25.7521C128.147 25.5213 128.554 25.4059 129.028 25.4059C129.508 25.4059 129.913 25.5228 130.242 25.7567C130.574 25.9874 130.808 26.3028 130.943 26.7028H131.017C131.174 26.309 131.439 25.9951 131.811 25.7613C132.187 25.5244 132.631 25.4059 133.145 25.4059C133.797 25.4059 134.33 25.6121 134.742 26.0244C135.154 26.4367 135.36 27.0382 135.36 27.8289V32.5873H133.685V28.0874C133.685 27.6474 133.568 27.3259 133.334 27.1228C133.1 26.9166 132.814 26.8136 132.476 26.8136C132.073 26.8136 131.757 26.9397 131.53 27.192C131.305 27.4412 131.193 27.7659 131.193 28.1658V32.5873H129.554V28.0182C129.554 27.652 129.444 27.3597 129.222 27.1413C129.004 26.9228 128.717 26.8136 128.364 26.8136C128.124 26.8136 127.905 26.8751 127.708 26.9982C127.511 27.1182 127.354 27.2889 127.237 27.5105C127.12 27.7289 127.062 27.9843 127.062 28.2766V32.5873H125.391ZM142.658 27.372L141.135 27.5382C141.092 27.3843 141.017 27.2397 140.909 27.1043C140.804 26.969 140.663 26.8597 140.484 26.7767C140.306 26.6936 140.087 26.652 139.829 26.652C139.481 26.652 139.189 26.7274 138.952 26.8782C138.718 27.029 138.603 27.2243 138.606 27.4643C138.603 27.6705 138.678 27.8382 138.832 27.9674C138.989 28.0966 139.248 28.2028 139.607 28.2858L140.817 28.5443C141.487 28.6889 141.986 28.9181 142.312 29.232C142.641 29.5458 142.807 29.9566 142.81 30.4643C142.807 30.9104 142.677 31.3042 142.418 31.6458C142.163 31.9842 141.807 32.2488 141.352 32.4396C140.897 32.6304 140.374 32.7257 139.783 32.7257C138.915 32.7257 138.217 32.5442 137.688 32.1811C137.158 31.815 136.843 31.3058 136.741 30.6535L138.371 30.4966C138.444 30.8166 138.601 31.0581 138.841 31.2212C139.081 31.3842 139.394 31.4658 139.778 31.4658C140.175 31.4658 140.494 31.3842 140.734 31.2212C140.977 31.0581 141.098 30.8566 141.098 30.6166C141.098 30.4135 141.02 30.2458 140.863 30.1135C140.709 29.9812 140.469 29.8797 140.143 29.8089L138.934 29.555C138.254 29.4135 137.751 29.1751 137.424 28.8397C137.098 28.5012 136.937 28.0735 136.94 27.5566C136.937 27.1197 137.055 26.7413 137.295 26.4213C137.538 26.0982 137.875 25.849 138.306 25.6736C138.74 25.4951 139.24 25.4059 139.806 25.4059C140.637 25.4059 141.291 25.5828 141.767 25.9367C142.247 26.2905 142.544 26.769 142.658 27.372Z" fill="#2E2F59"/>
<rect x="46.4375" y="45.5806" width="198" height="6" rx="3" fill="#D5D6F8" fill-opacity="0.3"/>
<rect x="46.4375" y="57.3568" width="191.811" height="5.77627" rx="2.88814" fill="#D5D6F8" fill-opacity="0.3"/>
</g>
<g filter="url(#filter1_d_1347_1310)">
<rect x="6.00342" y="87.5737" width="333.33" height="72.4271" rx="8.66441" fill="white"/>
<rect x="6.25342" y="87.8237" width="332.83" height="71.9271" rx="8.41441" stroke="#BFC0CE" stroke-width="0.5"/>
<rect x="21.1664" y="102.736" width="15.8847" height="15.8847" rx="7.94237" stroke="#22AE55" stroke-width="1.44407"/>
<path d="M26.6196 113.679V112.719L28.8627 110.642C29.0534 110.457 29.2134 110.291 29.3427 110.144C29.4739 109.996 29.5734 109.851 29.6411 109.71C29.7088 109.566 29.7426 109.411 29.7426 109.245C29.7426 109.06 29.7006 108.902 29.6165 108.768C29.5324 108.633 29.4175 108.529 29.2719 108.457C29.1263 108.384 28.9611 108.347 28.7765 108.347C28.5837 108.347 28.4155 108.386 28.2719 108.464C28.1283 108.542 28.0176 108.653 27.9396 108.799C27.8617 108.945 27.8227 109.118 27.8227 109.319H26.5581C26.5581 108.907 26.6514 108.549 26.8381 108.245C27.0248 107.942 27.2863 107.707 27.6227 107.541C27.9591 107.374 28.3468 107.291 28.7857 107.291C29.237 107.291 29.6298 107.371 29.9642 107.531C30.3006 107.689 30.5621 107.909 30.7488 108.19C30.9354 108.471 31.0288 108.793 31.0288 109.156C31.0288 109.394 30.9816 109.629 30.8872 109.86C30.7949 110.092 30.6298 110.35 30.3919 110.633C30.1539 110.914 29.8185 111.251 29.3857 111.645L28.4658 112.547V112.59H31.1118V113.679H26.6196Z" fill="#22AE55"/>
<path d="M46.9148 106.613V105.287H53.8778V106.613H51.1804V114.015H49.6122V106.613H46.9148ZM57.1005 114.142C56.4442 114.142 55.8775 114.006 55.4002 113.733C54.9258 113.458 54.5607 113.069 54.305 112.566C54.0494 112.06 53.9215 111.465 53.9215 110.78C53.9215 110.107 54.0494 109.516 54.305 109.007C54.5636 108.496 54.9244 108.098 55.3874 107.814C55.8505 107.527 56.3945 107.384 57.0195 107.384C57.4229 107.384 57.8036 107.449 58.1616 107.58C58.5224 107.708 58.8406 107.907 59.1161 108.176C59.3945 108.446 59.6133 108.79 59.7724 109.208C59.9315 109.622 60.011 110.117 60.011 110.691V111.164H54.646V110.124H58.5323C58.5295 109.828 58.4656 109.566 58.3406 109.336C58.2156 109.103 58.0408 108.919 57.8164 108.786C57.5948 108.652 57.3363 108.586 57.0408 108.586C56.7255 108.586 56.4485 108.662 56.2099 108.816C55.9712 108.966 55.7852 109.165 55.6516 109.412C55.521 109.657 55.4542 109.925 55.4513 110.218V111.125C55.4513 111.506 55.521 111.833 55.6602 112.105C55.7994 112.375 55.994 112.583 56.244 112.728C56.494 112.87 56.7866 112.941 57.1218 112.941C57.3462 112.941 57.5494 112.909 57.7312 112.847C57.913 112.782 58.0707 112.686 58.2042 112.561C58.3377 112.436 58.4386 112.282 58.5067 112.097L59.9471 112.259C59.8562 112.64 59.6829 112.972 59.4272 113.256C59.1744 113.537 58.8505 113.756 58.4556 113.912C58.0607 114.066 57.609 114.142 57.1005 114.142ZM61.3161 114.015V107.469H62.8118V108.56H62.88C62.9993 108.182 63.2038 107.891 63.4936 107.686C63.7862 107.479 64.12 107.375 64.495 107.375C64.5803 107.375 64.6754 107.38 64.7805 107.388C64.8885 107.394 64.978 107.404 65.049 107.418V108.837C64.9837 108.814 64.88 108.794 64.7379 108.777C64.5987 108.757 64.4638 108.747 64.3331 108.747C64.0518 108.747 63.799 108.809 63.5746 108.931C63.353 109.05 63.1783 109.216 63.0504 109.429C62.9226 109.642 62.8587 109.888 62.8587 110.167V114.015H61.3161ZM66.0739 114.015V107.469H67.5483V108.581H67.625C67.7614 108.206 67.9872 107.914 68.3026 107.703C68.6179 107.49 68.9943 107.384 69.4318 107.384C69.875 107.384 70.2486 107.492 70.5526 107.708C70.8594 107.921 71.0753 108.212 71.2003 108.581H71.2685C71.4134 108.218 71.6577 107.928 72.0014 107.712C72.348 107.493 72.7585 107.384 73.233 107.384C73.8352 107.384 74.3267 107.574 74.7074 107.955C75.0881 108.336 75.2784 108.891 75.2784 109.621V114.015H73.7315V109.86C73.7315 109.453 73.6236 109.157 73.4077 108.969C73.1918 108.779 72.9276 108.684 72.6151 108.684C72.2429 108.684 71.9517 108.8 71.7415 109.033C71.5341 109.263 71.4304 109.563 71.4304 109.932V114.015H69.9176V109.796C69.9176 109.458 69.8153 109.188 69.6108 108.986C69.4091 108.784 69.1449 108.684 68.8182 108.684C68.5966 108.684 68.3949 108.74 68.2131 108.854C68.0313 108.965 67.8864 109.122 67.7784 109.327C67.6705 109.529 67.6165 109.765 67.6165 110.034V114.015H66.0739ZM84.631 107.686C84.5913 107.314 84.4237 107.024 84.1282 106.817C83.8356 106.61 83.4549 106.506 82.9862 106.506C82.6566 106.506 82.3739 106.556 82.1381 106.655C81.9023 106.755 81.7219 106.89 81.5969 107.06C81.4719 107.23 81.408 107.425 81.4052 107.644C81.4052 107.826 81.4464 107.983 81.5288 108.117C81.614 108.25 81.729 108.364 81.8739 108.458C82.0188 108.549 82.1793 108.625 82.3555 108.688C82.5316 108.75 82.7092 108.803 82.8881 108.845L83.7063 109.05C84.0359 109.127 84.3526 109.23 84.6566 109.361C84.9634 109.492 85.2376 109.657 85.479 109.855C85.7234 110.054 85.9165 110.294 86.0586 110.576C86.2006 110.857 86.2717 111.186 86.2717 111.564C86.2717 112.076 86.141 112.526 85.8796 112.915C85.6183 113.301 85.2404 113.604 84.7461 113.823C84.2546 114.039 83.6594 114.147 82.9606 114.147C82.2816 114.147 81.6921 114.042 81.1921 113.831C80.695 113.621 80.3058 113.314 80.0245 112.911C79.7461 112.507 79.5955 112.016 79.5728 111.436H81.1282C81.1509 111.74 81.2447 111.993 81.4094 112.195C81.5742 112.397 81.7887 112.547 82.0529 112.647C82.32 112.746 82.6183 112.796 82.9478 112.796C83.2915 112.796 83.5927 112.745 83.8512 112.642C84.1126 112.537 84.3171 112.392 84.4648 112.208C84.6126 112.02 84.6879 111.801 84.6907 111.551C84.6879 111.324 84.6211 111.137 84.4904 110.989C84.3597 110.838 84.1765 110.713 83.9407 110.614C83.7077 110.512 83.435 110.421 83.1225 110.341L82.1296 110.086C81.4109 109.901 80.8427 109.621 80.4251 109.246C80.0103 108.868 79.8029 108.367 79.8029 107.742C79.8029 107.228 79.9421 106.777 80.2205 106.391C80.5018 106.005 80.8839 105.705 81.3668 105.492C81.8498 105.276 82.3967 105.168 83.0075 105.168C83.6268 105.168 84.1694 105.276 84.6353 105.492C85.104 105.705 85.4719 106.002 85.739 106.382C86.006 106.76 86.1438 107.195 86.1523 107.686H84.631ZM89.1555 110.179V114.015H87.6129V105.287H89.1214V108.581H89.1982C89.3516 108.212 89.5888 107.921 89.9098 107.708C90.2337 107.492 90.6456 107.384 91.1456 107.384C91.6001 107.384 91.9964 107.479 92.3345 107.669C92.6726 107.86 92.9339 108.138 93.1186 108.505C93.3061 108.871 93.3999 109.319 93.3999 109.847V114.015H91.8572V110.086C91.8572 109.645 91.7436 109.303 91.5163 109.059C91.2919 108.811 90.9766 108.688 90.5703 108.688C90.2976 108.688 90.0533 108.747 89.8374 108.867C89.6243 108.983 89.4567 109.152 89.3345 109.374C89.2152 109.595 89.1555 109.864 89.1555 110.179ZM97.87 114.142C97.2138 114.142 96.647 114.006 96.1697 113.733C95.6953 113.458 95.3303 113.069 95.0746 112.566C94.8189 112.06 94.6911 111.465 94.6911 110.78C94.6911 110.107 94.8189 109.516 95.0746 109.007C95.3331 108.496 95.6939 108.098 96.157 107.814C96.62 107.527 97.1641 107.384 97.7891 107.384C98.1925 107.384 98.5732 107.449 98.9311 107.58C99.2919 107.708 99.6101 107.907 99.8857 108.176C100.164 108.446 100.383 108.79 100.542 109.208C100.701 109.622 100.781 110.117 100.781 110.691V111.164H95.4155V110.124H99.3018C99.299 109.828 99.2351 109.566 99.1101 109.336C98.9851 109.103 98.8104 108.919 98.5859 108.786C98.3643 108.652 98.1058 108.586 97.8104 108.586C97.495 108.586 97.218 108.662 96.9794 108.816C96.7408 108.966 96.5547 109.165 96.4212 109.412C96.2905 109.657 96.2237 109.925 96.2209 110.218V111.125C96.2209 111.506 96.2905 111.833 96.4297 112.105C96.5689 112.375 96.7635 112.583 97.0135 112.728C97.2635 112.87 97.5561 112.941 97.8913 112.941C98.1158 112.941 98.3189 112.909 98.5007 112.847C98.6825 112.782 98.8402 112.686 98.9737 112.561C99.1072 112.436 99.2081 112.282 99.2763 112.097L100.717 112.259C100.626 112.64 100.452 112.972 100.197 113.256C99.9439 113.537 99.62 113.756 99.2251 113.912C98.8303 114.066 98.3786 114.142 97.87 114.142ZM104.983 114.142C104.327 114.142 103.76 114.006 103.283 113.733C102.809 113.458 102.444 113.069 102.188 112.566C101.932 112.06 101.804 111.465 101.804 110.78C101.804 110.107 101.932 109.516 102.188 109.007C102.446 108.496 102.807 108.098 103.27 107.814C103.733 107.527 104.277 107.384 104.902 107.384C105.306 107.384 105.686 107.449 106.044 107.58C106.405 107.708 106.723 107.907 106.999 108.176C107.277 108.446 107.496 108.79 107.655 109.208C107.814 109.622 107.894 110.117 107.894 110.691V111.164H102.529V110.124H106.415C106.412 109.828 106.348 109.566 106.223 109.336C106.098 109.103 105.924 108.919 105.699 108.786C105.478 108.652 105.219 108.586 104.924 108.586C104.608 108.586 104.331 108.662 104.093 108.816C103.854 108.966 103.668 109.165 103.534 109.412C103.404 109.657 103.337 109.925 103.334 110.218V111.125C103.334 111.506 103.404 111.833 103.543 112.105C103.682 112.375 103.877 112.583 104.127 112.728C104.377 112.87 104.669 112.941 105.005 112.941C105.229 112.941 105.432 112.909 105.614 112.847C105.796 112.782 105.953 112.686 106.087 112.561C106.221 112.436 106.321 112.282 106.39 112.097L107.83 112.259C107.739 112.64 107.566 112.972 107.31 113.256C107.057 113.537 106.733 113.756 106.338 113.912C105.944 114.066 105.492 114.142 104.983 114.142ZM112.467 107.469V108.662H108.705V107.469H112.467ZM109.634 105.901H111.176V112.046C111.176 112.253 111.207 112.412 111.27 112.523C111.335 112.631 111.42 112.705 111.526 112.745C111.631 112.784 111.747 112.804 111.875 112.804C111.972 112.804 112.06 112.797 112.139 112.783C112.222 112.769 112.284 112.756 112.327 112.745L112.587 113.951C112.504 113.979 112.386 114.01 112.233 114.044C112.082 114.078 111.898 114.098 111.679 114.104C111.293 114.115 110.945 114.057 110.635 113.929C110.325 113.799 110.08 113.597 109.898 113.324C109.719 113.051 109.631 112.711 109.634 112.301V105.901ZM118.837 109.199L117.431 109.353C117.391 109.211 117.321 109.077 117.222 108.952C117.125 108.827 116.995 108.726 116.83 108.649C116.665 108.573 116.463 108.534 116.225 108.534C115.904 108.534 115.634 108.604 115.415 108.743C115.199 108.882 115.093 109.063 115.096 109.284C115.093 109.475 115.162 109.63 115.304 109.749C115.449 109.868 115.688 109.966 116.02 110.043L117.137 110.282C117.756 110.415 118.216 110.627 118.517 110.917C118.821 111.206 118.975 111.586 118.978 112.054C118.975 112.466 118.854 112.83 118.615 113.145C118.38 113.458 118.051 113.702 117.631 113.878C117.211 114.054 116.728 114.142 116.182 114.142C115.381 114.142 114.736 113.975 114.248 113.64C113.759 113.301 113.468 112.831 113.374 112.229L114.878 112.084C114.946 112.38 115.091 112.603 115.313 112.753C115.534 112.904 115.823 112.979 116.178 112.979C116.544 112.979 116.838 112.904 117.06 112.753C117.284 112.603 117.397 112.417 117.397 112.195C117.397 112.007 117.324 111.853 117.179 111.73C117.037 111.608 116.816 111.515 116.515 111.449L115.398 111.215C114.77 111.084 114.306 110.864 114.005 110.554C113.703 110.242 113.554 109.847 113.557 109.37C113.554 108.966 113.664 108.617 113.885 108.321C114.11 108.023 114.421 107.793 114.819 107.631C115.219 107.466 115.681 107.384 116.203 107.384C116.971 107.384 117.574 107.547 118.015 107.874C118.458 108.201 118.732 108.642 118.837 109.199Z" fill="#2E2F59"/>
<rect x="46.4375" y="128.008" width="198" height="6" rx="3" fill="#78C999"/>
<rect x="46.4375" y="139.784" width="191.811" height="5.77627" rx="2.88814" fill="#78C999"/>
</g>
<g opacity="0.6" filter="url(#filter2_d_1347_1310)">
<rect x="6.00342" y="170.001" width="333.33" height="72.4271" rx="8.66441" fill="white"/>
<rect x="6.25342" y="170.251" width="332.83" height="71.9271" rx="8.41441" stroke="#BFC0CE" stroke-width="0.5"/>
<rect x="21.1664" y="185.164" width="15.8858" height="15.8858" rx="7.94292" stroke="#E5E5E5" stroke-width="1.44417"/>
<path d="M28.9495 196.193C28.49 196.193 28.0807 196.114 27.7218 195.956C27.3648 195.796 27.0828 195.576 26.8756 195.297C26.6704 195.016 26.5648 194.692 26.5586 194.325H27.9002C27.9084 194.479 27.9587 194.614 28.051 194.731C28.1454 194.846 28.2705 194.935 28.4264 194.999C28.5823 195.062 28.7577 195.094 28.9526 195.094C29.1557 195.094 29.3352 195.058 29.4911 194.987C29.647 194.915 29.769 194.815 29.8572 194.688C29.9454 194.561 29.9895 194.414 29.9895 194.248C29.9895 194.08 29.9424 193.931 29.848 193.802C29.7557 193.671 29.6224 193.568 29.448 193.494C29.2757 193.42 29.0705 193.383 28.8326 193.383H28.2449V192.405H28.8326C29.0336 192.405 29.2111 192.37 29.3649 192.3C29.5208 192.23 29.6418 192.134 29.728 192.011C29.8142 191.886 29.8572 191.74 29.8572 191.574C29.8572 191.416 29.8193 191.278 29.7434 191.159C29.6695 191.038 29.5649 190.943 29.4295 190.876C29.2962 190.808 29.1403 190.774 28.9618 190.774C28.7813 190.774 28.6162 190.807 28.4664 190.872C28.3167 190.936 28.1966 191.027 28.1064 191.146C28.0161 191.265 27.9679 191.405 27.9618 191.565H26.6848C26.6909 191.202 26.7945 190.882 26.9956 190.605C27.1966 190.328 27.4674 190.111 27.8079 189.956C28.1505 189.798 28.5372 189.719 28.968 189.719C29.4029 189.719 29.7834 189.798 30.1096 189.956C30.4357 190.113 30.6891 190.327 30.8696 190.596C31.0522 190.862 31.1424 191.162 31.1404 191.494C31.1424 191.847 31.0327 192.141 30.8111 192.377C30.5916 192.613 30.3055 192.763 29.9526 192.826V192.876C30.4162 192.935 30.7691 193.096 31.0111 193.359C31.2552 193.619 31.3763 193.945 31.3742 194.337C31.3763 194.696 31.2727 195.015 31.0634 195.294C30.8563 195.573 30.5701 195.793 30.2049 195.953C29.8398 196.113 29.4213 196.193 28.9495 196.193Z" fill="#767796"/>
<path d="M48.5851 197.442H46.7574L50.085 187.989H52.1988L55.5311 197.442H53.7034L51.1789 189.928H51.105L48.5851 197.442ZM48.6451 193.735H53.6296V195.111H48.6451V193.735ZM59.1171 197.566C58.5602 197.566 58.0618 197.423 57.6218 197.137C57.1818 196.851 56.8341 196.435 56.5787 195.891C56.3233 195.346 56.1957 194.685 56.1957 193.906C56.1957 193.119 56.3249 192.454 56.5833 191.912C56.8449 191.368 57.1972 190.957 57.6402 190.68C58.0833 190.4 58.5771 190.26 59.1217 190.26C59.5371 190.26 59.8786 190.331 60.1463 190.472C60.414 190.611 60.6263 190.779 60.7832 190.976C60.9402 191.169 61.0617 191.352 61.1478 191.525H61.2171V187.989H62.8924V197.442H61.2494V196.325H61.1478C61.0617 196.497 60.9371 196.68 60.774 196.874C60.6109 197.065 60.3956 197.228 60.1279 197.363C59.8602 197.498 59.5233 197.566 59.1171 197.566ZM59.5833 196.195C59.9371 196.195 60.2386 196.1 60.4879 195.909C60.7371 195.715 60.9263 195.446 61.0555 195.102C61.1848 194.757 61.2494 194.355 61.2494 193.897C61.2494 193.439 61.1848 193.04 61.0555 192.702C60.9294 192.363 60.7417 192.1 60.4925 191.912C60.2463 191.725 59.9433 191.631 59.5833 191.631C59.211 191.631 58.9002 191.728 58.651 191.922C58.4018 192.116 58.2141 192.383 58.0879 192.725C57.9618 193.066 57.8987 193.457 57.8987 193.897C57.8987 194.34 57.9618 194.735 58.0879 195.083C58.2171 195.428 58.4064 195.7 58.6556 195.9C58.9079 196.097 59.2171 196.195 59.5833 196.195ZM71.0049 190.352L68.4804 197.442H66.6342L64.1097 190.352H65.8912L67.5204 195.618H67.5942L69.228 190.352H71.0049ZM73.9979 197.585C73.5487 197.585 73.1441 197.505 72.7841 197.345C72.4272 197.182 72.1441 196.942 71.9349 196.625C71.7287 196.308 71.6257 195.917 71.6257 195.452C71.6257 195.052 71.6995 194.722 71.8472 194.46C71.9949 194.199 72.1964 193.989 72.4518 193.832C72.7072 193.675 72.9949 193.557 73.3149 193.477C73.6379 193.394 73.9718 193.334 74.3164 193.297C74.7317 193.254 75.0687 193.215 75.3271 193.182C75.5856 193.145 75.7733 193.089 75.8902 193.015C76.0102 192.939 76.0702 192.82 76.0702 192.66V192.632C76.0702 192.285 75.9671 192.016 75.761 191.825C75.5548 191.634 75.2579 191.539 74.8702 191.539C74.461 191.539 74.1364 191.628 73.8964 191.806C73.6595 191.985 73.4995 192.196 73.4164 192.439L71.8564 192.217C71.9795 191.786 72.1826 191.426 72.4656 191.137C72.7487 190.845 73.0949 190.626 73.5041 190.482C73.9133 190.334 74.3656 190.26 74.861 190.26C75.2025 190.26 75.5425 190.3 75.8809 190.38C76.2194 190.46 76.5286 190.592 76.8086 190.777C77.0886 190.959 77.3132 191.206 77.4824 191.52C77.6548 191.834 77.7409 192.226 77.7409 192.697V197.442H76.1348V196.468H76.0794C75.9779 196.665 75.8348 196.849 75.6502 197.022C75.4687 197.191 75.2394 197.328 74.9625 197.432C74.6887 197.534 74.3671 197.585 73.9979 197.585ZM74.4318 196.357C74.7671 196.357 75.0579 196.291 75.304 196.158C75.5502 196.023 75.7394 195.845 75.8717 195.623C76.0071 195.402 76.0748 195.16 76.0748 194.899V194.063C76.0225 194.106 75.9333 194.146 75.8071 194.183C75.684 194.22 75.5456 194.252 75.3917 194.28C75.2379 194.308 75.0856 194.332 74.9348 194.354C74.7841 194.375 74.6533 194.394 74.5425 194.409C74.2933 194.443 74.0702 194.499 73.8733 194.575C73.6764 194.652 73.521 194.76 73.4072 194.899C73.2933 195.034 73.2364 195.209 73.2364 195.425C73.2364 195.732 73.3487 195.965 73.5733 196.122C73.7979 196.278 74.0841 196.357 74.4318 196.357ZM81.0916 193.288V197.442H79.4209V190.352H81.0177V191.557H81.1008C81.2639 191.16 81.5239 190.845 81.8808 190.611C82.2408 190.377 82.6854 190.26 83.2146 190.26C83.7038 190.26 84.13 190.365 84.4931 190.574C84.8592 190.783 85.1423 191.086 85.3423 191.483C85.5453 191.88 85.6453 192.362 85.6423 192.928V197.442H83.9715V193.186C83.9715 192.712 83.8485 192.342 83.6023 192.074C83.3592 191.806 83.0223 191.672 82.5916 191.672C82.2993 191.672 82.0393 191.737 81.8116 191.866C81.587 191.992 81.41 192.176 81.2808 192.415C81.1547 192.655 81.0916 192.946 81.0916 193.288ZM90.4329 197.58C89.7252 197.58 89.1176 197.425 88.6099 197.114C88.1053 196.803 87.716 196.374 87.4422 195.826C87.1714 195.275 87.0361 194.642 87.0361 193.925C87.0361 193.205 87.1745 192.569 87.4514 192.019C87.7284 191.465 88.1191 191.034 88.6237 190.726C89.1314 190.416 89.7314 190.26 90.4237 190.26C90.999 190.26 91.5083 190.366 91.9513 190.579C92.3975 190.788 92.7528 191.085 93.0175 191.469C93.2821 191.851 93.4328 192.297 93.4698 192.808H91.8729C91.8083 192.466 91.6544 192.182 91.4113 191.954C91.1713 191.723 90.8498 191.608 90.4468 191.608C90.1052 191.608 89.8052 191.7 89.5468 191.885C89.2883 192.066 89.0868 192.328 88.9422 192.669C88.8006 193.011 88.7299 193.42 88.7299 193.897C88.7299 194.38 88.8006 194.795 88.9422 195.143C89.0837 195.488 89.2822 195.754 89.5375 195.942C89.796 196.126 90.0991 196.218 90.4468 196.218C90.6929 196.218 90.9129 196.172 91.1067 196.08C91.3037 195.985 91.4683 195.848 91.6006 195.669C91.7329 195.491 91.8236 195.274 91.8729 195.019H93.4698C93.4298 195.52 93.2821 195.965 93.0267 196.352C92.7713 196.737 92.4236 197.038 91.9836 197.257C91.5436 197.472 91.0267 197.58 90.4329 197.58ZM97.98 197.58C97.2693 197.58 96.6555 197.432 96.1385 197.137C95.6247 196.838 95.2293 196.417 94.9524 195.872C94.6755 195.325 94.537 194.68 94.537 193.939C94.537 193.209 94.6755 192.569 94.9524 192.019C95.2324 191.465 95.6232 191.034 96.1247 190.726C96.6262 190.416 97.2154 190.26 97.8923 190.26C98.3293 190.26 98.7416 190.331 99.1292 190.472C99.52 190.611 99.8646 190.826 100.163 191.119C100.465 191.411 100.702 191.783 100.874 192.235C101.046 192.685 101.132 193.22 101.132 193.842V194.354H95.3216V193.228H99.5308C99.5277 192.908 99.4585 192.623 99.3231 192.374C99.1877 192.122 98.9985 191.923 98.7554 191.779C98.5154 191.634 98.2354 191.562 97.9154 191.562C97.5739 191.562 97.2739 191.645 97.0154 191.811C96.757 191.974 96.5555 192.189 96.4108 192.457C96.2693 192.722 96.197 193.012 96.1939 193.329V194.312C96.1939 194.725 96.2693 195.079 96.4201 195.374C96.5708 195.666 96.7816 195.891 97.0524 196.048C97.3231 196.202 97.64 196.278 98.0031 196.278C98.2462 196.278 98.4662 196.245 98.6631 196.177C98.86 196.106 99.0308 196.003 99.1754 195.868C99.32 195.732 99.4292 195.565 99.5031 195.365L101.063 195.54C100.965 195.952 100.777 196.312 100.5 196.62C100.226 196.925 99.8754 197.162 99.4477 197.331C99.02 197.497 98.5308 197.58 97.98 197.58ZM105.176 197.566C104.619 197.566 104.121 197.423 103.681 197.137C103.241 196.851 102.893 196.435 102.638 195.891C102.383 195.346 102.255 194.685 102.255 193.906C102.255 193.119 102.384 192.454 102.643 191.912C102.904 191.368 103.256 190.957 103.7 190.68C104.143 190.4 104.636 190.26 105.181 190.26C105.596 190.26 105.938 190.331 106.206 190.472C106.473 190.611 106.686 190.779 106.843 190.976C106.999 191.169 107.121 191.352 107.207 191.525H107.276V187.989H108.952V197.442H107.309V196.325H107.207C107.121 196.497 106.996 196.68 106.833 196.874C106.67 197.065 106.455 197.228 106.187 197.363C105.919 197.498 105.583 197.566 105.176 197.566ZM105.643 196.195C105.996 196.195 106.298 196.1 106.547 195.909C106.796 195.715 106.986 195.446 107.115 195.102C107.244 194.757 107.309 194.355 107.309 193.897C107.309 193.439 107.244 193.04 107.115 192.702C106.989 192.363 106.801 192.1 106.552 191.912C106.306 191.725 106.003 191.631 105.643 191.631C105.27 191.631 104.959 191.728 104.71 191.922C104.461 192.116 104.273 192.383 104.147 192.725C104.021 193.066 103.958 193.457 103.958 193.897C103.958 194.34 104.021 194.735 104.147 195.083C104.276 195.428 104.466 195.7 104.715 195.9C104.967 196.097 105.276 196.195 105.643 196.195ZM117.496 190.352V191.645H113.42V190.352H117.496ZM114.427 188.654H116.097V195.309C116.097 195.534 116.131 195.706 116.199 195.826C116.27 195.943 116.362 196.023 116.476 196.066C116.59 196.109 116.716 196.131 116.854 196.131C116.959 196.131 117.054 196.123 117.14 196.108C117.23 196.092 117.297 196.078 117.343 196.066L117.625 197.372C117.536 197.403 117.408 197.437 117.242 197.474C117.079 197.511 116.879 197.532 116.642 197.538C116.223 197.551 115.847 197.488 115.511 197.349C115.176 197.208 114.91 196.989 114.713 196.694C114.519 196.398 114.423 196.029 114.427 195.586V188.654ZM121.955 197.58C121.244 197.58 120.631 197.432 120.114 197.137C119.6 196.838 119.205 196.417 118.928 195.872C118.651 195.325 118.512 194.68 118.512 193.939C118.512 193.209 118.651 192.569 118.928 192.019C119.208 191.465 119.598 191.034 120.1 190.726C120.601 190.416 121.191 190.26 121.868 190.26C122.304 190.26 122.717 190.331 123.104 190.472C123.495 190.611 123.84 190.826 124.138 191.119C124.44 191.411 124.677 191.783 124.849 192.235C125.021 192.685 125.107 193.22 125.107 193.842V194.354H119.297V193.228H123.506C123.503 192.908 123.434 192.623 123.298 192.374C123.163 192.122 122.974 191.923 122.731 191.779C122.491 191.634 122.211 191.562 121.891 191.562C121.549 191.562 121.249 191.645 120.991 191.811C120.732 191.974 120.531 192.189 120.386 192.457C120.244 192.722 120.172 193.012 120.169 193.329V194.312C120.169 194.725 120.244 195.079 120.395 195.374C120.546 195.666 120.757 195.891 121.028 196.048C121.298 196.202 121.615 196.278 121.978 196.278C122.221 196.278 122.441 196.245 122.638 196.177C122.835 196.106 123.006 196.003 123.151 195.868C123.295 195.732 123.404 195.565 123.478 195.365L125.038 195.54C124.94 195.952 124.752 196.312 124.475 196.62C124.201 196.925 123.851 197.162 123.423 197.331C122.995 197.497 122.506 197.58 121.955 197.58ZM126.521 197.442V190.352H128.141V191.534H128.215C128.344 191.125 128.565 190.809 128.879 190.588C129.196 190.363 129.558 190.251 129.964 190.251C130.056 190.251 130.159 190.256 130.273 190.265C130.39 190.271 130.487 190.282 130.564 190.297V191.834C130.493 191.809 130.381 191.788 130.227 191.769C130.076 191.748 129.93 191.737 129.788 191.737C129.484 191.737 129.21 191.803 128.967 191.936C128.727 192.065 128.538 192.245 128.399 192.475C128.261 192.706 128.192 192.972 128.192 193.274V197.442H126.521ZM131.674 197.442V190.352H133.271V191.557H133.354C133.501 191.151 133.746 190.834 134.088 190.606C134.429 190.376 134.837 190.26 135.311 190.26C135.791 190.26 136.195 190.377 136.524 190.611C136.857 190.842 137.091 191.157 137.226 191.557H137.3C137.457 191.163 137.721 190.849 138.094 190.616C138.469 190.379 138.914 190.26 139.428 190.26C140.08 190.26 140.612 190.466 141.024 190.879C141.437 191.291 141.643 191.892 141.643 192.683V197.442H139.967V192.942C139.967 192.502 139.851 192.18 139.617 191.977C139.383 191.771 139.097 191.668 138.758 191.668C138.355 191.668 138.04 191.794 137.812 192.046C137.588 192.295 137.475 192.62 137.475 193.02V197.442H135.837V192.872C135.837 192.506 135.726 192.214 135.505 191.996C135.286 191.777 135 191.668 134.646 191.668C134.406 191.668 134.188 191.729 133.991 191.852C133.794 191.972 133.637 192.143 133.52 192.365C133.403 192.583 133.345 192.839 133.345 193.131V197.442H131.674Z" fill="#2E2F59"/>
<rect x="46.4375" y="210.435" width="198" height="6" rx="3" fill="#D5D6F8" fill-opacity="0.3"/>
<rect x="46.4375" y="222.211" width="191.811" height="5.77627" rx="2.88814" fill="#D5D6F8" fill-opacity="0.3"/>
</g>
<defs>
<filter id="filter0_d_1347_1310" x="0.00341797" y="0.146606" width="345.33" height="84.4271" filterUnits="userSpaceOnUse" color-interpolation-filters="sRGB">
<feFlood flood-opacity="0" result="BackgroundImageFix"/>
<feColorMatrix in="SourceAlpha" type="matrix" values="0 0 0 0 0 0 0 0 0 0 0 0 0 0 0 0 0 0 127 0" result="hardAlpha"/>
<feOffset dy="1"/>
<feGaussianBlur stdDeviation="3"/>
<feComposite in2="hardAlpha" operator="out"/>
<feColorMatrix type="matrix" values="0 0 0 0 0 0 0 0 0 0 0 0 0 0 0 0 0 0 0.12 0"/>
<feBlend mode="normal" in2="BackgroundImageFix" result="effect1_dropShadow_1347_1310"/>
<feBlend mode="normal" in="SourceGraphic" in2="effect1_dropShadow_1347_1310" result="shape"/>
</filter>
<filter id="filter1_d_1347_1310" x="0.00341797" y="85.5737" width="345.33" height="84.4271" filterUnits="userSpaceOnUse" color-interpolation-filters="sRGB">
<feFlood flood-opacity="0" result="BackgroundImageFix"/>
<feColorMatrix in="SourceAlpha" type="matrix" values="0 0 0 0 0 0 0 0 0 0 0 0 0 0 0 0 0 0 127 0" result="hardAlpha"/>
<feOffset dy="4"/>
<feGaussianBlur stdDeviation="3"/>
<feComposite in2="hardAlpha" operator="out"/>
<feColorMatrix type="matrix" values="0 0 0 0 0 0 0 0 0 0 0 0 0 0 0 0 0 0 0.06 0"/>
<feBlend mode="normal" in2="BackgroundImageFix" result="effect1_dropShadow_1347_1310"/>
<feBlend mode="normal" in="SourceGraphic" in2="effect1_dropShadow_1347_1310" result="shape"/>
</filter>
<filter id="filter2_d_1347_1310" x="0.00341797" y="165.001" width="345.33" height="84.4271" filterUnits="userSpaceOnUse" color-interpolation-filters="sRGB">
<feFlood flood-opacity="0" result="BackgroundImageFix"/>
<feColorMatrix in="SourceAlpha" type="matrix" values="0 0 0 0 0 0 0 0 0 0 0 0 0 0 0 0 0 0 127 0" result="hardAlpha"/>
<feOffset dy="1"/>
<feGaussianBlur stdDeviation="3"/>
<feComposite in2="hardAlpha" operator="out"/>
<feColorMatrix type="matrix" values="0 0 0 0 0 0 0 0 0 0 0 0 0 0 0 0 0 0 0.12 0"/>
<feBlend mode="normal" in2="BackgroundImageFix" result="effect1_dropShadow_1347_1310"/>
<feBlend mode="normal" in="SourceGraphic" in2="effect1_dropShadow_1347_1310" result="shape"/>
</filter>
</defs>
</svg>
