<svg width="32" height="32" viewBox="0 0 32 32" fill="none" xmlns="http://www.w3.org/2000/svg">
<rect x="0.5" y="0.5" width="31" height="31" rx="15.5" fill="white"/>
<rect x="0.5" y="0.5" width="31" height="31" rx="15.5" stroke="#ECECEC"/>
<g clip-path="url(#clip0_967_10351)">
<path d="M12.9672 6.65827C10.9689 7.3515 9.24556 8.66728 8.05032 10.4123C6.85508 12.1574 6.25095 14.2397 6.32665 16.3535C6.40236 18.4673 7.15391 20.5011 8.47092 22.1562C9.78794 23.8113 11.601 25.0004 13.6438 25.5489C15.2999 25.9762 17.035 25.995 18.7 25.6036C20.2083 25.2648 21.6028 24.5401 22.7469 23.5005C23.9376 22.3854 24.802 20.9668 25.2469 19.3973C25.7305 17.6906 25.8166 15.8957 25.4985 14.1505H16.1985V18.0083H21.5844C21.4768 18.6236 21.2461 19.2108 20.9062 19.7349C20.5663 20.2589 20.1242 20.7091 19.6063 21.0583C18.9486 21.4933 18.2072 21.786 17.4297 21.9176C16.6499 22.0626 15.8501 22.0626 15.0703 21.9176C14.28 21.7542 13.5324 21.428 12.875 20.9598C11.819 20.2123 11.0261 19.1503 10.6094 17.9255C10.1857 16.6776 10.1857 15.3248 10.6094 14.077C10.906 13.2024 11.3963 12.406 12.0438 11.7473C12.7847 10.9797 13.7227 10.4311 14.755 10.1615C15.7872 9.89195 16.8737 9.91191 17.8953 10.2192C18.6934 10.4642 19.4232 10.8922 20.0266 11.4692C20.6339 10.865 21.2401 10.2593 21.8453 9.65202C22.1578 9.32545 22.4985 9.01452 22.8063 8.68014C21.8853 7.82307 20.8042 7.15617 19.625 6.71764C17.4777 5.93794 15.1281 5.91699 12.9672 6.65827Z" fill="white"/>
<path d="M12.9676 6.65707C15.1283 5.91529 17.4779 5.93569 19.6254 6.71489C20.8048 7.15639 21.8854 7.82651 22.8051 8.68676C22.4926 9.02114 22.1629 9.33364 21.8441 9.65864C21.2379 10.2638 20.6322 10.867 20.027 11.468C19.4236 10.891 18.6938 10.463 17.8957 10.218C16.8744 9.90964 15.7879 9.88852 14.7554 10.157C13.7229 10.4254 12.7843 10.9731 12.0426 11.7399C11.3951 12.3985 10.9048 13.1949 10.6082 14.0696L7.36914 11.5618C8.52853 9.26264 10.5359 7.50399 12.9676 6.65707Z" fill="#E33629"/>
<path d="M6.50918 14.0469C6.68327 13.1841 6.97231 12.3485 7.36855 11.5625L10.6076 14.0766C10.1839 15.3244 10.1839 16.6772 10.6076 17.925C9.52845 18.7583 8.44876 19.5958 7.36855 20.4375C6.3766 18.463 6.07407 16.2133 6.50918 14.0469Z" fill="#F8BD00"/>
<path d="M16.198 14.1484H25.498C25.8161 15.8936 25.73 17.6885 25.2464 19.3953C24.8015 20.9648 23.9371 22.3834 22.7464 23.4984C21.7011 22.6828 20.6511 21.8734 19.6058 21.0578C20.124 20.7082 20.5663 20.2576 20.9063 19.733C21.2462 19.2084 21.4766 18.6205 21.5839 18.0047H16.198C16.1964 16.7203 16.198 15.4344 16.198 14.1484Z" fill="#587DBD"/>
<path d="M7.36719 20.4383C8.4474 19.6049 9.52708 18.7674 10.6062 17.9258C11.0238 19.1511 11.8178 20.2131 12.875 20.9602C13.5344 21.4262 14.2836 21.7497 15.075 21.9102C15.8548 22.0551 16.6546 22.0551 17.4344 21.9102C18.2119 21.7785 18.9533 21.4858 19.6109 21.0508C20.6562 21.8664 21.7063 22.6758 22.7516 23.4914C21.6076 24.5316 20.2132 25.2568 18.7047 25.5961C17.0397 25.9875 15.3046 25.9687 13.6484 25.5414C12.3386 25.1917 11.1151 24.5751 10.0547 23.7305C8.93228 22.8394 8.01556 21.7164 7.36719 20.4383Z" fill="#319F43"/>
</g>
<defs>
<clipPath id="clip0_967_10351">
<rect width="20" height="20" fill="white" transform="translate(6 6)"/>
</clipPath>
</defs>
</svg>
