<svg width="1440" height="452" viewBox="0 0 1440 452" fill="none" xmlns="http://www.w3.org/2000/svg">
<g clip-path="url(#clip0_1347_1585)">
<rect width="1440" height="452" fill="url(#paint0_linear_1347_1585)"/>
<path d="M36.0162 375.58C36.0162 375.58 -212.921 259.152 183.022 342.761C578.965 426.371 1042.59 407.211 1231.38 336.505C1420.17 265.799 1521.22 327.031 1521.22 327.031L1527.92 531.921L42.7137 580.47L36.0162 375.58Z" fill="#8F92EB"/>
<path d="M37.1094 409.562C37.1094 409.562 -211.827 293.134 184.116 376.743C580.059 460.353 1043.68 441.193 1232.47 370.487C1421.26 299.781 1522.32 361.012 1522.32 361.012L1529.01 565.903L43.807 614.452L37.1094 409.562Z" fill="#898CEB"/>
<path d="M-11.8481 441.546C-11.8481 441.546 -260.785 325.118 135.158 408.728C531.101 492.337 1063.21 463.703 1252 392.997C1440.79 322.291 1538 387.015 1538 387.015L1480.06 597.887L-5.15056 646.436L-11.8481 441.546Z" fill="#7E82EB"/>
<path d="M381.83 181L401.362 124.38H414.738L434.27 181H423.022L418.994 168.84H397.106L393.002 181H381.83ZM400.07 159.72H416.03L406.606 131.524H409.494L400.07 159.72ZM456.643 181.912C452.539 181.912 448.84 180.975 445.547 179.1C442.304 177.175 439.746 174.591 437.871 171.348C435.996 168.055 435.059 164.356 435.059 160.252C435.059 156.148 435.996 152.475 437.871 149.232C439.746 145.989 442.304 143.431 445.547 141.556C448.84 139.681 452.539 138.744 456.643 138.744C459.582 138.744 462.318 139.276 464.851 140.34C467.384 141.353 469.563 142.772 471.387 144.596C473.262 146.369 474.604 148.497 475.415 150.98L466.675 154.78C465.915 152.703 464.623 151.031 462.799 149.764C461.026 148.497 458.974 147.864 456.643 147.864C454.464 147.864 452.514 148.396 450.791 149.46C449.119 150.524 447.802 151.993 446.839 153.868C445.876 155.743 445.395 157.896 445.395 160.328C445.395 162.76 445.876 164.913 446.839 166.788C447.802 168.663 449.119 170.132 450.791 171.196C452.514 172.26 454.464 172.792 456.643 172.792C459.024 172.792 461.102 172.159 462.875 170.892C464.648 169.625 465.915 167.928 466.675 165.8L475.415 169.752C474.604 172.083 473.287 174.185 471.463 176.06C469.639 177.884 467.46 179.328 464.927 180.392C462.394 181.405 459.632 181.912 456.643 181.912ZM501.361 181.912C497.257 181.912 493.559 180.975 490.265 179.1C487.023 177.175 484.464 174.591 482.589 171.348C480.715 168.055 479.777 164.356 479.777 160.252C479.777 156.148 480.715 152.475 482.589 149.232C484.464 145.989 487.023 143.431 490.265 141.556C493.559 139.681 497.257 138.744 501.361 138.744C504.3 138.744 507.036 139.276 509.569 140.34C512.103 141.353 514.281 142.772 516.105 144.596C517.98 146.369 519.323 148.497 520.133 150.98L511.393 154.78C510.633 152.703 509.341 151.031 507.517 149.764C505.744 148.497 503.692 147.864 501.361 147.864C499.183 147.864 497.232 148.396 495.509 149.46C493.837 150.524 492.52 151.993 491.557 153.868C490.595 155.743 490.113 157.896 490.113 160.328C490.113 162.76 490.595 164.913 491.557 166.788C492.52 168.663 493.837 170.132 495.509 171.196C497.232 172.26 499.183 172.792 501.361 172.792C503.743 172.792 505.82 172.159 507.593 170.892C509.367 169.625 510.633 167.928 511.393 165.8L520.133 169.752C519.323 172.083 518.005 174.185 516.181 176.06C514.357 177.884 512.179 179.328 509.645 180.392C507.112 181.405 504.351 181.912 501.361 181.912ZM545.776 181.912C541.52 181.912 537.796 180.949 534.604 179.024C531.412 177.099 528.929 174.489 527.156 171.196C525.382 167.903 524.496 164.255 524.496 160.252C524.496 156.097 525.382 152.424 527.156 149.232C528.98 145.989 531.437 143.431 534.528 141.556C537.669 139.681 541.165 138.744 545.016 138.744C548.258 138.744 551.096 139.276 553.528 140.34C556.01 141.404 558.113 142.873 559.836 144.748C561.558 146.623 562.876 148.776 563.788 151.208C564.7 153.589 565.156 156.173 565.156 158.96C565.156 159.669 565.105 160.404 565.004 161.164C564.953 161.924 564.826 162.583 564.624 163.14H532.704V155.54H559L554.288 159.112C554.744 156.781 554.617 154.704 553.908 152.88C553.249 151.056 552.134 149.612 550.564 148.548C549.044 147.484 547.194 146.952 545.016 146.952C542.938 146.952 541.089 147.484 539.468 148.548C537.846 149.561 536.605 151.081 535.744 153.108C534.933 155.084 534.629 157.491 534.832 160.328C534.629 162.861 534.958 165.116 535.82 167.092C536.732 169.017 538.049 170.512 539.772 171.576C541.545 172.64 543.572 173.172 545.852 173.172C548.132 173.172 550.057 172.691 551.628 171.728C553.249 170.765 554.516 169.473 555.428 167.852L563.484 171.804C562.673 173.78 561.406 175.528 559.684 177.048C557.961 178.568 555.909 179.759 553.528 180.62C551.197 181.481 548.613 181.912 545.776 181.912ZM571.183 181V123.468H581.139V181H571.183ZM608.419 181.912C604.163 181.912 600.439 180.949 597.247 179.024C594.055 177.099 591.573 174.489 589.799 171.196C588.026 167.903 587.139 164.255 587.139 160.252C587.139 156.097 588.026 152.424 589.799 149.232C591.623 145.989 594.081 143.431 597.171 141.556C600.313 139.681 603.809 138.744 607.659 138.744C610.902 138.744 613.739 139.276 616.171 140.34C618.654 141.404 620.757 142.873 622.479 144.748C624.202 146.623 625.519 148.776 626.431 151.208C627.343 153.589 627.799 156.173 627.799 158.96C627.799 159.669 627.749 160.404 627.647 161.164C627.597 161.924 627.47 162.583 627.267 163.14H595.347V155.54H621.643L616.931 159.112C617.387 156.781 617.261 154.704 616.551 152.88C615.893 151.056 614.778 149.612 613.207 148.548C611.687 147.484 609.838 146.952 607.659 146.952C605.582 146.952 603.733 147.484 602.111 148.548C600.49 149.561 599.249 151.081 598.387 153.108C597.577 155.084 597.273 157.491 597.475 160.328C597.273 162.861 597.602 165.116 598.463 167.092C599.375 169.017 600.693 170.512 602.415 171.576C604.189 172.64 606.215 173.172 608.495 173.172C610.775 173.172 612.701 172.691 614.271 171.728C615.893 170.765 617.159 169.473 618.071 167.852L626.127 171.804C625.317 173.78 624.05 175.528 622.327 177.048C620.605 178.568 618.553 179.759 616.171 180.62C613.841 181.481 611.257 181.912 608.419 181.912ZM633.826 181V139.656H643.174V148.852L642.414 147.484C643.377 144.393 644.872 142.24 646.898 141.024C648.976 139.808 651.458 139.2 654.346 139.2H656.778V148.016H653.206C650.369 148.016 648.089 148.903 646.366 150.676C644.644 152.399 643.782 154.831 643.782 157.972V181H633.826ZM673.272 181.912C670.384 181.912 667.876 181.431 665.748 180.468C663.62 179.505 661.974 178.137 660.808 176.364C659.643 174.54 659.06 172.437 659.06 170.056C659.06 167.776 659.567 165.749 660.58 163.976C661.594 162.152 663.164 160.632 665.292 159.416C667.42 158.2 670.106 157.339 673.348 156.832L686.876 154.628V162.228L675.248 164.204C673.272 164.559 671.803 165.192 670.84 166.104C669.878 167.016 669.396 168.207 669.396 169.676C669.396 171.095 669.928 172.235 670.992 173.096C672.107 173.907 673.475 174.312 675.096 174.312C677.174 174.312 678.998 173.881 680.568 173.02C682.19 172.108 683.431 170.867 684.292 169.296C685.204 167.725 685.66 166.003 685.66 164.128V153.488C685.66 151.715 684.951 150.245 683.532 149.08C682.164 147.864 680.34 147.256 678.06 147.256C675.932 147.256 674.032 147.839 672.36 149.004C670.739 150.119 669.548 151.613 668.788 153.488L660.656 149.536C661.467 147.357 662.734 145.483 664.456 143.912C666.23 142.291 668.307 141.024 670.688 140.112C673.07 139.2 675.654 138.744 678.44 138.744C681.835 138.744 684.824 139.377 687.408 140.644C689.992 141.86 691.994 143.583 693.412 145.812C694.882 147.991 695.616 150.549 695.616 153.488V181H686.192V173.932L688.32 173.78C687.256 175.553 685.99 177.048 684.52 178.264C683.051 179.429 681.379 180.341 679.504 181C677.63 181.608 675.552 181.912 673.272 181.912ZM721.404 181.456C716.743 181.456 713.12 180.189 710.536 177.656C708.003 175.072 706.736 171.449 706.736 166.788V148.548H699.592V139.656H700.352C702.379 139.656 703.949 139.124 705.064 138.06C706.179 136.996 706.736 135.451 706.736 133.424V130.232H716.692V139.656H726.192V148.548H716.692V166.256C716.692 167.624 716.92 168.789 717.376 169.752C717.883 170.715 718.643 171.449 719.656 171.956C720.72 172.463 722.063 172.716 723.684 172.716C724.039 172.716 724.444 172.691 724.9 172.64C725.407 172.589 725.888 172.539 726.344 172.488V181C725.635 181.101 724.824 181.203 723.912 181.304C723 181.405 722.164 181.456 721.404 181.456ZM751.667 181.912C747.411 181.912 743.687 180.949 740.495 179.024C737.303 177.099 734.821 174.489 733.047 171.196C731.274 167.903 730.387 164.255 730.387 160.252C730.387 156.097 731.274 152.424 733.047 149.232C734.871 145.989 737.329 143.431 740.419 141.556C743.561 139.681 747.057 138.744 750.907 138.744C754.15 138.744 756.987 139.276 759.419 140.34C761.902 141.404 764.005 142.873 765.727 144.748C767.45 146.623 768.767 148.776 769.679 151.208C770.591 153.589 771.047 156.173 771.047 158.96C771.047 159.669 770.997 160.404 770.895 161.164C770.845 161.924 770.718 162.583 770.515 163.14H738.595V155.54H764.891L760.179 159.112C760.635 156.781 760.509 154.704 759.799 152.88C759.141 151.056 758.026 149.612 756.455 148.548C754.935 147.484 753.086 146.952 750.907 146.952C748.83 146.952 746.981 147.484 745.359 148.548C743.738 149.561 742.497 151.081 741.635 153.108C740.825 155.084 740.521 157.491 740.723 160.328C740.521 162.861 740.85 165.116 741.711 167.092C742.623 169.017 743.941 170.512 745.663 171.576C747.437 172.64 749.463 173.172 751.743 173.172C754.023 173.172 755.949 172.691 757.519 171.728C759.141 170.765 760.407 169.473 761.319 167.852L769.375 171.804C768.565 173.78 767.298 175.528 765.575 177.048C763.853 178.568 761.801 179.759 759.419 180.62C757.089 181.481 754.505 181.912 751.667 181.912ZM816.726 181.912C812.673 181.912 808.924 181.177 805.478 179.708C802.033 178.239 799.018 176.187 796.434 173.552C793.85 170.917 791.824 167.827 790.354 164.28C788.936 160.733 788.226 156.857 788.226 152.652C788.226 148.447 788.91 144.571 790.278 141.024C791.697 137.427 793.673 134.336 796.206 131.752C798.79 129.117 801.805 127.091 805.25 125.672C808.696 124.203 812.445 123.468 816.498 123.468C820.552 123.468 824.174 124.152 827.366 125.52C830.609 126.888 833.345 128.712 835.574 130.992C837.804 133.221 839.4 135.679 840.362 138.364L831.166 142.772C830.102 139.833 828.304 137.452 825.77 135.628C823.237 133.804 820.146 132.892 816.498 132.892C812.952 132.892 809.81 133.728 807.074 135.4C804.389 137.072 802.286 139.377 800.766 142.316C799.297 145.255 798.562 148.7 798.562 152.652C798.562 156.604 799.322 160.075 800.842 163.064C802.413 166.003 804.566 168.308 807.302 169.98C810.038 171.652 813.18 172.488 816.726 172.488C819.614 172.488 822.274 171.931 824.706 170.816C827.138 169.651 829.089 168.029 830.558 165.952C832.028 163.824 832.762 161.316 832.762 158.428V154.096L837.474 158.2H816.498V149.46H843.098V155.16C843.098 159.517 842.364 163.368 840.894 166.712C839.425 170.056 837.424 172.868 834.89 175.148C832.408 177.377 829.596 179.075 826.454 180.24C823.313 181.355 820.07 181.912 816.726 181.912ZM848.921 181V139.656H858.269V148.852L857.509 147.484C858.472 144.393 859.967 142.24 861.993 141.024C864.071 139.808 866.553 139.2 869.441 139.2H871.873V148.016H868.301C865.464 148.016 863.184 148.903 861.461 150.676C859.739 152.399 858.877 154.831 858.877 157.972V181H848.921ZM896.043 181.912C891.99 181.912 888.291 180.975 884.947 179.1C881.654 177.225 879.019 174.667 877.043 171.424C875.118 168.181 874.155 164.483 874.155 160.328C874.155 156.173 875.118 152.475 877.043 149.232C879.019 145.989 881.654 143.431 884.947 141.556C888.24 139.681 891.939 138.744 896.043 138.744C900.096 138.744 903.77 139.681 907.063 141.556C910.356 143.431 912.966 145.989 914.891 149.232C916.867 152.424 917.855 156.123 917.855 160.328C917.855 164.483 916.867 168.181 914.891 171.424C912.915 174.667 910.28 177.225 906.987 179.1C903.694 180.975 900.046 181.912 896.043 181.912ZM896.043 172.792C898.272 172.792 900.223 172.26 901.895 171.196C903.618 170.132 904.96 168.663 905.923 166.788C906.936 164.863 907.443 162.709 907.443 160.328C907.443 157.896 906.936 155.768 905.923 153.944C904.96 152.069 903.618 150.6 901.895 149.536C900.223 148.421 898.272 147.864 896.043 147.864C893.763 147.864 891.762 148.421 890.039 149.536C888.316 150.6 886.948 152.069 885.935 153.944C884.972 155.768 884.491 157.896 884.491 160.328C884.491 162.709 884.972 164.863 885.935 166.788C886.948 168.663 888.316 170.132 890.039 171.196C891.762 172.26 893.763 172.792 896.043 172.792ZM933.555 181L919.343 139.656H929.831L940.243 171.044L936.595 170.968L947.691 139.656H956.507L967.527 170.968L963.879 171.044L974.291 139.656H984.779L970.567 181H961.675L950.427 148.244H953.771L942.371 181H933.555ZM1007.56 181.456C1002.9 181.456 999.281 180.189 996.697 177.656C994.163 175.072 992.897 171.449 992.897 166.788V148.548H985.753V139.656H986.513C988.539 139.656 990.11 139.124 991.225 138.06C992.339 136.996 992.897 135.451 992.897 133.424V130.232H1002.85V139.656H1012.35V148.548H1002.85V166.256C1002.85 167.624 1003.08 168.789 1003.54 169.752C1004.04 170.715 1004.8 171.449 1005.82 171.956C1006.88 172.463 1008.22 172.716 1009.84 172.716C1010.2 172.716 1010.6 172.691 1011.06 172.64C1011.57 172.589 1012.05 172.539 1012.5 172.488V181C1011.8 181.101 1010.98 181.203 1010.07 181.304C1009.16 181.405 1008.32 181.456 1007.56 181.456ZM1018.59 181V123.468H1028.55V147.788L1027.18 146.344C1028.14 143.861 1029.71 141.987 1031.89 140.72C1034.12 139.403 1036.7 138.744 1039.64 138.744C1042.68 138.744 1045.37 139.403 1047.7 140.72C1050.08 142.037 1051.93 143.887 1053.25 146.268C1054.56 148.599 1055.22 151.309 1055.22 154.4V181H1045.27V156.756C1045.27 154.932 1044.91 153.361 1044.2 152.044C1043.49 150.727 1042.51 149.713 1041.24 149.004C1040.02 148.244 1038.58 147.864 1036.91 147.864C1035.29 147.864 1033.84 148.244 1032.58 149.004C1031.31 149.713 1030.32 150.727 1029.61 152.044C1028.9 153.361 1028.55 154.932 1028.55 156.756V181H1018.59Z" fill="#F4F4FB"/>
<path d="M485.495 237L490.301 223.59H492.389L497.195 237H495.305L494.207 233.85H488.483L487.385 237H485.495ZM489.041 232.23H493.649L491.093 224.868H491.597L489.041 232.23ZM502.835 237.216C501.887 237.216 501.041 236.994 500.297 236.55C499.565 236.106 498.989 235.5 498.569 234.732C498.149 233.964 497.939 233.1 497.939 232.14C497.939 231.168 498.149 230.304 498.569 229.548C498.989 228.792 499.565 228.192 500.297 227.748C501.041 227.304 501.887 227.082 502.835 227.082C503.471 227.082 504.065 227.196 504.617 227.424C505.169 227.652 505.655 227.958 506.075 228.342C506.495 228.726 506.801 229.176 506.993 229.692L505.499 230.412C505.271 229.908 504.923 229.5 504.455 229.188C503.987 228.864 503.447 228.702 502.835 228.702C502.247 228.702 501.713 228.852 501.233 229.152C500.765 229.452 500.393 229.86 500.117 230.376C499.841 230.892 499.703 231.486 499.703 232.158C499.703 232.806 499.841 233.394 500.117 233.922C500.393 234.438 500.765 234.846 501.233 235.146C501.713 235.446 502.247 235.596 502.835 235.596C503.447 235.596 503.987 235.44 504.455 235.128C504.923 234.804 505.271 234.378 505.499 233.85L506.993 234.606C506.801 235.11 506.495 235.56 506.075 235.956C505.655 236.34 505.169 236.646 504.617 236.874C504.065 237.102 503.471 237.216 502.835 237.216ZM513.681 237.216C512.733 237.216 511.887 236.994 511.143 236.55C510.411 236.106 509.835 235.5 509.415 234.732C508.995 233.964 508.785 233.1 508.785 232.14C508.785 231.168 508.995 230.304 509.415 229.548C509.835 228.792 510.411 228.192 511.143 227.748C511.887 227.304 512.733 227.082 513.681 227.082C514.317 227.082 514.911 227.196 515.463 227.424C516.015 227.652 516.501 227.958 516.921 228.342C517.341 228.726 517.647 229.176 517.839 229.692L516.345 230.412C516.117 229.908 515.769 229.5 515.301 229.188C514.833 228.864 514.293 228.702 513.681 228.702C513.093 228.702 512.559 228.852 512.079 229.152C511.611 229.452 511.239 229.86 510.963 230.376C510.687 230.892 510.549 231.486 510.549 232.158C510.549 232.806 510.687 233.394 510.963 233.922C511.239 234.438 511.611 234.846 512.079 235.146C512.559 235.446 513.093 235.596 513.681 235.596C514.293 235.596 514.833 235.44 515.301 235.128C515.769 234.804 516.117 234.378 516.345 233.85L517.839 234.606C517.647 235.11 517.341 235.56 516.921 235.956C516.501 236.34 516.015 236.646 515.463 236.874C514.911 237.102 514.317 237.216 513.681 237.216ZM524.49 237.216C523.554 237.216 522.72 236.994 521.988 236.55C521.256 236.106 520.68 235.5 520.26 234.732C519.84 233.952 519.63 233.082 519.63 232.122C519.63 231.15 519.834 230.286 520.242 229.53C520.662 228.774 521.226 228.18 521.934 227.748C522.654 227.304 523.458 227.082 524.346 227.082C525.066 227.082 525.702 227.214 526.254 227.478C526.818 227.73 527.292 228.078 527.676 228.522C528.072 228.954 528.372 229.452 528.576 230.016C528.792 230.568 528.9 231.144 528.9 231.744C528.9 231.876 528.888 232.026 528.864 232.194C528.852 232.35 528.834 232.5 528.81 232.644H520.854V231.204H527.838L527.046 231.852C527.154 231.228 527.094 230.67 526.866 230.178C526.638 229.686 526.302 229.296 525.858 229.008C525.414 228.72 524.91 228.576 524.346 228.576C523.782 228.576 523.266 228.72 522.798 229.008C522.33 229.296 521.964 229.71 521.7 230.25C521.448 230.778 521.346 231.408 521.394 232.14C521.346 232.848 521.454 233.472 521.718 234.012C521.994 234.54 522.378 234.954 522.87 235.254C523.374 235.542 523.92 235.686 524.508 235.686C525.156 235.686 525.702 235.536 526.146 235.236C526.59 234.936 526.95 234.552 527.226 234.084L528.63 234.804C528.438 235.248 528.138 235.656 527.73 236.028C527.334 236.388 526.86 236.676 526.308 236.892C525.768 237.108 525.162 237.216 524.49 237.216ZM534.557 237.216C533.585 237.216 532.739 236.976 532.019 236.496C531.299 236.016 530.789 235.368 530.489 234.552L531.821 233.904C532.097 234.48 532.475 234.936 532.955 235.272C533.435 235.608 533.969 235.776 534.557 235.776C535.085 235.776 535.523 235.65 535.871 235.398C536.219 235.146 536.393 234.816 536.393 234.408C536.393 234.12 536.309 233.892 536.141 233.724C535.985 233.544 535.793 233.406 535.565 233.31C535.337 233.202 535.127 233.124 534.935 233.076L533.477 232.662C532.601 232.41 531.959 232.05 531.551 231.582C531.155 231.114 530.957 230.568 530.957 229.944C530.957 229.368 531.101 228.87 531.389 228.45C531.689 228.018 532.091 227.682 532.595 227.442C533.111 227.202 533.687 227.082 534.323 227.082C535.175 227.082 535.937 227.298 536.609 227.73C537.293 228.162 537.779 228.768 538.067 229.548L536.699 230.178C536.483 229.674 536.159 229.278 535.727 228.99C535.295 228.69 534.809 228.54 534.269 228.54C533.777 228.54 533.387 228.666 533.099 228.918C532.811 229.158 532.667 229.464 532.667 229.836C532.667 230.112 532.739 230.34 532.883 230.52C533.027 230.688 533.201 230.82 533.405 230.916C533.609 231 533.807 231.072 533.999 231.132L535.583 231.6C536.375 231.828 536.987 232.182 537.419 232.662C537.863 233.142 538.085 233.718 538.085 234.39C538.085 234.93 537.935 235.416 537.635 235.848C537.335 236.28 536.921 236.616 536.393 236.856C535.865 237.096 535.253 237.216 534.557 237.216ZM543.75 237.216C542.778 237.216 541.932 236.976 541.212 236.496C540.492 236.016 539.982 235.368 539.682 234.552L541.014 233.904C541.29 234.48 541.668 234.936 542.148 235.272C542.628 235.608 543.162 235.776 543.75 235.776C544.278 235.776 544.716 235.65 545.064 235.398C545.412 235.146 545.586 234.816 545.586 234.408C545.586 234.12 545.502 233.892 545.334 233.724C545.178 233.544 544.986 233.406 544.758 233.31C544.53 233.202 544.32 233.124 544.128 233.076L542.67 232.662C541.794 232.41 541.152 232.05 540.744 231.582C540.348 231.114 540.15 230.568 540.15 229.944C540.15 229.368 540.294 228.87 540.582 228.45C540.882 228.018 541.284 227.682 541.788 227.442C542.304 227.202 542.88 227.082 543.516 227.082C544.368 227.082 545.13 227.298 545.802 227.73C546.486 228.162 546.972 228.768 547.26 229.548L545.892 230.178C545.676 229.674 545.352 229.278 544.92 228.99C544.488 228.69 544.002 228.54 543.462 228.54C542.97 228.54 542.58 228.666 542.292 228.918C542.004 229.158 541.86 229.464 541.86 229.836C541.86 230.112 541.932 230.34 542.076 230.52C542.22 230.688 542.394 230.82 542.598 230.916C542.802 231 543 231.072 543.192 231.132L544.776 231.6C545.568 231.828 546.18 232.182 546.612 232.662C547.056 233.142 547.278 233.718 547.278 234.39C547.278 234.93 547.128 235.416 546.828 235.848C546.528 236.28 546.114 236.616 545.586 236.856C545.058 237.096 544.446 237.216 543.75 237.216ZM556.055 237.216C555.083 237.216 554.237 236.976 553.517 236.496C552.797 236.016 552.287 235.368 551.987 234.552L553.319 233.904C553.595 234.48 553.973 234.936 554.453 235.272C554.933 235.608 555.467 235.776 556.055 235.776C556.583 235.776 557.021 235.65 557.369 235.398C557.717 235.146 557.891 234.816 557.891 234.408C557.891 234.12 557.807 233.892 557.639 233.724C557.483 233.544 557.291 233.406 557.063 233.31C556.835 233.202 556.625 233.124 556.433 233.076L554.975 232.662C554.099 232.41 553.457 232.05 553.049 231.582C552.653 231.114 552.455 230.568 552.455 229.944C552.455 229.368 552.599 228.87 552.887 228.45C553.187 228.018 553.589 227.682 554.093 227.442C554.609 227.202 555.185 227.082 555.821 227.082C556.673 227.082 557.435 227.298 558.107 227.73C558.791 228.162 559.277 228.768 559.565 229.548L558.197 230.178C557.981 229.674 557.657 229.278 557.225 228.99C556.793 228.69 556.307 228.54 555.767 228.54C555.275 228.54 554.885 228.666 554.597 228.918C554.309 229.158 554.165 229.464 554.165 229.836C554.165 230.112 554.237 230.34 554.381 230.52C554.525 230.688 554.699 230.82 554.903 230.916C555.107 231 555.305 231.072 555.497 231.132L557.081 231.6C557.873 231.828 558.485 232.182 558.917 232.662C559.361 233.142 559.583 233.718 559.583 234.39C559.583 234.93 559.433 235.416 559.133 235.848C558.833 236.28 558.419 236.616 557.891 236.856C557.363 237.096 556.751 237.216 556.055 237.216ZM566.275 237.216C565.327 237.216 564.481 236.994 563.737 236.55C563.005 236.106 562.429 235.5 562.009 234.732C561.589 233.964 561.379 233.1 561.379 232.14C561.379 231.168 561.589 230.304 562.009 229.548C562.429 228.792 563.005 228.192 563.737 227.748C564.481 227.304 565.327 227.082 566.275 227.082C566.911 227.082 567.505 227.196 568.057 227.424C568.609 227.652 569.095 227.958 569.515 228.342C569.935 228.726 570.241 229.176 570.433 229.692L568.939 230.412C568.711 229.908 568.363 229.5 567.895 229.188C567.427 228.864 566.887 228.702 566.275 228.702C565.687 228.702 565.153 228.852 564.673 229.152C564.205 229.452 563.833 229.86 563.557 230.376C563.281 230.892 563.143 231.486 563.143 232.158C563.143 232.806 563.281 233.394 563.557 233.922C563.833 234.438 564.205 234.846 564.673 235.146C565.153 235.446 565.687 235.596 566.275 235.596C566.887 235.596 567.427 235.44 567.895 235.128C568.363 234.804 568.711 234.378 568.939 233.85L570.433 234.606C570.241 235.11 569.935 235.56 569.515 235.956C569.095 236.34 568.609 236.646 568.057 236.874C567.505 237.102 566.911 237.216 566.275 237.216ZM575.341 237.216C574.705 237.216 574.141 237.102 573.649 236.874C573.169 236.634 572.791 236.31 572.515 235.902C572.239 235.482 572.101 235.002 572.101 234.462C572.101 233.946 572.209 233.484 572.425 233.076C572.653 232.656 573.001 232.302 573.469 232.014C573.949 231.726 574.549 231.522 575.269 231.402L578.869 230.808V232.212L575.647 232.752C575.023 232.86 574.567 233.058 574.279 233.346C574.003 233.634 573.865 233.988 573.865 234.408C573.865 234.804 574.021 235.134 574.333 235.398C574.657 235.662 575.059 235.794 575.539 235.794C576.151 235.794 576.679 235.668 577.123 235.416C577.579 235.152 577.933 234.798 578.185 234.354C578.449 233.91 578.581 233.418 578.581 232.878V230.412C578.581 229.884 578.383 229.458 577.987 229.134C577.603 228.798 577.093 228.63 576.457 228.63C575.905 228.63 575.413 228.774 574.981 229.062C574.561 229.338 574.249 229.71 574.045 230.178L572.587 229.422C572.767 228.978 573.055 228.582 573.451 228.234C573.847 227.874 574.309 227.592 574.837 227.388C575.365 227.184 575.917 227.082 576.493 227.082C577.237 227.082 577.891 227.226 578.455 227.514C579.019 227.79 579.457 228.18 579.769 228.684C580.093 229.176 580.255 229.752 580.255 230.412V237H578.617V235.164L578.923 235.272C578.719 235.656 578.443 235.992 578.095 236.28C577.747 236.568 577.339 236.796 576.871 236.964C576.403 237.132 575.893 237.216 575.341 237.216ZM582.851 237V223.374H584.525V237H582.851ZM589.966 237.216C589.33 237.216 588.766 237.102 588.274 236.874C587.794 236.634 587.416 236.31 587.14 235.902C586.864 235.482 586.726 235.002 586.726 234.462C586.726 233.946 586.834 233.484 587.05 233.076C587.278 232.656 587.626 232.302 588.094 232.014C588.574 231.726 589.174 231.522 589.894 231.402L593.494 230.808V232.212L590.272 232.752C589.648 232.86 589.192 233.058 588.904 233.346C588.628 233.634 588.49 233.988 588.49 234.408C588.49 234.804 588.646 235.134 588.958 235.398C589.282 235.662 589.684 235.794 590.164 235.794C590.776 235.794 591.304 235.668 591.748 235.416C592.204 235.152 592.558 234.798 592.81 234.354C593.074 233.91 593.206 233.418 593.206 232.878V230.412C593.206 229.884 593.008 229.458 592.612 229.134C592.228 228.798 591.718 228.63 591.082 228.63C590.53 228.63 590.038 228.774 589.606 229.062C589.186 229.338 588.874 229.71 588.67 230.178L587.212 229.422C587.392 228.978 587.68 228.582 588.076 228.234C588.472 227.874 588.934 227.592 589.462 227.388C589.99 227.184 590.542 227.082 591.118 227.082C591.862 227.082 592.516 227.226 593.08 227.514C593.644 227.79 594.082 228.18 594.394 228.684C594.718 229.176 594.88 229.752 594.88 230.412V237H593.242V235.164L593.548 235.272C593.344 235.656 593.068 235.992 592.72 236.28C592.372 236.568 591.964 236.796 591.496 236.964C591.028 237.132 590.518 237.216 589.966 237.216ZM602.498 237.216C601.718 237.216 601.004 237.042 600.356 236.694C599.72 236.346 599.228 235.854 598.88 235.218L599.114 234.93V237H597.476V223.374H599.15V229.386L598.898 228.972C599.258 228.396 599.75 227.94 600.374 227.604C600.998 227.256 601.712 227.082 602.516 227.082C603.428 227.082 604.244 227.304 604.964 227.748C605.696 228.192 606.272 228.798 606.692 229.566C607.112 230.322 607.322 231.186 607.322 232.158C607.322 233.106 607.112 233.964 606.692 234.732C606.272 235.5 605.696 236.106 604.964 236.55C604.244 236.994 603.422 237.216 602.498 237.216ZM602.372 235.596C602.984 235.596 603.53 235.446 604.01 235.146C604.49 234.846 604.862 234.438 605.126 233.922C605.402 233.394 605.54 232.806 605.54 232.158C605.54 231.486 605.402 230.898 605.126 230.394C604.862 229.878 604.49 229.47 604.01 229.17C603.53 228.858 602.984 228.702 602.372 228.702C601.76 228.702 601.208 228.852 600.716 229.152C600.236 229.452 599.852 229.866 599.564 230.394C599.288 230.91 599.15 231.498 599.15 232.158C599.15 232.806 599.288 233.394 599.564 233.922C599.852 234.438 600.236 234.846 600.716 235.146C601.208 235.446 601.76 235.596 602.372 235.596ZM609.517 237V223.374H611.191V237H609.517ZM618.252 237.216C617.316 237.216 616.482 236.994 615.75 236.55C615.018 236.106 614.442 235.5 614.022 234.732C613.602 233.952 613.392 233.082 613.392 232.122C613.392 231.15 613.596 230.286 614.004 229.53C614.424 228.774 614.988 228.18 615.696 227.748C616.416 227.304 617.22 227.082 618.108 227.082C618.828 227.082 619.464 227.214 620.016 227.478C620.58 227.73 621.054 228.078 621.438 228.522C621.834 228.954 622.134 229.452 622.338 230.016C622.554 230.568 622.662 231.144 622.662 231.744C622.662 231.876 622.65 232.026 622.626 232.194C622.614 232.35 622.596 232.5 622.572 232.644H614.616V231.204H621.6L620.808 231.852C620.916 231.228 620.856 230.67 620.628 230.178C620.4 229.686 620.064 229.296 619.62 229.008C619.176 228.72 618.672 228.576 618.108 228.576C617.544 228.576 617.028 228.72 616.56 229.008C616.092 229.296 615.726 229.71 615.462 230.25C615.21 230.778 615.108 231.408 615.156 232.14C615.108 232.848 615.216 233.472 615.48 234.012C615.756 234.54 616.14 234.954 616.632 235.254C617.136 235.542 617.682 235.686 618.27 235.686C618.918 235.686 619.464 235.536 619.908 235.236C620.352 234.936 620.712 234.552 620.988 234.084L622.392 234.804C622.2 235.248 621.9 235.656 621.492 236.028C621.096 236.388 620.622 236.676 620.07 236.892C619.53 237.108 618.924 237.216 618.252 237.216ZM625.133 239.502V238.692C625.505 238.596 625.787 238.41 625.979 238.134C626.171 237.858 626.279 237.48 626.303 237H625.493V234.84H627.239V236.37C627.239 237.234 627.059 237.93 626.699 238.458C626.351 238.986 625.829 239.334 625.133 239.502ZM633.335 237V227.298H634.973V229.08L634.793 228.828C635.021 228.276 635.369 227.868 635.837 227.604C636.305 227.328 636.875 227.19 637.547 227.19H638.141V228.774H637.295C636.611 228.774 636.059 228.99 635.639 229.422C635.219 229.842 635.009 230.442 635.009 231.222V237H633.335ZM642.472 237.216C641.836 237.216 641.272 237.102 640.78 236.874C640.3 236.634 639.922 236.31 639.646 235.902C639.37 235.482 639.232 235.002 639.232 234.462C639.232 233.946 639.34 233.484 639.556 233.076C639.784 232.656 640.132 232.302 640.6 232.014C641.08 231.726 641.68 231.522 642.4 231.402L646 230.808V232.212L642.778 232.752C642.154 232.86 641.698 233.058 641.41 233.346C641.134 233.634 640.996 233.988 640.996 234.408C640.996 234.804 641.152 235.134 641.464 235.398C641.788 235.662 642.19 235.794 642.67 235.794C643.282 235.794 643.81 235.668 644.254 235.416C644.71 235.152 645.064 234.798 645.316 234.354C645.58 233.91 645.712 233.418 645.712 232.878V230.412C645.712 229.884 645.514 229.458 645.118 229.134C644.734 228.798 644.224 228.63 643.588 228.63C643.036 228.63 642.544 228.774 642.112 229.062C641.692 229.338 641.38 229.71 641.176 230.178L639.718 229.422C639.898 228.978 640.186 228.582 640.582 228.234C640.978 227.874 641.44 227.592 641.968 227.388C642.496 227.184 643.048 227.082 643.624 227.082C644.368 227.082 645.022 227.226 645.586 227.514C646.15 227.79 646.588 228.18 646.9 228.684C647.224 229.176 647.386 229.752 647.386 230.412V237H645.748V235.164L646.054 235.272C645.85 235.656 645.574 235.992 645.226 236.28C644.878 236.568 644.47 236.796 644.002 236.964C643.534 237.132 643.024 237.216 642.472 237.216ZM649.982 240.6V227.298H651.62V229.386L651.404 228.972C651.764 228.396 652.256 227.94 652.88 227.604C653.504 227.256 654.218 227.082 655.022 227.082C655.934 227.082 656.75 227.304 657.47 227.748C658.202 228.192 658.778 228.798 659.198 229.566C659.618 230.322 659.828 231.186 659.828 232.158C659.828 233.106 659.618 233.964 659.198 234.732C658.778 235.5 658.202 236.106 657.47 236.55C656.75 236.994 655.928 237.216 655.004 237.216C654.224 237.216 653.51 237.042 652.862 236.694C652.226 236.346 651.734 235.854 651.386 235.218L651.656 234.93V240.6H649.982ZM654.878 235.596C655.49 235.596 656.036 235.446 656.516 235.146C656.996 234.846 657.368 234.438 657.632 233.922C657.908 233.394 658.046 232.806 658.046 232.158C658.046 231.486 657.908 230.898 657.632 230.394C657.368 229.878 656.996 229.47 656.516 229.17C656.036 228.858 655.49 228.702 654.878 228.702C654.266 228.702 653.714 228.852 653.222 229.152C652.742 229.452 652.358 229.866 652.07 230.394C651.794 230.91 651.656 231.498 651.656 232.158C651.656 232.806 651.794 233.394 652.07 233.922C652.358 234.438 652.742 234.846 653.222 235.146C653.714 235.446 654.266 235.596 654.878 235.596ZM662.023 237V227.298H663.697V237H662.023ZM662.023 225.75V223.59H663.697V225.75H662.023ZM670.704 237.216C669.792 237.216 668.97 236.994 668.238 236.55C667.518 236.106 666.948 235.5 666.528 234.732C666.108 233.964 665.898 233.106 665.898 232.158C665.898 231.186 666.108 230.322 666.528 229.566C666.948 228.798 667.518 228.192 668.238 227.748C668.97 227.304 669.792 227.082 670.704 227.082C671.508 227.082 672.222 227.256 672.846 227.604C673.47 227.94 673.962 228.396 674.322 228.972L674.052 229.386V223.374H675.744V237H674.106V234.93L674.322 235.218C673.986 235.854 673.494 236.346 672.846 236.694C672.21 237.042 671.496 237.216 670.704 237.216ZM670.848 235.596C671.46 235.596 672.006 235.446 672.486 235.146C672.966 234.846 673.344 234.438 673.62 233.922C673.908 233.394 674.052 232.806 674.052 232.158C674.052 231.498 673.908 230.91 673.62 230.394C673.344 229.866 672.966 229.452 672.486 229.152C672.006 228.852 671.46 228.702 670.848 228.702C670.248 228.702 669.702 228.858 669.21 229.17C668.73 229.47 668.352 229.878 668.076 230.394C667.8 230.898 667.662 231.486 667.662 232.158C667.662 232.806 667.8 233.394 668.076 233.922C668.352 234.438 668.73 234.846 669.21 235.146C669.69 235.446 670.236 235.596 670.848 235.596ZM681.644 237V223.59H683.408V235.38H689.294V237H681.644ZM695.543 237.216C694.607 237.216 693.773 236.994 693.041 236.55C692.309 236.106 691.733 235.5 691.313 234.732C690.893 233.952 690.683 233.082 690.683 232.122C690.683 231.15 690.887 230.286 691.295 229.53C691.715 228.774 692.279 228.18 692.987 227.748C693.707 227.304 694.511 227.082 695.399 227.082C696.119 227.082 696.755 227.214 697.307 227.478C697.871 227.73 698.345 228.078 698.729 228.522C699.125 228.954 699.425 229.452 699.629 230.016C699.845 230.568 699.953 231.144 699.953 231.744C699.953 231.876 699.941 232.026 699.917 232.194C699.905 232.35 699.887 232.5 699.863 232.644H691.907V231.204H698.891L698.099 231.852C698.207 231.228 698.147 230.67 697.919 230.178C697.691 229.686 697.355 229.296 696.911 229.008C696.467 228.72 695.963 228.576 695.399 228.576C694.835 228.576 694.319 228.72 693.851 229.008C693.383 229.296 693.017 229.71 692.753 230.25C692.501 230.778 692.399 231.408 692.447 232.14C692.399 232.848 692.507 233.472 692.771 234.012C693.047 234.54 693.431 234.954 693.923 235.254C694.427 235.542 694.973 235.686 695.561 235.686C696.209 235.686 696.755 235.536 697.199 235.236C697.643 234.936 698.003 234.552 698.279 234.084L699.683 234.804C699.491 235.248 699.191 235.656 698.783 236.028C698.387 236.388 697.913 236.676 697.361 236.892C696.821 237.108 696.215 237.216 695.543 237.216ZM706.762 240.96C706.078 240.96 705.442 240.852 704.854 240.636C704.278 240.42 703.78 240.12 703.36 239.736C702.952 239.364 702.64 238.926 702.424 238.422L703.99 237.702C704.158 238.158 704.476 238.542 704.944 238.854C705.424 239.178 706.024 239.34 706.744 239.34C707.296 239.34 707.794 239.232 708.238 239.016C708.694 238.812 709.054 238.5 709.318 238.08C709.582 237.672 709.714 237.174 709.714 236.586V234.408L710.02 234.732C709.684 235.392 709.198 235.896 708.562 236.244C707.938 236.592 707.248 236.766 706.492 236.766C705.58 236.766 704.764 236.556 704.044 236.136C703.324 235.704 702.76 235.122 702.352 234.39C701.944 233.646 701.74 232.824 701.74 231.924C701.74 231.012 701.944 230.19 702.352 229.458C702.76 228.726 703.318 228.15 704.026 227.73C704.746 227.298 705.562 227.082 706.474 227.082C707.23 227.082 707.914 227.256 708.526 227.604C709.15 227.94 709.648 228.408 710.02 229.008L709.768 229.458V227.298H711.406V236.586C711.406 237.426 711.208 238.176 710.812 238.836C710.416 239.496 709.864 240.012 709.156 240.384C708.46 240.768 707.662 240.96 706.762 240.96ZM706.636 235.146C707.212 235.146 707.728 235.002 708.184 234.714C708.652 234.426 709.024 234.042 709.3 233.562C709.576 233.07 709.714 232.524 709.714 231.924C709.714 231.336 709.576 230.796 709.3 230.304C709.024 229.812 708.652 229.422 708.184 229.134C707.728 228.846 707.212 228.702 706.636 228.702C706.048 228.702 705.514 228.846 705.034 229.134C704.554 229.422 704.176 229.812 703.9 230.304C703.636 230.784 703.504 231.324 703.504 231.924C703.504 232.524 703.636 233.07 703.9 233.562C704.176 234.042 704.548 234.426 705.016 234.714C705.496 235.002 706.036 235.146 706.636 235.146ZM716.845 237.216C716.209 237.216 715.645 237.102 715.153 236.874C714.673 236.634 714.295 236.31 714.019 235.902C713.743 235.482 713.605 235.002 713.605 234.462C713.605 233.946 713.713 233.484 713.929 233.076C714.157 232.656 714.505 232.302 714.973 232.014C715.453 231.726 716.053 231.522 716.773 231.402L720.373 230.808V232.212L717.151 232.752C716.527 232.86 716.071 233.058 715.783 233.346C715.507 233.634 715.369 233.988 715.369 234.408C715.369 234.804 715.525 235.134 715.837 235.398C716.161 235.662 716.563 235.794 717.043 235.794C717.655 235.794 718.183 235.668 718.627 235.416C719.083 235.152 719.437 234.798 719.689 234.354C719.953 233.91 720.085 233.418 720.085 232.878V230.412C720.085 229.884 719.887 229.458 719.491 229.134C719.107 228.798 718.597 228.63 717.961 228.63C717.409 228.63 716.917 228.774 716.485 229.062C716.065 229.338 715.753 229.71 715.549 230.178L714.091 229.422C714.271 228.978 714.559 228.582 714.955 228.234C715.351 227.874 715.813 227.592 716.341 227.388C716.869 227.184 717.421 227.082 717.997 227.082C718.741 227.082 719.395 227.226 719.959 227.514C720.523 227.79 720.961 228.18 721.273 228.684C721.597 229.176 721.759 229.752 721.759 230.412V237H720.121V235.164L720.427 235.272C720.223 235.656 719.947 235.992 719.599 236.28C719.251 236.568 718.843 236.796 718.375 236.964C717.907 237.132 717.397 237.216 716.845 237.216ZM724.355 237V223.374H726.029V237H724.355ZM734.581 237.216C733.945 237.216 733.381 237.102 732.889 236.874C732.409 236.634 732.031 236.31 731.755 235.902C731.479 235.482 731.341 235.002 731.341 234.462C731.341 233.946 731.449 233.484 731.665 233.076C731.893 232.656 732.241 232.302 732.709 232.014C733.189 231.726 733.789 231.522 734.509 231.402L738.109 230.808V232.212L734.887 232.752C734.263 232.86 733.807 233.058 733.519 233.346C733.243 233.634 733.105 233.988 733.105 234.408C733.105 234.804 733.261 235.134 733.573 235.398C733.897 235.662 734.299 235.794 734.779 235.794C735.391 235.794 735.919 235.668 736.363 235.416C736.819 235.152 737.173 234.798 737.425 234.354C737.689 233.91 737.821 233.418 737.821 232.878V230.412C737.821 229.884 737.623 229.458 737.227 229.134C736.843 228.798 736.333 228.63 735.697 228.63C735.145 228.63 734.653 228.774 734.221 229.062C733.801 229.338 733.489 229.71 733.285 230.178L731.827 229.422C732.007 228.978 732.295 228.582 732.691 228.234C733.087 227.874 733.549 227.592 734.077 227.388C734.605 227.184 735.157 227.082 735.733 227.082C736.477 227.082 737.131 227.226 737.695 227.514C738.259 227.79 738.697 228.18 739.009 228.684C739.333 229.176 739.495 229.752 739.495 230.412V237H737.857V235.164L738.163 235.272C737.959 235.656 737.683 235.992 737.335 236.28C736.987 236.568 736.579 236.796 736.111 236.964C735.643 237.132 735.133 237.216 734.581 237.216ZM742.091 237V227.298H743.729V229.188L743.459 229.026C743.699 228.414 744.083 227.94 744.611 227.604C745.151 227.256 745.781 227.082 746.501 227.082C747.197 227.082 747.815 227.238 748.355 227.55C748.907 227.862 749.339 228.294 749.651 228.846C749.975 229.398 750.137 230.022 750.137 230.718V237H748.445V231.258C748.445 230.718 748.349 230.262 748.157 229.89C747.965 229.518 747.689 229.23 747.329 229.026C746.981 228.81 746.579 228.702 746.123 228.702C745.667 228.702 745.259 228.81 744.899 229.026C744.551 229.23 744.275 229.524 744.071 229.908C743.867 230.28 743.765 230.73 743.765 231.258V237H742.091ZM756.942 237.216C756.03 237.216 755.208 236.994 754.476 236.55C753.756 236.106 753.186 235.5 752.766 234.732C752.346 233.964 752.136 233.106 752.136 232.158C752.136 231.186 752.346 230.322 752.766 229.566C753.186 228.798 753.756 228.192 754.476 227.748C755.208 227.304 756.03 227.082 756.942 227.082C757.746 227.082 758.46 227.256 759.084 227.604C759.708 227.94 760.2 228.396 760.56 228.972L760.29 229.386V223.374H761.982V237H760.344V234.93L760.56 235.218C760.224 235.854 759.732 236.346 759.084 236.694C758.448 237.042 757.734 237.216 756.942 237.216ZM757.086 235.596C757.698 235.596 758.244 235.446 758.724 235.146C759.204 234.846 759.582 234.438 759.858 233.922C760.146 233.394 760.29 232.806 760.29 232.158C760.29 231.498 760.146 230.91 759.858 230.394C759.582 229.866 759.204 229.452 758.724 229.152C758.244 228.852 757.698 228.702 757.086 228.702C756.486 228.702 755.94 228.858 755.448 229.17C754.968 229.47 754.59 229.878 754.314 230.394C754.038 230.898 753.9 231.486 753.9 232.158C753.9 232.806 754.038 233.394 754.314 233.922C754.59 234.438 754.968 234.846 755.448 235.146C755.928 235.446 756.474 235.596 757.086 235.596ZM767.883 237V223.59H769.647V237H767.883ZM772.431 237V227.298H774.069V229.188L773.799 229.026C774.039 228.414 774.423 227.94 774.951 227.604C775.491 227.256 776.121 227.082 776.841 227.082C777.537 227.082 778.155 227.238 778.695 227.55C779.247 227.862 779.679 228.294 779.991 228.846C780.315 229.398 780.477 230.022 780.477 230.718V237H778.785V231.258C778.785 230.718 778.689 230.262 778.497 229.89C778.305 229.518 778.029 229.23 777.669 229.026C777.321 228.81 776.919 228.702 776.463 228.702C776.007 228.702 775.599 228.81 775.239 229.026C774.891 229.23 774.615 229.524 774.411 229.908C774.207 230.28 774.105 230.73 774.105 231.258V237H772.431ZM785.396 237L781.598 227.298H783.47L786.512 235.506H785.864L788.924 227.298H790.796L786.98 237H785.396ZM796.582 237.216C795.646 237.216 794.812 236.994 794.08 236.55C793.348 236.106 792.772 235.5 792.352 234.732C791.932 233.952 791.722 233.082 791.722 232.122C791.722 231.15 791.926 230.286 792.334 229.53C792.754 228.774 793.318 228.18 794.026 227.748C794.746 227.304 795.55 227.082 796.438 227.082C797.158 227.082 797.794 227.214 798.346 227.478C798.91 227.73 799.384 228.078 799.768 228.522C800.164 228.954 800.464 229.452 800.668 230.016C800.884 230.568 800.992 231.144 800.992 231.744C800.992 231.876 800.98 232.026 800.956 232.194C800.944 232.35 800.926 232.5 800.902 232.644H792.946V231.204H799.93L799.138 231.852C799.246 231.228 799.186 230.67 798.958 230.178C798.73 229.686 798.394 229.296 797.95 229.008C797.506 228.72 797.002 228.576 796.438 228.576C795.874 228.576 795.358 228.72 794.89 229.008C794.422 229.296 794.056 229.71 793.792 230.25C793.54 230.778 793.438 231.408 793.486 232.14C793.438 232.848 793.546 233.472 793.81 234.012C794.086 234.54 794.47 234.954 794.962 235.254C795.466 235.542 796.012 235.686 796.6 235.686C797.248 235.686 797.794 235.536 798.238 235.236C798.682 234.936 799.042 234.552 799.318 234.084L800.722 234.804C800.53 235.248 800.23 235.656 799.822 236.028C799.426 236.388 798.952 236.676 798.4 236.892C797.86 237.108 797.254 237.216 796.582 237.216ZM806.649 237.216C805.677 237.216 804.831 236.976 804.111 236.496C803.391 236.016 802.881 235.368 802.581 234.552L803.913 233.904C804.189 234.48 804.567 234.936 805.047 235.272C805.527 235.608 806.061 235.776 806.649 235.776C807.177 235.776 807.615 235.65 807.963 235.398C808.311 235.146 808.485 234.816 808.485 234.408C808.485 234.12 808.401 233.892 808.233 233.724C808.077 233.544 807.885 233.406 807.657 233.31C807.429 233.202 807.219 233.124 807.027 233.076L805.569 232.662C804.693 232.41 804.051 232.05 803.643 231.582C803.247 231.114 803.049 230.568 803.049 229.944C803.049 229.368 803.193 228.87 803.481 228.45C803.781 228.018 804.183 227.682 804.687 227.442C805.203 227.202 805.779 227.082 806.415 227.082C807.267 227.082 808.029 227.298 808.701 227.73C809.385 228.162 809.871 228.768 810.159 229.548L808.791 230.178C808.575 229.674 808.251 229.278 807.819 228.99C807.387 228.69 806.901 228.54 806.361 228.54C805.869 228.54 805.479 228.666 805.191 228.918C804.903 229.158 804.759 229.464 804.759 229.836C804.759 230.112 804.831 230.34 804.975 230.52C805.119 230.688 805.293 230.82 805.497 230.916C805.701 231 805.899 231.072 806.091 231.132L807.675 231.6C808.467 231.828 809.079 232.182 809.511 232.662C809.955 233.142 810.177 233.718 810.177 234.39C810.177 234.93 810.027 235.416 809.727 235.848C809.427 236.28 809.013 236.616 808.485 236.856C807.957 237.096 807.345 237.216 806.649 237.216ZM816.31 237.108C815.362 237.108 814.63 236.838 814.114 236.298C813.61 235.758 813.358 234.996 813.358 234.012V228.9H811.594V227.298H811.954C812.386 227.298 812.728 227.166 812.98 226.902C813.232 226.638 813.358 226.29 813.358 225.858V225.066H815.032V227.298H817.21V228.9H815.032V233.958C815.032 234.282 815.08 234.564 815.176 234.804C815.284 235.044 815.458 235.236 815.698 235.38C815.938 235.512 816.256 235.578 816.652 235.578C816.736 235.578 816.838 235.572 816.958 235.56C817.09 235.548 817.21 235.536 817.318 235.524V237C817.162 237.036 816.988 237.06 816.796 237.072C816.604 237.096 816.442 237.108 816.31 237.108ZM823.849 237.216C822.913 237.216 822.067 237 821.311 236.568C820.555 236.124 819.955 235.518 819.511 234.75C819.067 233.982 818.845 233.112 818.845 232.14C818.845 231.168 819.061 230.304 819.493 229.548C819.937 228.792 820.537 228.192 821.293 227.748C822.049 227.304 822.901 227.082 823.849 227.082C824.785 227.082 825.631 227.304 826.387 227.748C827.143 228.18 827.737 228.774 828.169 229.53C828.613 230.286 828.835 231.156 828.835 232.14C828.835 233.124 828.607 234 828.151 234.768C827.695 235.524 827.089 236.124 826.333 236.568C825.589 237 824.761 237.216 823.849 237.216ZM823.849 235.596C824.449 235.596 824.989 235.446 825.469 235.146C825.961 234.846 826.345 234.432 826.621 233.904C826.909 233.376 827.053 232.788 827.053 232.14C827.053 231.48 826.909 230.898 826.621 230.394C826.345 229.878 825.961 229.47 825.469 229.17C824.989 228.858 824.449 228.702 823.849 228.702C823.237 228.702 822.685 228.858 822.193 229.17C821.713 229.47 821.329 229.878 821.041 230.394C820.753 230.898 820.609 231.48 820.609 232.14C820.609 232.788 820.753 233.376 821.041 233.904C821.329 234.432 821.713 234.846 822.193 235.146C822.685 235.446 823.237 235.596 823.849 235.596ZM831.019 237V227.298H832.657V229.08L832.477 228.828C832.705 228.276 833.053 227.868 833.521 227.604C833.989 227.328 834.559 227.19 835.231 227.19H835.825V228.774H834.979C834.295 228.774 833.743 228.99 833.323 229.422C832.903 229.842 832.693 230.442 832.693 231.222V237H831.019ZM840.423 237V227.298H842.061V229.278L841.827 228.972C842.067 228.36 842.451 227.892 842.979 227.568C843.507 227.244 844.101 227.082 844.761 227.082C845.517 227.082 846.195 227.292 846.795 227.712C847.407 228.132 847.827 228.684 848.055 229.368L847.587 229.386C847.839 228.63 848.265 228.06 848.865 227.676C849.465 227.28 850.131 227.082 850.863 227.082C851.535 227.082 852.141 227.238 852.681 227.55C853.233 227.862 853.671 228.294 853.995 228.846C854.319 229.398 854.481 230.022 854.481 230.718V237H852.789V231.258C852.789 230.718 852.693 230.262 852.501 229.89C852.309 229.518 852.045 229.23 851.709 229.026C851.385 228.81 851.001 228.702 850.557 228.702C850.125 228.702 849.735 228.81 849.387 229.026C849.051 229.23 848.781 229.524 848.577 229.908C848.385 230.28 848.289 230.73 848.289 231.258V237H846.597V231.258C846.597 230.718 846.501 230.262 846.309 229.89C846.117 229.518 845.853 229.23 845.517 229.026C845.193 228.81 844.809 228.702 844.365 228.702C843.933 228.702 843.543 228.81 843.195 229.026C842.859 229.23 842.589 229.524 842.385 229.908C842.193 230.28 842.097 230.73 842.097 231.258V237H840.423ZM859.703 237.216C859.067 237.216 858.503 237.102 858.011 236.874C857.531 236.634 857.153 236.31 856.877 235.902C856.601 235.482 856.463 235.002 856.463 234.462C856.463 233.946 856.571 233.484 856.787 233.076C857.015 232.656 857.363 232.302 857.831 232.014C858.311 231.726 858.911 231.522 859.631 231.402L863.231 230.808V232.212L860.009 232.752C859.385 232.86 858.929 233.058 858.641 233.346C858.365 233.634 858.227 233.988 858.227 234.408C858.227 234.804 858.383 235.134 858.695 235.398C859.019 235.662 859.421 235.794 859.901 235.794C860.513 235.794 861.041 235.668 861.485 235.416C861.941 235.152 862.295 234.798 862.547 234.354C862.811 233.91 862.943 233.418 862.943 232.878V230.412C862.943 229.884 862.745 229.458 862.349 229.134C861.965 228.798 861.455 228.63 860.819 228.63C860.267 228.63 859.775 228.774 859.343 229.062C858.923 229.338 858.611 229.71 858.407 230.178L856.949 229.422C857.129 228.978 857.417 228.582 857.812 228.234C858.209 227.874 858.671 227.592 859.199 227.388C859.727 227.184 860.279 227.082 860.854 227.082C861.599 227.082 862.253 227.226 862.817 227.514C863.381 227.79 863.819 228.18 864.131 228.684C864.455 229.176 864.617 229.752 864.617 230.412V237H862.979V235.164L863.285 235.272C863.081 235.656 862.805 235.992 862.457 236.28C862.109 236.568 861.701 236.796 861.233 236.964C860.765 237.132 860.255 237.216 859.703 237.216ZM867.212 237V227.298H868.85V229.188L868.58 229.026C868.82 228.414 869.204 227.94 869.732 227.604C870.272 227.256 870.902 227.082 871.622 227.082C872.318 227.082 872.936 227.238 873.476 227.55C874.028 227.862 874.46 228.294 874.772 228.846C875.096 229.398 875.258 230.022 875.258 230.718V237H873.566V231.258C873.566 230.718 873.47 230.262 873.278 229.89C873.086 229.518 872.81 229.23 872.45 229.026C872.102 228.81 871.7 228.702 871.244 228.702C870.788 228.702 870.38 228.81 870.02 229.026C869.672 229.23 869.396 229.524 869.192 229.908C868.988 230.28 868.886 230.73 868.886 231.258V237H867.212ZM880.497 237.216C879.861 237.216 879.297 237.102 878.805 236.874C878.325 236.634 877.947 236.31 877.671 235.902C877.395 235.482 877.257 235.002 877.257 234.462C877.257 233.946 877.365 233.484 877.581 233.076C877.809 232.656 878.157 232.302 878.625 232.014C879.105 231.726 879.705 231.522 880.425 231.402L884.025 230.808V232.212L880.803 232.752C880.179 232.86 879.723 233.058 879.435 233.346C879.159 233.634 879.021 233.988 879.021 234.408C879.021 234.804 879.177 235.134 879.489 235.398C879.813 235.662 880.215 235.794 880.695 235.794C881.307 235.794 881.835 235.668 882.279 235.416C882.735 235.152 883.089 234.798 883.341 234.354C883.605 233.91 883.737 233.418 883.737 232.878V230.412C883.737 229.884 883.539 229.458 883.143 229.134C882.759 228.798 882.249 228.63 881.613 228.63C881.061 228.63 880.569 228.774 880.137 229.062C879.717 229.338 879.405 229.71 879.201 230.178L877.743 229.422C877.923 228.978 878.211 228.582 878.607 228.234C879.003 227.874 879.465 227.592 879.993 227.388C880.521 227.184 881.073 227.082 881.649 227.082C882.393 227.082 883.047 227.226 883.611 227.514C884.175 227.79 884.613 228.18 884.925 228.684C885.249 229.176 885.411 229.752 885.411 230.412V237H883.773V235.164L884.079 235.272C883.875 235.656 883.599 235.992 883.251 236.28C882.903 236.568 882.495 236.796 882.027 236.964C881.559 237.132 881.049 237.216 880.497 237.216ZM892.633 240.96C891.949 240.96 891.313 240.852 890.725 240.636C890.149 240.42 889.651 240.12 889.231 239.736C888.823 239.364 888.511 238.926 888.295 238.422L889.861 237.702C890.029 238.158 890.347 238.542 890.815 238.854C891.295 239.178 891.895 239.34 892.615 239.34C893.167 239.34 893.665 239.232 894.109 239.016C894.565 238.812 894.925 238.5 895.189 238.08C895.453 237.672 895.585 237.174 895.585 236.586V234.408L895.891 234.732C895.555 235.392 895.069 235.896 894.433 236.244C893.809 236.592 893.119 236.766 892.363 236.766C891.451 236.766 890.635 236.556 889.915 236.136C889.195 235.704 888.631 235.122 888.223 234.39C887.815 233.646 887.611 232.824 887.611 231.924C887.611 231.012 887.815 230.19 888.223 229.458C888.631 228.726 889.189 228.15 889.897 227.73C890.617 227.298 891.433 227.082 892.345 227.082C893.101 227.082 893.785 227.256 894.397 227.604C895.021 227.94 895.519 228.408 895.891 229.008L895.639 229.458V227.298H897.277V236.586C897.277 237.426 897.079 238.176 896.683 238.836C896.287 239.496 895.735 240.012 895.027 240.384C894.331 240.768 893.533 240.96 892.633 240.96ZM892.507 235.146C893.083 235.146 893.599 235.002 894.055 234.714C894.523 234.426 894.895 234.042 895.171 233.562C895.447 233.07 895.585 232.524 895.585 231.924C895.585 231.336 895.447 230.796 895.171 230.304C894.895 229.812 894.523 229.422 894.055 229.134C893.599 228.846 893.083 228.702 892.507 228.702C891.919 228.702 891.385 228.846 890.905 229.134C890.425 229.422 890.047 229.812 889.771 230.304C889.507 230.784 889.375 231.324 889.375 231.924C889.375 232.524 889.507 233.07 889.771 233.562C890.047 234.042 890.419 234.426 890.887 234.714C891.367 235.002 891.907 235.146 892.507 235.146ZM904.336 237.216C903.4 237.216 902.566 236.994 901.834 236.55C901.102 236.106 900.526 235.5 900.106 234.732C899.686 233.952 899.476 233.082 899.476 232.122C899.476 231.15 899.68 230.286 900.088 229.53C900.508 228.774 901.072 228.18 901.78 227.748C902.5 227.304 903.304 227.082 904.192 227.082C904.912 227.082 905.548 227.214 906.1 227.478C906.664 227.73 907.138 228.078 907.522 228.522C907.918 228.954 908.218 229.452 908.422 230.016C908.638 230.568 908.746 231.144 908.746 231.744C908.746 231.876 908.734 232.026 908.71 232.194C908.698 232.35 908.68 232.5 908.656 232.644H900.7V231.204H907.684L906.892 231.852C907 231.228 906.94 230.67 906.712 230.178C906.484 229.686 906.148 229.296 905.704 229.008C905.26 228.72 904.756 228.576 904.192 228.576C903.628 228.576 903.112 228.72 902.644 229.008C902.176 229.296 901.81 229.71 901.546 230.25C901.294 230.778 901.192 231.408 901.24 232.14C901.192 232.848 901.3 233.472 901.564 234.012C901.84 234.54 902.224 234.954 902.716 235.254C903.22 235.542 903.766 235.686 904.354 235.686C905.002 235.686 905.548 235.536 905.992 235.236C906.436 234.936 906.796 234.552 907.072 234.084L908.476 234.804C908.284 235.248 907.984 235.656 907.576 236.028C907.18 236.388 906.706 236.676 906.154 236.892C905.614 237.108 905.008 237.216 904.336 237.216ZM910.929 237V227.298H912.567V229.278L912.333 228.972C912.573 228.36 912.957 227.892 913.485 227.568C914.013 227.244 914.607 227.082 915.267 227.082C916.023 227.082 916.701 227.292 917.301 227.712C917.913 228.132 918.333 228.684 918.561 229.368L918.093 229.386C918.345 228.63 918.771 228.06 919.371 227.676C919.971 227.28 920.637 227.082 921.369 227.082C922.041 227.082 922.647 227.238 923.187 227.55C923.739 227.862 924.177 228.294 924.501 228.846C924.825 229.398 924.987 230.022 924.987 230.718V237H923.295V231.258C923.295 230.718 923.199 230.262 923.007 229.89C922.815 229.518 922.551 229.23 922.215 229.026C921.891 228.81 921.507 228.702 921.063 228.702C920.631 228.702 920.241 228.81 919.893 229.026C919.557 229.23 919.287 229.524 919.083 229.908C918.891 230.28 918.795 230.73 918.795 231.258V237H917.103V231.258C917.103 230.718 917.007 230.262 916.815 229.89C916.623 229.518 916.359 229.23 916.023 229.026C915.699 228.81 915.315 228.702 914.871 228.702C914.439 228.702 914.049 228.81 913.701 229.026C913.365 229.23 913.095 229.524 912.891 229.908C912.699 230.28 912.603 230.73 912.603 231.258V237H910.929ZM931.828 237.216C930.892 237.216 930.058 236.994 929.326 236.55C928.594 236.106 928.018 235.5 927.598 234.732C927.178 233.952 926.968 233.082 926.968 232.122C926.968 231.15 927.172 230.286 927.58 229.53C928 228.774 928.564 228.18 929.272 227.748C929.992 227.304 930.796 227.082 931.684 227.082C932.404 227.082 933.04 227.214 933.592 227.478C934.156 227.73 934.63 228.078 935.014 228.522C935.41 228.954 935.71 229.452 935.914 230.016C936.13 230.568 936.238 231.144 936.238 231.744C936.238 231.876 936.226 232.026 936.202 232.194C936.19 232.35 936.172 232.5 936.148 232.644H928.192V231.204H935.176L934.384 231.852C934.492 231.228 934.432 230.67 934.204 230.178C933.976 229.686 933.64 229.296 933.196 229.008C932.752 228.72 932.248 228.576 931.684 228.576C931.12 228.576 930.604 228.72 930.136 229.008C929.668 229.296 929.302 229.71 929.038 230.25C928.786 230.778 928.684 231.408 928.732 232.14C928.684 232.848 928.792 233.472 929.056 234.012C929.332 234.54 929.716 234.954 930.208 235.254C930.712 235.542 931.258 235.686 931.846 235.686C932.494 235.686 933.04 235.536 933.484 235.236C933.928 234.936 934.288 234.552 934.564 234.084L935.968 234.804C935.776 235.248 935.476 235.656 935.068 236.028C934.672 236.388 934.198 236.676 933.646 236.892C933.106 237.108 932.5 237.216 931.828 237.216ZM938.421 237V227.298H940.059V229.188L939.789 229.026C940.029 228.414 940.413 227.94 940.941 227.604C941.481 227.256 942.111 227.082 942.831 227.082C943.527 227.082 944.145 227.238 944.685 227.55C945.237 227.862 945.669 228.294 945.981 228.846C946.305 229.398 946.467 230.022 946.467 230.718V237H944.775V231.258C944.775 230.718 944.679 230.262 944.487 229.89C944.295 229.518 944.019 229.23 943.659 229.026C943.311 228.81 942.909 228.702 942.453 228.702C941.997 228.702 941.589 228.81 941.229 229.026C940.881 229.23 940.605 229.524 940.401 229.908C940.197 230.28 940.095 230.73 940.095 231.258V237H938.421ZM952.804 237.108C951.856 237.108 951.124 236.838 950.608 236.298C950.104 235.758 949.852 234.996 949.852 234.012V228.9H948.088V227.298H948.448C948.88 227.298 949.222 227.166 949.474 226.902C949.726 226.638 949.852 226.29 949.852 225.858V225.066H951.526V227.298H953.704V228.9H951.526V233.958C951.526 234.282 951.574 234.564 951.67 234.804C951.778 235.044 951.952 235.236 952.192 235.38C952.432 235.512 952.75 235.578 953.146 235.578C953.23 235.578 953.332 235.572 953.452 235.56C953.584 235.548 953.704 235.536 953.812 235.524V237C953.656 237.036 953.482 237.06 953.29 237.072C953.098 237.096 952.936 237.108 952.804 237.108ZM640.327 266.108C639.379 266.108 638.647 265.838 638.131 265.298C637.627 264.758 637.375 263.996 637.375 263.012V257.9H635.611V256.298H635.971C636.403 256.298 636.745 256.166 636.997 255.902C637.249 255.638 637.375 255.29 637.375 254.858V254.066H639.049V256.298H641.227V257.9H639.049V262.958C639.049 263.282 639.097 263.564 639.193 263.804C639.301 264.044 639.475 264.236 639.715 264.38C639.955 264.512 640.273 264.578 640.669 264.578C640.753 264.578 640.855 264.572 640.975 264.56C641.107 264.548 641.227 264.536 641.335 264.524V266C641.179 266.036 641.005 266.06 640.813 266.072C640.621 266.096 640.459 266.108 640.327 266.108ZM646.243 266.216C645.607 266.216 645.043 266.102 644.551 265.874C644.071 265.634 643.693 265.31 643.417 264.902C643.141 264.482 643.003 264.002 643.003 263.462C643.003 262.946 643.111 262.484 643.327 262.076C643.555 261.656 643.903 261.302 644.371 261.014C644.851 260.726 645.451 260.522 646.171 260.402L649.771 259.808V261.212L646.549 261.752C645.925 261.86 645.469 262.058 645.181 262.346C644.905 262.634 644.767 262.988 644.767 263.408C644.767 263.804 644.923 264.134 645.235 264.398C645.559 264.662 645.961 264.794 646.441 264.794C647.053 264.794 647.581 264.668 648.025 264.416C648.481 264.152 648.835 263.798 649.087 263.354C649.351 262.91 649.483 262.418 649.483 261.878V259.412C649.483 258.884 649.285 258.458 648.889 258.134C648.505 257.798 647.995 257.63 647.359 257.63C646.807 257.63 646.315 257.774 645.883 258.062C645.463 258.338 645.151 258.71 644.947 259.178L643.489 258.422C643.669 257.978 643.957 257.582 644.353 257.234C644.749 256.874 645.211 256.592 645.739 256.388C646.267 256.184 646.819 256.082 647.395 256.082C648.139 256.082 648.793 256.226 649.357 256.514C649.921 256.79 650.359 257.18 650.671 257.684C650.995 258.176 651.157 258.752 651.157 259.412V266H649.519V264.164L649.825 264.272C649.621 264.656 649.345 264.992 648.997 265.28C648.649 265.568 648.241 265.796 647.773 265.964C647.305 266.132 646.795 266.216 646.243 266.216ZM653.752 266V256.298H655.426V266H653.752ZM653.752 254.75V252.59H655.426V254.75H653.752ZM658.024 266V252.374H659.698V266H658.024ZM666.903 266.216C665.967 266.216 665.121 266 664.365 265.568C663.609 265.124 663.009 264.518 662.565 263.75C662.121 262.982 661.899 262.112 661.899 261.14C661.899 260.168 662.115 259.304 662.547 258.548C662.991 257.792 663.591 257.192 664.347 256.748C665.103 256.304 665.955 256.082 666.903 256.082C667.839 256.082 668.685 256.304 669.441 256.748C670.197 257.18 670.791 257.774 671.223 258.53C671.667 259.286 671.889 260.156 671.889 261.14C671.889 262.124 671.661 263 671.205 263.768C670.749 264.524 670.143 265.124 669.387 265.568C668.643 266 667.815 266.216 666.903 266.216ZM666.903 264.596C667.503 264.596 668.043 264.446 668.523 264.146C669.015 263.846 669.399 263.432 669.675 262.904C669.963 262.376 670.107 261.788 670.107 261.14C670.107 260.48 669.963 259.898 669.675 259.394C669.399 258.878 669.015 258.47 668.523 258.17C668.043 257.858 667.503 257.702 666.903 257.702C666.291 257.702 665.739 257.858 665.247 258.17C664.767 258.47 664.383 258.878 664.095 259.394C663.807 259.898 663.663 260.48 663.663 261.14C663.663 261.788 663.807 262.376 664.095 262.904C664.383 263.432 664.767 263.846 665.247 264.146C665.739 264.446 666.291 264.596 666.903 264.596ZM674.072 266V256.298H675.71V258.08L675.53 257.828C675.758 257.276 676.106 256.868 676.574 256.604C677.042 256.328 677.612 256.19 678.284 256.19H678.878V257.774H678.032C677.348 257.774 676.796 257.99 676.376 258.422C675.956 258.842 675.746 259.442 675.746 260.222V266H674.072ZM684.829 266.216C683.893 266.216 683.059 265.994 682.327 265.55C681.595 265.106 681.019 264.5 680.599 263.732C680.179 262.952 679.969 262.082 679.969 261.122C679.969 260.15 680.173 259.286 680.581 258.53C681.001 257.774 681.565 257.18 682.273 256.748C682.993 256.304 683.797 256.082 684.685 256.082C685.405 256.082 686.041 256.214 686.593 256.478C687.157 256.73 687.631 257.078 688.015 257.522C688.411 257.954 688.711 258.452 688.915 259.016C689.131 259.568 689.239 260.144 689.239 260.744C689.239 260.876 689.227 261.026 689.203 261.194C689.191 261.35 689.173 261.5 689.149 261.644H681.193V260.204H688.177L687.385 260.852C687.493 260.228 687.433 259.67 687.205 259.178C686.977 258.686 686.641 258.296 686.197 258.008C685.753 257.72 685.249 257.576 684.685 257.576C684.121 257.576 683.605 257.72 683.137 258.008C682.669 258.296 682.303 258.71 682.039 259.25C681.787 259.778 681.685 260.408 681.733 261.14C681.685 261.848 681.793 262.472 682.057 263.012C682.333 263.54 682.717 263.954 683.209 264.254C683.713 264.542 684.259 264.686 684.847 264.686C685.495 264.686 686.041 264.536 686.485 264.236C686.929 263.936 687.289 263.552 687.565 263.084L688.969 263.804C688.777 264.248 688.477 264.656 688.069 265.028C687.673 265.388 687.199 265.676 686.647 265.892C686.107 266.108 685.501 266.216 684.829 266.216ZM695.832 266.216C694.92 266.216 694.098 265.994 693.366 265.55C692.646 265.106 692.076 264.5 691.656 263.732C691.236 262.964 691.026 262.106 691.026 261.158C691.026 260.186 691.236 259.322 691.656 258.566C692.076 257.798 692.646 257.192 693.366 256.748C694.098 256.304 694.92 256.082 695.832 256.082C696.636 256.082 697.35 256.256 697.974 256.604C698.598 256.94 699.09 257.396 699.45 257.972L699.18 258.386V252.374H700.872V266H699.234V263.93L699.45 264.218C699.114 264.854 698.622 265.346 697.974 265.694C697.338 266.042 696.624 266.216 695.832 266.216ZM695.976 264.596C696.588 264.596 697.134 264.446 697.614 264.146C698.094 263.846 698.472 263.438 698.748 262.922C699.036 262.394 699.18 261.806 699.18 261.158C699.18 260.498 699.036 259.91 698.748 259.394C698.472 258.866 698.094 258.452 697.614 258.152C697.134 257.852 696.588 257.702 695.976 257.702C695.376 257.702 694.83 257.858 694.338 258.17C693.858 258.47 693.48 258.878 693.204 259.394C692.928 259.898 692.79 260.486 692.79 261.158C692.79 261.806 692.928 262.394 693.204 262.922C693.48 263.438 693.858 263.846 694.338 264.146C694.818 264.446 695.364 264.596 695.976 264.596ZM707.6 266V257.9H705.746V256.298H707.6V255.614C707.6 254.918 707.75 254.33 708.05 253.85C708.362 253.37 708.77 253.004 709.274 252.752C709.79 252.5 710.36 252.374 710.984 252.374C711.116 252.374 711.26 252.386 711.416 252.41C711.584 252.422 711.722 252.44 711.83 252.464V253.958C711.734 253.934 711.62 253.922 711.488 253.922C711.356 253.91 711.254 253.904 711.182 253.904C710.63 253.904 710.174 254.036 709.814 254.3C709.466 254.564 709.292 255.002 709.292 255.614V256.298H711.596V257.9H709.292V266H707.6ZM717.88 266.216C716.944 266.216 716.098 266 715.342 265.568C714.586 265.124 713.986 264.518 713.542 263.75C713.098 262.982 712.876 262.112 712.876 261.14C712.876 260.168 713.092 259.304 713.524 258.548C713.968 257.792 714.568 257.192 715.324 256.748C716.08 256.304 716.932 256.082 717.88 256.082C718.816 256.082 719.662 256.304 720.418 256.748C721.174 257.18 721.768 257.774 722.2 258.53C722.644 259.286 722.866 260.156 722.866 261.14C722.866 262.124 722.638 263 722.182 263.768C721.726 264.524 721.12 265.124 720.364 265.568C719.62 266 718.792 266.216 717.88 266.216ZM717.88 264.596C718.48 264.596 719.02 264.446 719.5 264.146C719.992 263.846 720.376 263.432 720.652 262.904C720.94 262.376 721.084 261.788 721.084 261.14C721.084 260.48 720.94 259.898 720.652 259.394C720.376 258.878 719.992 258.47 719.5 258.17C719.02 257.858 718.48 257.702 717.88 257.702C717.268 257.702 716.716 257.858 716.224 258.17C715.744 258.47 715.36 258.878 715.072 259.394C714.784 259.898 714.64 260.48 714.64 261.14C714.64 261.788 714.784 262.376 715.072 262.904C715.36 263.432 715.744 263.846 716.224 264.146C716.716 264.446 717.268 264.596 717.88 264.596ZM725.049 266V256.298H726.687V258.08L726.507 257.828C726.735 257.276 727.083 256.868 727.551 256.604C728.019 256.328 728.589 256.19 729.261 256.19H729.855V257.774H729.009C728.325 257.774 727.773 257.99 727.353 258.422C726.933 258.842 726.723 259.442 726.723 260.222V266H725.049ZM737.927 266.216C736.955 266.216 736.109 265.976 735.389 265.496C734.669 265.016 734.159 264.368 733.859 263.552L735.191 262.904C735.467 263.48 735.845 263.936 736.325 264.272C736.805 264.608 737.339 264.776 737.927 264.776C738.455 264.776 738.893 264.65 739.241 264.398C739.589 264.146 739.763 263.816 739.763 263.408C739.763 263.12 739.679 262.892 739.511 262.724C739.355 262.544 739.163 262.406 738.935 262.31C738.707 262.202 738.497 262.124 738.305 262.076L736.847 261.662C735.971 261.41 735.329 261.05 734.921 260.582C734.525 260.114 734.327 259.568 734.327 258.944C734.327 258.368 734.471 257.87 734.759 257.45C735.059 257.018 735.461 256.682 735.965 256.442C736.481 256.202 737.057 256.082 737.693 256.082C738.545 256.082 739.307 256.298 739.979 256.73C740.663 257.162 741.149 257.768 741.437 258.548L740.069 259.178C739.853 258.674 739.529 258.278 739.097 257.99C738.665 257.69 738.179 257.54 737.639 257.54C737.147 257.54 736.757 257.666 736.469 257.918C736.181 258.158 736.037 258.464 736.037 258.836C736.037 259.112 736.109 259.34 736.253 259.52C736.397 259.688 736.571 259.82 736.775 259.916C736.979 260 737.177 260.072 737.369 260.132L738.953 260.6C739.745 260.828 740.357 261.182 740.789 261.662C741.233 262.142 741.455 262.718 741.455 263.39C741.455 263.93 741.305 264.416 741.005 264.848C740.705 265.28 740.291 265.616 739.763 265.856C739.235 266.096 738.623 266.216 737.927 266.216ZM747.589 266.108C746.641 266.108 745.909 265.838 745.393 265.298C744.889 264.758 744.637 263.996 744.637 263.012V257.9H742.873V256.298H743.233C743.665 256.298 744.007 256.166 744.259 255.902C744.511 255.638 744.637 255.29 744.637 254.858V254.066H746.311V256.298H748.489V257.9H746.311V262.958C746.311 263.282 746.359 263.564 746.455 263.804C746.563 264.044 746.737 264.236 746.977 264.38C747.217 264.512 747.535 264.578 747.931 264.578C748.015 264.578 748.117 264.572 748.237 264.56C748.369 264.548 748.489 264.536 748.597 264.524V266C748.441 266.036 748.267 266.06 748.075 266.072C747.883 266.096 747.721 266.108 747.589 266.108ZM753.504 266.216C752.868 266.216 752.304 266.102 751.812 265.874C751.332 265.634 750.954 265.31 750.678 264.902C750.402 264.482 750.264 264.002 750.264 263.462C750.264 262.946 750.372 262.484 750.588 262.076C750.816 261.656 751.164 261.302 751.632 261.014C752.112 260.726 752.712 260.522 753.432 260.402L757.032 259.808V261.212L753.81 261.752C753.186 261.86 752.73 262.058 752.442 262.346C752.166 262.634 752.028 262.988 752.028 263.408C752.028 263.804 752.184 264.134 752.496 264.398C752.82 264.662 753.222 264.794 753.702 264.794C754.314 264.794 754.842 264.668 755.286 264.416C755.742 264.152 756.096 263.798 756.348 263.354C756.612 262.91 756.744 262.418 756.744 261.878V259.412C756.744 258.884 756.546 258.458 756.15 258.134C755.766 257.798 755.256 257.63 754.62 257.63C754.068 257.63 753.576 257.774 753.144 258.062C752.724 258.338 752.412 258.71 752.208 259.178L750.75 258.422C750.93 257.978 751.218 257.582 751.614 257.234C752.01 256.874 752.472 256.592 753 256.388C753.528 256.184 754.08 256.082 754.656 256.082C755.4 256.082 756.054 256.226 756.618 256.514C757.182 256.79 757.62 257.18 757.932 257.684C758.256 258.176 758.418 258.752 758.418 259.412V266H756.78V264.164L757.086 264.272C756.882 264.656 756.606 264.992 756.258 265.28C755.91 265.568 755.502 265.796 755.034 265.964C754.566 266.132 754.056 266.216 753.504 266.216ZM761.014 266V256.298H762.652V258.08L762.472 257.828C762.7 257.276 763.048 256.868 763.516 256.604C763.984 256.328 764.554 256.19 765.226 256.19H765.82V257.774H764.974C764.29 257.774 763.738 257.99 763.318 258.422C762.898 258.842 762.688 259.442 762.688 260.222V266H761.014ZM771.337 266.108C770.389 266.108 769.657 265.838 769.141 265.298C768.637 264.758 768.385 263.996 768.385 263.012V257.9H766.621V256.298H766.981C767.413 256.298 767.755 256.166 768.007 255.902C768.259 255.638 768.385 255.29 768.385 254.858V254.066H770.059V256.298H772.237V257.9H770.059V262.958C770.059 263.282 770.107 263.564 770.203 263.804C770.311 264.044 770.485 264.236 770.725 264.38C770.965 264.512 771.283 264.578 771.679 264.578C771.763 264.578 771.865 264.572 771.985 264.56C772.117 264.548 772.237 264.536 772.345 264.524V266C772.189 266.036 772.015 266.06 771.823 266.072C771.631 266.096 771.469 266.108 771.337 266.108ZM777.969 266.216C777.273 266.216 776.643 266.054 776.079 265.73C775.527 265.406 775.095 264.956 774.783 264.38C774.483 263.792 774.333 263.12 774.333 262.364V256.298H776.007V262.184C776.007 262.664 776.103 263.084 776.295 263.444C776.499 263.804 776.775 264.086 777.123 264.29C777.483 264.494 777.891 264.596 778.347 264.596C778.803 264.596 779.205 264.494 779.553 264.29C779.913 264.086 780.189 263.792 780.381 263.408C780.585 263.024 780.687 262.568 780.687 262.04V256.298H782.379V266H780.741V264.11L781.011 264.272C780.783 264.884 780.393 265.364 779.841 265.712C779.301 266.048 778.677 266.216 777.969 266.216ZM784.973 269.6V256.298H786.611V258.386L786.395 257.972C786.755 257.396 787.247 256.94 787.871 256.604C788.495 256.256 789.209 256.082 790.013 256.082C790.925 256.082 791.741 256.304 792.461 256.748C793.193 257.192 793.769 257.798 794.189 258.566C794.609 259.322 794.819 260.186 794.819 261.158C794.819 262.106 794.609 262.964 794.189 263.732C793.769 264.5 793.193 265.106 792.461 265.55C791.741 265.994 790.919 266.216 789.995 266.216C789.215 266.216 788.501 266.042 787.853 265.694C787.217 265.346 786.725 264.854 786.377 264.218L786.647 263.93V269.6H784.973ZM789.869 264.596C790.481 264.596 791.027 264.446 791.507 264.146C791.987 263.846 792.359 263.438 792.623 262.922C792.899 262.394 793.037 261.806 793.037 261.158C793.037 260.486 792.899 259.898 792.623 259.394C792.359 258.878 791.987 258.47 791.507 258.17C791.027 257.858 790.481 257.702 789.869 257.702C789.257 257.702 788.705 257.852 788.213 258.152C787.733 258.452 787.349 258.866 787.061 259.394C786.785 259.91 786.647 260.498 786.647 261.158C786.647 261.806 786.785 262.394 787.061 262.922C787.349 263.438 787.733 263.846 788.213 264.146C788.705 264.446 789.257 264.596 789.869 264.596ZM800.488 266.216C799.516 266.216 798.67 265.976 797.95 265.496C797.23 265.016 796.72 264.368 796.42 263.552L797.752 262.904C798.028 263.48 798.406 263.936 798.886 264.272C799.366 264.608 799.9 264.776 800.488 264.776C801.016 264.776 801.454 264.65 801.802 264.398C802.15 264.146 802.324 263.816 802.324 263.408C802.324 263.12 802.24 262.892 802.072 262.724C801.916 262.544 801.724 262.406 801.496 262.31C801.268 262.202 801.058 262.124 800.866 262.076L799.408 261.662C798.532 261.41 797.89 261.05 797.482 260.582C797.086 260.114 796.888 259.568 796.888 258.944C796.888 258.368 797.032 257.87 797.32 257.45C797.62 257.018 798.022 256.682 798.526 256.442C799.042 256.202 799.618 256.082 800.254 256.082C801.106 256.082 801.868 256.298 802.54 256.73C803.224 257.162 803.71 257.768 803.998 258.548L802.63 259.178C802.414 258.674 802.09 258.278 801.658 257.99C801.226 257.69 800.74 257.54 800.2 257.54C799.708 257.54 799.318 257.666 799.03 257.918C798.742 258.158 798.598 258.464 798.598 258.836C798.598 259.112 798.67 259.34 798.814 259.52C798.958 259.688 799.132 259.82 799.336 259.916C799.54 260 799.738 260.072 799.93 260.132L801.514 260.6C802.306 260.828 802.918 261.182 803.35 261.662C803.794 262.142 804.016 262.718 804.016 263.39C804.016 263.93 803.866 264.416 803.566 264.848C803.266 265.28 802.852 265.616 802.324 265.856C801.796 266.096 801.184 266.216 800.488 266.216Z" fill="#F4F4FB"/>
<rect x="646" y="305" width="148" height="47" rx="8" fill="#242546"/>
<path d="M663.873 336V322.59H669.507C670.311 322.59 671.001 322.734 671.577 323.022C672.165 323.31 672.615 323.718 672.927 324.246C673.251 324.762 673.413 325.38 673.413 326.1C673.413 326.76 673.239 327.36 672.891 327.9C672.555 328.428 672.057 328.842 671.397 329.142L671.379 328.476C671.955 328.692 672.429 328.98 672.801 329.34C673.185 329.688 673.473 330.096 673.665 330.564C673.857 331.02 673.953 331.506 673.953 332.022C673.953 333.258 673.557 334.23 672.765 334.938C671.973 335.646 670.893 336 669.525 336H663.873ZM665.637 334.38H669.597C670.377 334.38 671.001 334.17 671.469 333.75C671.937 333.33 672.171 332.76 672.171 332.04C672.171 331.32 671.937 330.75 671.469 330.33C671.001 329.898 670.377 329.682 669.597 329.682H665.637V334.38ZM665.637 328.098H669.471C670.119 328.098 670.641 327.912 671.037 327.54C671.433 327.156 671.631 326.67 671.631 326.082C671.631 325.47 671.433 325.002 671.037 324.678C670.641 324.354 670.119 324.192 669.471 324.192H665.637V328.098ZM680.746 336.216C679.81 336.216 678.964 336 678.208 335.568C677.452 335.124 676.852 334.518 676.408 333.75C675.964 332.982 675.742 332.112 675.742 331.14C675.742 330.168 675.958 329.304 676.39 328.548C676.834 327.792 677.434 327.192 678.19 326.748C678.946 326.304 679.798 326.082 680.746 326.082C681.682 326.082 682.528 326.304 683.284 326.748C684.04 327.18 684.634 327.774 685.066 328.53C685.51 329.286 685.732 330.156 685.732 331.14C685.732 332.124 685.504 333 685.048 333.768C684.592 334.524 683.986 335.124 683.23 335.568C682.486 336 681.658 336.216 680.746 336.216ZM680.746 334.596C681.346 334.596 681.886 334.446 682.366 334.146C682.858 333.846 683.242 333.432 683.518 332.904C683.806 332.376 683.95 331.788 683.95 331.14C683.95 330.48 683.806 329.898 683.518 329.394C683.242 328.878 682.858 328.47 682.366 328.17C681.886 327.858 681.346 327.702 680.746 327.702C680.134 327.702 679.582 327.858 679.09 328.17C678.61 328.47 678.226 328.878 677.938 329.394C677.65 329.898 677.506 330.48 677.506 331.14C677.506 331.788 677.65 332.376 677.938 332.904C678.226 333.432 678.61 333.846 679.09 334.146C679.582 334.446 680.134 334.596 680.746 334.596ZM692.523 336.216C691.587 336.216 690.741 336 689.985 335.568C689.229 335.124 688.629 334.518 688.185 333.75C687.741 332.982 687.519 332.112 687.519 331.14C687.519 330.168 687.735 329.304 688.167 328.548C688.611 327.792 689.211 327.192 689.967 326.748C690.723 326.304 691.575 326.082 692.523 326.082C693.459 326.082 694.305 326.304 695.061 326.748C695.817 327.18 696.411 327.774 696.843 328.53C697.287 329.286 697.509 330.156 697.509 331.14C697.509 332.124 697.281 333 696.825 333.768C696.369 334.524 695.763 335.124 695.007 335.568C694.263 336 693.435 336.216 692.523 336.216ZM692.523 334.596C693.123 334.596 693.663 334.446 694.143 334.146C694.635 333.846 695.019 333.432 695.295 332.904C695.583 332.376 695.727 331.788 695.727 331.14C695.727 330.48 695.583 329.898 695.295 329.394C695.019 328.878 694.635 328.47 694.143 328.17C693.663 327.858 693.123 327.702 692.523 327.702C691.911 327.702 691.359 327.858 690.867 328.17C690.387 328.47 690.003 328.878 689.715 329.394C689.427 329.898 689.283 330.48 689.283 331.14C689.283 331.788 689.427 332.376 689.715 332.904C690.003 333.432 690.387 333.846 690.867 334.146C691.359 334.446 691.911 334.596 692.523 334.596ZM699.692 336V322.374H701.366V331.716L700.682 331.554L705.83 326.298H707.972L704.246 330.204L708.224 336H706.244L702.608 330.744L703.652 330.69L700.826 333.642L701.366 332.418V336H699.692ZM715.685 336.216C715.049 336.216 714.485 336.102 713.993 335.874C713.513 335.634 713.135 335.31 712.859 334.902C712.583 334.482 712.445 334.002 712.445 333.462C712.445 332.946 712.553 332.484 712.769 332.076C712.997 331.656 713.345 331.302 713.813 331.014C714.293 330.726 714.893 330.522 715.613 330.402L719.213 329.808V331.212L715.991 331.752C715.367 331.86 714.911 332.058 714.623 332.346C714.347 332.634 714.209 332.988 714.209 333.408C714.209 333.804 714.365 334.134 714.677 334.398C715.001 334.662 715.403 334.794 715.883 334.794C716.495 334.794 717.023 334.668 717.467 334.416C717.923 334.152 718.277 333.798 718.529 333.354C718.793 332.91 718.925 332.418 718.925 331.878V329.412C718.925 328.884 718.727 328.458 718.331 328.134C717.947 327.798 717.437 327.63 716.801 327.63C716.249 327.63 715.757 327.774 715.325 328.062C714.905 328.338 714.593 328.71 714.389 329.178L712.931 328.422C713.111 327.978 713.399 327.582 713.795 327.234C714.191 326.874 714.653 326.592 715.181 326.388C715.709 326.184 716.261 326.082 716.837 326.082C717.581 326.082 718.235 326.226 718.799 326.514C719.363 326.79 719.801 327.18 720.113 327.684C720.437 328.176 720.599 328.752 720.599 329.412V336H718.961V334.164L719.267 334.272C719.063 334.656 718.787 334.992 718.439 335.28C718.091 335.568 717.683 335.796 717.215 335.964C716.747 336.132 716.237 336.216 715.685 336.216ZM726.504 336V322.59H730.896C732.252 322.59 733.434 322.866 734.442 323.418C735.45 323.97 736.23 324.75 736.782 325.758C737.334 326.754 737.61 327.93 737.61 329.286C737.61 330.63 737.334 331.806 736.782 332.814C736.23 333.822 735.45 334.608 734.442 335.172C733.434 335.724 732.252 336 730.896 336H726.504ZM728.268 334.38H730.914C731.91 334.38 732.768 334.17 733.488 333.75C734.22 333.33 734.784 332.742 735.18 331.986C735.576 331.218 735.774 330.318 735.774 329.286C735.774 328.242 735.57 327.342 735.162 326.586C734.766 325.83 734.202 325.248 733.47 324.84C732.75 324.42 731.898 324.21 730.914 324.21H728.268V334.38ZM744.112 336.216C743.176 336.216 742.342 335.994 741.61 335.55C740.878 335.106 740.302 334.5 739.882 333.732C739.462 332.952 739.252 332.082 739.252 331.122C739.252 330.15 739.456 329.286 739.864 328.53C740.284 327.774 740.848 327.18 741.556 326.748C742.276 326.304 743.08 326.082 743.968 326.082C744.688 326.082 745.324 326.214 745.876 326.478C746.44 326.73 746.914 327.078 747.298 327.522C747.694 327.954 747.994 328.452 748.198 329.016C748.414 329.568 748.522 330.144 748.522 330.744C748.522 330.876 748.51 331.026 748.486 331.194C748.474 331.35 748.456 331.5 748.432 331.644H740.476V330.204H747.46L746.668 330.852C746.776 330.228 746.716 329.67 746.488 329.178C746.26 328.686 745.924 328.296 745.48 328.008C745.036 327.72 744.532 327.576 743.968 327.576C743.404 327.576 742.888 327.72 742.42 328.008C741.952 328.296 741.586 328.71 741.322 329.25C741.07 329.778 740.968 330.408 741.016 331.14C740.968 331.848 741.076 332.472 741.34 333.012C741.616 333.54 742 333.954 742.492 334.254C742.996 334.542 743.542 334.686 744.13 334.686C744.778 334.686 745.324 334.536 745.768 334.236C746.212 333.936 746.572 333.552 746.848 333.084L748.252 333.804C748.06 334.248 747.76 334.656 747.352 335.028C746.956 335.388 746.482 335.676 745.93 335.892C745.39 336.108 744.784 336.216 744.112 336.216ZM750.704 336V326.298H752.342V328.278L752.108 327.972C752.348 327.36 752.732 326.892 753.26 326.568C753.788 326.244 754.382 326.082 755.042 326.082C755.798 326.082 756.476 326.292 757.076 326.712C757.688 327.132 758.108 327.684 758.336 328.368L757.868 328.386C758.12 327.63 758.546 327.06 759.146 326.676C759.746 326.28 760.412 326.082 761.144 326.082C761.816 326.082 762.422 326.238 762.962 326.55C763.514 326.862 763.952 327.294 764.276 327.846C764.6 328.398 764.762 329.022 764.762 329.718V336H763.07V330.258C763.07 329.718 762.974 329.262 762.782 328.89C762.59 328.518 762.326 328.23 761.99 328.026C761.666 327.81 761.282 327.702 760.838 327.702C760.406 327.702 760.016 327.81 759.668 328.026C759.332 328.23 759.062 328.524 758.858 328.908C758.666 329.28 758.57 329.73 758.57 330.258V336H756.878V330.258C756.878 329.718 756.782 329.262 756.59 328.89C756.398 328.518 756.134 328.23 755.798 328.026C755.474 327.81 755.09 327.702 754.646 327.702C754.214 327.702 753.824 327.81 753.476 328.026C753.14 328.23 752.87 328.524 752.666 328.908C752.474 329.28 752.378 329.73 752.378 330.258V336H750.704ZM771.748 336.216C770.812 336.216 769.966 336 769.21 335.568C768.454 335.124 767.854 334.518 767.41 333.75C766.966 332.982 766.744 332.112 766.744 331.14C766.744 330.168 766.96 329.304 767.392 328.548C767.836 327.792 768.436 327.192 769.192 326.748C769.948 326.304 770.8 326.082 771.748 326.082C772.684 326.082 773.53 326.304 774.286 326.748C775.042 327.18 775.636 327.774 776.068 328.53C776.512 329.286 776.734 330.156 776.734 331.14C776.734 332.124 776.506 333 776.05 333.768C775.594 334.524 774.988 335.124 774.232 335.568C773.488 336 772.66 336.216 771.748 336.216ZM771.748 334.596C772.348 334.596 772.888 334.446 773.368 334.146C773.86 333.846 774.244 333.432 774.52 332.904C774.808 332.376 774.952 331.788 774.952 331.14C774.952 330.48 774.808 329.898 774.52 329.394C774.244 328.878 773.86 328.47 773.368 328.17C772.888 327.858 772.348 327.702 771.748 327.702C771.136 327.702 770.584 327.858 770.092 328.17C769.612 328.47 769.228 328.878 768.94 329.394C768.652 329.898 768.508 330.48 768.508 331.14C768.508 331.788 768.652 332.376 768.94 332.904C769.228 333.432 769.612 333.846 770.092 334.146C770.584 334.446 771.136 334.596 771.748 334.596Z" fill="#F4F4FB"/>
</g>
<defs>
<linearGradient id="paint0_linear_1347_1585" x1="720" y1="0" x2="720" y2="452" gradientUnits="userSpaceOnUse">
<stop stop-color="#777BEA"/>
<stop offset="1" stop-color="#9DA0EB"/>
</linearGradient>
<clipPath id="clip0_1347_1585">
<rect width="1440" height="452" fill="white"/>
</clipPath>
</defs>
</svg>
