<svg width="100" height="33" viewBox="0 0 100 33" fill="none" xmlns="http://www.w3.org/2000/svg">
<path d="M17.7741 23.536C17.5821 23.696 17.2221 23.912 16.6941 24.184C16.1821 24.456 15.5501 24.696 14.7981 24.904C14.0461 25.112 13.2141 25.208 12.3021 25.192C10.9101 25.16 9.66209 24.912 8.55809 24.448C7.47009 23.968 6.54209 23.32 5.77409 22.504C5.02209 21.688 4.44609 20.752 4.04609 19.696C3.64609 18.64 3.44609 17.512 3.44609 16.312C3.44609 14.968 3.64609 13.736 4.04609 12.616C4.46209 11.496 5.04609 10.528 5.79809 9.712C6.56609 8.896 7.47809 8.264 8.53409 7.816C9.59009 7.368 10.7581 7.144 12.0381 7.144C13.2221 7.144 14.2701 7.304 15.1821 7.624C16.0941 7.944 16.8381 8.288 17.4141 8.656L16.0461 11.944C15.6461 11.64 15.1101 11.328 14.4381 11.008C13.7821 10.672 13.0221 10.504 12.1581 10.504C11.4861 10.504 10.8381 10.648 10.2141 10.936C9.60609 11.208 9.06209 11.6 8.58209 12.112C8.11809 12.624 7.75009 13.224 7.47809 13.912C7.20609 14.584 7.07009 15.32 7.07009 16.12C7.07009 16.968 7.19009 17.744 7.43009 18.448C7.68609 19.152 8.04609 19.76 8.51009 20.272C8.97409 20.768 9.52609 21.152 10.1661 21.424C10.8221 21.696 11.5581 21.832 12.3741 21.832C13.3181 21.832 14.1261 21.68 14.7981 21.376C15.4701 21.072 15.9821 20.752 16.3341 20.416L17.7741 23.536ZM20.1805 16.192C20.1805 14.976 20.4125 13.824 20.8765 12.736C21.3405 11.648 21.9805 10.688 22.7965 9.856C23.6285 9.008 24.5885 8.344 25.6765 7.864C26.7645 7.384 27.9325 7.144 29.1805 7.144C30.4125 7.144 31.5725 7.384 32.6605 7.864C33.7485 8.344 34.7085 9.008 35.5405 9.856C36.3885 10.688 37.0445 11.648 37.5085 12.736C37.9885 13.824 38.2285 14.976 38.2285 16.192C38.2285 17.44 37.9885 18.608 37.5085 19.696C37.0445 20.784 36.3885 21.744 35.5405 22.576C34.7085 23.392 33.7485 24.032 32.6605 24.496C31.5725 24.96 30.4125 25.192 29.1805 25.192C27.9325 25.192 26.7645 24.96 25.6765 24.496C24.5885 24.032 23.6285 23.392 22.7965 22.576C21.9805 21.744 21.3405 20.784 20.8765 19.696C20.4125 18.608 20.1805 17.44 20.1805 16.192ZM23.7805 16.192C23.7805 16.976 23.9165 17.712 24.1885 18.4C24.4765 19.072 24.8685 19.672 25.3645 20.2C25.8765 20.712 26.4605 21.112 27.1165 21.4C27.7885 21.688 28.5165 21.832 29.3005 21.832C30.0525 21.832 30.7485 21.688 31.3885 21.4C32.0445 21.112 32.6125 20.712 33.0925 20.2C33.5725 19.672 33.9485 19.072 34.2205 18.4C34.4925 17.712 34.6285 16.976 34.6285 16.192C34.6285 15.392 34.4845 14.648 34.1965 13.96C33.9245 13.272 33.5405 12.672 33.0445 12.16C32.5645 11.632 31.9965 11.224 31.3405 10.936C30.6845 10.648 29.9725 10.504 29.2045 10.504C28.4365 10.504 27.7245 10.648 27.0685 10.936C26.4125 11.224 25.8365 11.632 25.3405 12.16C24.8445 12.672 24.4605 13.272 24.1885 13.96C23.9165 14.648 23.7805 15.392 23.7805 16.192ZM57.514 25.72L44.122 13.624L45.154 14.2L45.226 25H41.698V6.64H41.842L54.946 18.688L54.178 18.352L54.106 7.336H57.61V25.72H57.514ZM74.6389 21.592H80.1109V25H70.0789L74.6389 21.592ZM61.0789 16.192C61.0789 14.976 61.3109 13.824 61.7749 12.736C62.2389 11.648 62.8789 10.688 63.6949 9.856C64.5269 9.008 65.4869 8.344 66.5749 7.864C67.6629 7.384 68.8309 7.144 70.0789 7.144C71.3109 7.144 72.4709 7.384 73.5589 7.864C74.6469 8.344 75.6069 9.008 76.4389 9.856C77.2869 10.688 77.9429 11.648 78.4069 12.736C78.8869 13.824 79.1269 14.976 79.1269 16.192C79.1269 17.44 78.8869 18.608 78.4069 19.696C77.9429 20.784 77.2869 21.744 76.4389 22.576C75.6069 23.392 74.6469 24.032 73.5589 24.496C72.4709 24.96 71.3109 25.192 70.0789 25.192C68.8309 25.192 67.6629 24.96 66.5749 24.496C65.4869 24.032 64.5269 23.392 63.6949 22.576C62.8789 21.744 62.2389 20.784 61.7749 19.696C61.3109 18.608 61.0789 17.44 61.0789 16.192ZM64.6789 16.192C64.6789 16.96 64.8149 17.688 65.0869 18.376C65.3749 19.048 65.7669 19.648 66.2629 20.176C66.7749 20.688 67.3589 21.088 68.0149 21.376C68.6869 21.664 69.4149 21.808 70.1989 21.808C70.9509 21.808 71.6469 21.664 72.2869 21.376C72.9429 21.088 73.5109 20.688 73.9909 20.176C74.4709 19.664 74.8469 19.072 75.1189 18.4C75.3909 17.712 75.5269 16.976 75.5269 16.192C75.5269 15.424 75.3829 14.704 75.0949 14.032C74.8229 13.344 74.4389 12.744 73.9429 12.232C73.4629 11.72 72.8949 11.32 72.2389 11.032C71.5829 10.744 70.8709 10.6 70.1029 10.6C69.3349 10.6 68.6229 10.744 67.9669 11.032C67.3109 11.32 66.7349 11.72 66.2389 12.232C65.7429 12.744 65.3589 13.344 65.0869 14.032C64.8149 14.704 64.6789 15.424 64.6789 16.192ZM88.9328 7.336C90.0368 7.336 91.0208 7.48 91.8848 7.768C92.7488 8.04 93.4688 8.44 94.0448 8.968C94.6368 9.48 95.0848 10.104 95.3888 10.84C95.6928 11.56 95.8448 12.376 95.8448 13.288C95.8448 14.008 95.7328 14.728 95.5088 15.448C95.3008 16.168 94.9488 16.824 94.4528 17.416C93.9728 18.008 93.3328 18.488 92.5328 18.856C91.7328 19.208 90.7408 19.384 89.5568 19.384H87.0608V25H83.5808V7.336H88.9328ZM89.5328 16.024C90.0608 16.024 90.5008 15.936 90.8528 15.76C91.2048 15.584 91.4768 15.36 91.6688 15.088C91.8768 14.816 92.0208 14.536 92.1008 14.248C92.1968 13.944 92.2448 13.664 92.2448 13.408C92.2448 13.216 92.2128 12.976 92.1488 12.688C92.1008 12.384 91.9888 12.08 91.8128 11.776C91.6368 11.472 91.3648 11.216 90.9968 11.008C90.6448 10.8 90.1648 10.696 89.5568 10.696H87.0608V16.024H89.5328ZM92.7968 18.184L97.1648 25H93.1088L88.6448 18.28L92.7968 18.184Z" fill="#777BEA"/>
</svg>
