<svg width="410" height="464" viewBox="0 0 410 464" fill="none" xmlns="http://www.w3.org/2000/svg">
<g filter="url(#filter0_d_1538_3051)">
<g clip-path="url(#clip0_1538_3051)">
<path d="M6.33337 24C6.33337 12.9543 15.2877 4 26.3334 4H383.667C394.712 4 403.667 12.9543 403.667 24V436C403.667 447.046 394.712 456 383.667 456H26.3334C15.2877 456 6.33337 447.046 6.33337 436V24Z" fill="#FCFCFF"/>
<g opacity="0.2">
<g filter="url(#filter1_f_1538_3051)">
<path d="M365.894 82.1626C406.125 125.226 388.609 206.968 326.77 264.738C264.932 322.508 182.189 334.43 141.958 291.366C101.728 248.303 216.346 109.274 278.185 51.5035C340.023 -6.26654 325.663 39.0989 365.894 82.1626Z" fill="#8C90EA"/>
</g>
<g filter="url(#filter2_f_1538_3051)">
<path d="M98.667 84.6359C-43.6368 97.3189 0.935652 53.3201 81.9969 29.0222C163.058 4.72427 242.489 30.7892 259.41 87.24C276.331 143.691 111.891 217.355 30.8301 241.653C-50.2312 265.95 115.588 141.087 98.667 84.6359Z" fill="#CC77EA"/>
</g>
</g>
<g filter="url(#filter3_d_1538_3051)">
<rect x="38.0001" y="36" width="334" height="82" rx="8.66441" fill="white"/>
<rect x="38.2501" y="36.25" width="333.5" height="81.5" rx="8.41441" stroke="#D9DAEC" stroke-width="0.5"/>
<path d="M52.3119 62H50.3432L53.9277 51.8182H56.2047L59.7942 62H57.8254L55.1059 53.9062H55.0264L52.3119 62ZM52.3765 58.0078H57.7459V59.4893H52.3765V58.0078ZM62.9797 51.8182V62H61.1352V51.8182H62.9797ZM71.204 62.1342C70.6041 62.1342 70.0671 61.9801 69.5932 61.6719C69.1192 61.3636 68.7447 60.9162 68.4696 60.3295C68.1945 59.7429 68.0569 59.0303 68.0569 58.1918C68.0569 57.3433 68.1961 56.6274 68.4746 56.044C68.7563 55.4574 69.1358 55.0149 69.613 54.7166C70.0903 54.415 70.6223 54.2642 71.2089 54.2642C71.6564 54.2642 72.0243 54.3404 72.3126 54.4929C72.601 54.642 72.8297 54.8227 72.9987 55.0348C73.1677 55.2436 73.2987 55.4408 73.3915 55.6264H73.466V51.8182H75.2707V62H73.5008V60.7969H73.3915C73.2987 60.9825 73.1644 61.1797 72.9888 61.3885C72.8131 61.594 72.5811 61.7696 72.2927 61.9155C72.0044 62.0613 71.6415 62.1342 71.204 62.1342ZM71.7061 60.6577C72.0872 60.6577 72.4121 60.5549 72.6805 60.3494C72.949 60.1406 73.1528 59.8506 73.292 59.4794C73.4312 59.1082 73.5008 58.6757 73.5008 58.1818C73.5008 57.688 73.4312 57.2588 73.292 56.8942C73.1561 56.5296 72.954 56.2462 72.6855 56.044C72.4203 55.8419 72.0939 55.7408 71.7061 55.7408C71.305 55.7408 70.9703 55.8452 70.7018 56.054C70.4334 56.2628 70.2312 56.5511 70.0953 56.919C69.9594 57.2869 69.8915 57.7079 69.8915 58.1818C69.8915 58.6591 69.9594 59.085 70.0953 59.4595C70.2345 59.8307 70.4383 60.1241 70.7068 60.3395C70.9786 60.5516 71.3117 60.6577 71.7061 60.6577ZM80.5195 62.1491C79.7737 62.1491 79.1274 61.9851 78.5806 61.657C78.0337 61.3288 77.6094 60.8698 77.3078 60.2798C77.0095 59.6899 76.8604 59.0005 76.8604 58.2116C76.8604 57.4228 77.0095 56.7318 77.3078 56.1385C77.6094 55.5452 78.0337 55.0845 78.5806 54.7564C79.1274 54.4283 79.7737 54.2642 80.5195 54.2642C81.2652 54.2642 81.9115 54.4283 82.4584 54.7564C83.0053 55.0845 83.4279 55.5452 83.7262 56.1385C84.0278 56.7318 84.1786 57.4228 84.1786 58.2116C84.1786 59.0005 84.0278 59.6899 83.7262 60.2798C83.4279 60.8698 83.0053 61.3288 82.4584 61.657C81.9115 61.9851 81.2652 62.1491 80.5195 62.1491ZM80.5294 60.7074C80.9338 60.7074 81.2718 60.5964 81.5436 60.3743C81.8154 60.1489 82.0176 59.8473 82.1502 59.4695C82.286 59.0916 82.354 58.6707 82.354 58.2067C82.354 57.7393 82.286 57.3168 82.1502 56.9389C82.0176 56.5578 81.8154 56.2545 81.5436 56.0291C81.2718 55.8037 80.9338 55.6911 80.5294 55.6911C80.1151 55.6911 79.7704 55.8037 79.4953 56.0291C79.2235 56.2545 79.0197 56.5578 78.8838 56.9389C78.7512 57.3168 78.685 57.7393 78.685 58.2067C78.685 58.6707 78.7512 59.0916 78.8838 59.4695C79.0197 59.8473 79.2235 60.1489 79.4953 60.3743C79.7704 60.5964 80.1151 60.7074 80.5294 60.7074ZM89.0371 62.1491C88.2747 62.1491 87.6202 61.9818 87.0733 61.647C86.5297 61.3123 86.1104 60.8499 85.8155 60.2599C85.5238 59.6667 85.378 58.9839 85.378 58.2116C85.378 57.4361 85.5271 56.7517 85.8254 56.1584C86.1237 55.5618 86.5446 55.0978 87.0882 54.7663C87.6351 54.4316 88.2814 54.2642 89.0271 54.2642C89.6469 54.2642 90.1954 54.3786 90.6727 54.6072C91.1533 54.8326 91.5361 55.1525 91.8211 55.5668C92.1062 55.9777 92.2686 56.4583 92.3084 57.0085H90.5882C90.5186 56.6406 90.3529 56.334 90.091 56.0888C89.8325 55.8402 89.4862 55.7159 89.052 55.7159C88.6841 55.7159 88.3609 55.8153 88.0825 56.0142C87.8041 56.2098 87.587 56.4915 87.4312 56.8594C87.2788 57.2273 87.2025 57.6681 87.2025 58.1818C87.2025 58.7022 87.2788 59.1496 87.4312 59.5241C87.5837 59.8954 87.7975 60.1821 88.0726 60.3842C88.351 60.5831 88.6774 60.6825 89.052 60.6825C89.3171 60.6825 89.5541 60.6328 89.7629 60.5334C89.975 60.4306 90.1523 60.2831 90.2949 60.0909C90.4374 59.8987 90.5352 59.665 90.5882 59.3899H92.3084C92.2653 59.9302 92.1062 60.4091 91.8311 60.8267C91.556 61.241 91.1815 61.5658 90.7075 61.8011C90.2336 62.0331 89.6767 62.1491 89.0371 62.1491ZM98.6534 58.7884V54.3636H100.453V62H98.708V60.6428H98.6285C98.4561 61.0703 98.1728 61.42 97.7784 61.6918C97.3873 61.9635 96.905 62.0994 96.3316 62.0994C95.8311 62.0994 95.3887 61.9884 95.0042 61.7663C94.6231 61.541 94.3248 61.2145 94.1093 60.7869C93.8939 60.3561 93.7862 59.8357 93.7862 59.2259V54.3636H95.5859V58.9474C95.5859 59.4313 95.7185 59.8158 95.9836 60.1009C96.2488 60.3859 96.5968 60.5284 97.0276 60.5284C97.2928 60.5284 97.5497 60.4638 97.7982 60.3345C98.0468 60.2053 98.2507 60.013 98.4097 59.7578C98.5722 59.4993 98.6534 59.1761 98.6534 58.7884ZM102.304 62V54.3636H104.024V55.6612H104.113C104.272 55.2237 104.536 54.8823 104.904 54.6371C105.272 54.3885 105.711 54.2642 106.221 54.2642C106.738 54.2642 107.174 54.3902 107.529 54.642C107.887 54.8906 108.139 55.2304 108.285 55.6612H108.364C108.533 55.237 108.818 54.8989 109.219 54.647C109.624 54.3918 110.103 54.2642 110.656 54.2642C111.359 54.2642 111.932 54.4863 112.376 54.9304C112.82 55.3745 113.042 56.0225 113.042 56.8743V62H111.238V57.1527C111.238 56.6787 111.112 56.3324 110.86 56.1136C110.608 55.8916 110.3 55.7805 109.935 55.7805C109.501 55.7805 109.161 55.9164 108.916 56.1882C108.674 56.4567 108.553 56.8063 108.553 57.2372V62H106.788V57.0781C106.788 56.6837 106.669 56.3688 106.43 56.1335C106.195 55.8982 105.887 55.7805 105.505 55.7805C105.247 55.7805 105.012 55.8468 104.799 55.9794C104.587 56.1087 104.418 56.2926 104.292 56.5312C104.166 56.7666 104.103 57.0417 104.103 57.3565V62H102.304ZM118.249 62.1491C117.483 62.1491 116.822 61.9901 116.265 61.6719C115.712 61.3504 115.286 60.8963 114.988 60.3097C114.689 59.7197 114.54 59.0253 114.54 58.2266C114.54 57.4411 114.689 56.7517 114.988 56.1584C115.289 55.5618 115.71 55.0978 116.25 54.7663C116.791 54.4316 117.425 54.2642 118.154 54.2642C118.625 54.2642 119.069 54.3404 119.487 54.4929C119.908 54.642 120.279 54.8741 120.6 55.1889C120.925 55.5038 121.18 55.9048 121.366 56.392C121.552 56.8759 121.644 57.4527 121.644 58.1222V58.674H115.385V57.4609H119.919C119.916 57.1162 119.841 56.8097 119.696 56.5412C119.55 56.2694 119.346 56.0556 119.084 55.8999C118.826 55.7441 118.524 55.6662 118.179 55.6662C117.811 55.6662 117.488 55.7557 117.21 55.9347C116.931 56.1103 116.714 56.3423 116.559 56.6307C116.406 56.9157 116.328 57.2289 116.325 57.5703V58.6293C116.325 59.0734 116.406 59.4545 116.568 59.7727C116.731 60.0876 116.958 60.3295 117.25 60.4986C117.541 60.6643 117.883 60.7472 118.274 60.7472C118.536 60.7472 118.773 60.7107 118.985 60.6378C119.197 60.5616 119.381 60.4505 119.537 60.3047C119.692 60.1589 119.81 59.9782 119.89 59.7628L121.57 59.9517C121.464 60.3958 121.262 60.7836 120.963 61.1151C120.668 61.4432 120.291 61.6984 119.83 61.8807C119.369 62.0597 118.842 62.1491 118.249 62.1491ZM124.967 57.5256V62H123.167V54.3636H124.887V55.6612H124.977C125.152 55.2337 125.432 54.8939 125.817 54.642C126.205 54.3902 126.684 54.2642 127.254 54.2642C127.781 54.2642 128.24 54.3769 128.631 54.6023C129.025 54.8277 129.33 55.1541 129.546 55.5817C129.764 56.0092 129.872 56.5279 129.869 57.1378V62H128.069V57.4162C128.069 56.9058 127.936 56.5064 127.671 56.218C127.409 55.9297 127.047 55.7855 126.583 55.7855C126.268 55.7855 125.988 55.8551 125.742 55.9943C125.5 56.1302 125.31 56.3274 125.171 56.5859C125.035 56.8445 124.967 57.1577 124.967 57.5256ZM135.511 54.3636V55.7557H131.122V54.3636H135.511ZM132.205 52.5341H134.005V59.7031C134.005 59.9451 134.042 60.1307 134.114 60.2599C134.191 60.3859 134.29 60.4721 134.413 60.5185C134.535 60.5649 134.671 60.5881 134.82 60.5881C134.933 60.5881 135.036 60.5798 135.129 60.5632C135.225 60.5466 135.298 60.5317 135.347 60.5185L135.651 61.9254C135.555 61.9586 135.417 61.995 135.238 62.0348C135.062 62.0746 134.847 62.0978 134.592 62.1044C134.141 62.1177 133.735 62.0497 133.374 61.9006C133.012 61.7481 132.726 61.5128 132.514 61.1946C132.305 60.8764 132.202 60.4787 132.205 60.0014V52.5341ZM146.102 54.6172C146.056 54.183 145.86 53.8449 145.516 53.603C145.174 53.361 144.73 53.2401 144.183 53.2401C143.799 53.2401 143.469 53.2981 143.194 53.4141C142.919 53.5301 142.708 53.6875 142.562 53.8864C142.417 54.0852 142.342 54.3123 142.339 54.5675C142.339 54.7796 142.387 54.9635 142.483 55.1193C142.582 55.2751 142.717 55.4077 142.886 55.517C143.055 55.6231 143.242 55.7126 143.447 55.7855C143.653 55.8584 143.86 55.9197 144.069 55.9695L145.023 56.2081C145.408 56.2976 145.777 56.4186 146.132 56.571C146.49 56.7235 146.81 56.9157 147.092 57.1477C147.377 57.3797 147.602 57.6598 147.768 57.9879C147.933 58.3161 148.016 58.7005 148.016 59.1413C148.016 59.7379 147.864 60.2633 147.559 60.7173C147.254 61.1681 146.813 61.5211 146.236 61.7763C145.663 62.0282 144.969 62.1541 144.153 62.1541C143.361 62.1541 142.673 62.0315 142.09 61.7862C141.51 61.541 141.056 61.183 140.728 60.7124C140.403 60.2417 140.227 59.6683 140.201 58.9922H142.016C142.042 59.3468 142.151 59.6418 142.344 59.8771C142.536 60.1125 142.786 60.2881 143.094 60.4041C143.406 60.5201 143.754 60.5781 144.138 60.5781C144.539 60.5781 144.891 60.5185 145.192 60.3991C145.497 60.2765 145.736 60.1075 145.908 59.892C146.081 59.6733 146.169 59.4181 146.172 59.1264C146.169 58.8613 146.091 58.6425 145.938 58.4702C145.786 58.2945 145.572 58.1487 145.297 58.0327C145.025 57.9134 144.707 57.8073 144.342 57.7145L143.184 57.4162C142.345 57.2008 141.682 56.8743 141.195 56.4368C140.711 55.996 140.469 55.411 140.469 54.6818C140.469 54.0819 140.632 53.5566 140.957 53.1058C141.285 52.6551 141.731 52.3054 142.294 52.0568C142.857 51.8049 143.495 51.679 144.208 51.679C144.931 51.679 145.564 51.8049 146.107 52.0568C146.654 52.3054 147.083 52.6518 147.395 53.0959C147.706 53.5367 147.867 54.0438 147.877 54.6172H146.102ZM154.448 58.7884V54.3636H156.248V62H154.503V60.6428H154.423C154.251 61.0703 153.968 61.42 153.573 61.6918C153.182 61.9635 152.7 62.0994 152.127 62.0994C151.626 62.0994 151.184 61.9884 150.799 61.7663C150.418 61.541 150.12 61.2145 149.904 60.7869C149.689 60.3561 149.581 59.8357 149.581 59.2259V54.3636H151.381V58.9474C151.381 59.4313 151.513 59.8158 151.779 60.1009C152.044 60.3859 152.392 60.5284 152.823 60.5284C153.088 60.5284 153.345 60.4638 153.593 60.3345C153.842 60.2053 154.046 60.013 154.205 59.7578C154.367 59.4993 154.448 59.1761 154.448 58.7884ZM158.099 62V54.3636H159.819V55.6612H159.908C160.067 55.2237 160.331 54.8823 160.699 54.6371C161.067 54.3885 161.506 54.2642 162.016 54.2642C162.533 54.2642 162.969 54.3902 163.324 54.642C163.682 54.8906 163.934 55.2304 164.079 55.6612H164.159C164.328 55.237 164.613 54.8989 165.014 54.647C165.419 54.3918 165.897 54.2642 166.451 54.2642C167.154 54.2642 167.727 54.4863 168.171 54.9304C168.615 55.3745 168.837 56.0225 168.837 56.8743V62H167.033V57.1527C167.033 56.6787 166.907 56.3324 166.655 56.1136C166.403 55.8916 166.095 55.7805 165.73 55.7805C165.296 55.7805 164.956 55.9164 164.711 56.1882C164.469 56.4567 164.348 56.8063 164.348 57.2372V62H162.583V57.0781C162.583 56.6837 162.464 56.3688 162.225 56.1335C161.99 55.8982 161.682 55.7805 161.3 55.7805C161.042 55.7805 160.807 55.8468 160.594 55.9794C160.382 56.1087 160.213 56.2926 160.087 56.5312C159.961 56.7666 159.898 57.0417 159.898 57.3565V62H158.099ZM170.663 62V54.3636H172.383V55.6612H172.473C172.632 55.2237 172.895 54.8823 173.263 54.6371C173.631 54.3885 174.07 54.2642 174.581 54.2642C175.098 54.2642 175.534 54.3902 175.888 54.642C176.246 54.8906 176.498 55.2304 176.644 55.6612H176.723C176.893 55.237 177.178 54.8989 177.579 54.647C177.983 54.3918 178.462 54.2642 179.015 54.2642C179.718 54.2642 180.291 54.4863 180.736 54.9304C181.18 55.3745 181.402 56.0225 181.402 56.8743V62H179.597V57.1527C179.597 56.6787 179.471 56.3324 179.219 56.1136C178.967 55.8916 178.659 55.7805 178.295 55.7805C177.86 55.7805 177.521 55.9164 177.275 56.1882C177.033 56.4567 176.912 56.8063 176.912 57.2372V62H175.147V57.0781C175.147 56.6837 175.028 56.3688 174.79 56.1335C174.554 55.8982 174.246 55.7805 173.865 55.7805C173.606 55.7805 173.371 55.8468 173.159 55.9794C172.947 56.1087 172.778 56.2926 172.652 56.5312C172.526 56.7666 172.463 57.0417 172.463 57.3565V62H170.663ZM185.425 62.1541C184.941 62.1541 184.505 62.0679 184.117 61.8956C183.733 61.7199 183.428 61.4614 183.203 61.12C182.981 60.7786 182.87 60.3577 182.87 59.8572C182.87 59.4264 182.949 59.0701 183.108 58.7884C183.267 58.5066 183.484 58.2812 183.76 58.1122C184.035 57.9432 184.345 57.8156 184.689 57.7294C185.037 57.6399 185.397 57.5753 185.768 57.5355C186.215 57.4891 186.578 57.4477 186.857 57.4112C187.135 57.3714 187.337 57.3118 187.463 57.2322C187.593 57.1494 187.657 57.0218 187.657 56.8494V56.8196C187.657 56.4451 187.546 56.1551 187.324 55.9496C187.102 55.7441 186.782 55.6413 186.365 55.6413C185.924 55.6413 185.574 55.7375 185.316 55.9297C185.06 56.1219 184.888 56.349 184.799 56.6108L183.118 56.3722C183.251 55.9081 183.47 55.5204 183.774 55.2088C184.079 54.8939 184.452 54.6586 184.893 54.5028C185.334 54.3438 185.821 54.2642 186.355 54.2642C186.723 54.2642 187.089 54.3073 187.453 54.3935C187.818 54.4796 188.151 54.6222 188.453 54.821C188.754 55.0166 188.996 55.2834 189.179 55.6214C189.364 55.9595 189.457 56.3821 189.457 56.8892V62H187.727V60.951H187.667C187.558 61.1631 187.404 61.362 187.205 61.5476C187.009 61.7299 186.762 61.8774 186.464 61.9901C186.169 62.0994 185.823 62.1541 185.425 62.1541ZM185.892 60.8317C186.254 60.8317 186.567 60.7604 186.832 60.6179C187.097 60.4721 187.301 60.2798 187.443 60.0412C187.589 59.8026 187.662 59.5424 187.662 59.2607V58.3608C187.606 58.4072 187.51 58.4503 187.374 58.4901C187.241 58.5298 187.092 58.5646 186.926 58.5945C186.761 58.6243 186.597 58.6508 186.434 58.674C186.272 58.6972 186.131 58.7171 186.012 58.7337C185.743 58.7701 185.503 58.8298 185.291 58.9126C185.079 58.9955 184.911 59.1115 184.789 59.2607C184.666 59.4065 184.605 59.5954 184.605 59.8274C184.605 60.1589 184.726 60.4091 184.968 60.5781C185.21 60.7472 185.518 60.8317 185.892 60.8317ZM191.267 62V54.3636H193.012V55.6364H193.091C193.23 55.1955 193.469 54.8558 193.807 54.6172C194.149 54.3752 194.538 54.2543 194.975 54.2543C195.075 54.2543 195.186 54.2592 195.309 54.2692C195.434 54.2758 195.539 54.2874 195.622 54.304V55.9595C195.546 55.933 195.425 55.9098 195.259 55.8899C195.096 55.8667 194.939 55.8551 194.787 55.8551C194.458 55.8551 194.163 55.9264 193.902 56.0689C193.643 56.2081 193.439 56.402 193.29 56.6506C193.141 56.8991 193.066 57.1858 193.066 57.5107V62H191.267ZM198.168 64.8636C197.923 64.8636 197.696 64.8438 197.487 64.804C197.282 64.7675 197.118 64.7244 196.995 64.6747L197.413 63.2727C197.675 63.349 197.908 63.3854 198.114 63.3821C198.319 63.3788 198.5 63.3142 198.656 63.1882C198.815 63.0656 198.949 62.8601 199.058 62.5717L199.212 62.1591L196.443 54.3636H198.352L200.112 60.1307H200.192L201.957 54.3636H203.871L200.813 62.9247C200.671 63.3291 200.482 63.6754 200.247 63.9638C200.011 64.2554 199.723 64.4775 199.382 64.63C199.043 64.7857 198.639 64.8636 198.168 64.8636Z" fill="#2E2F59"/>
<path d="M68.0751 79.554L72.2481 83.904V100.446H56.6593V100.5H72.3013V83.9587L68.0751 79.554Z" fill="#909090"/>
<path d="M68.0235 79.5H56.6062V100.446H72.2482V83.9047L68.0235 79.5Z" fill="#F4F4F4"/>
<path d="M56.4913 80.625H51.6988V85.7452H66.7738V80.625H56.4913Z" fill="#7A7B7C"/>
<path d="M66.8541 85.6582H51.7964V80.5342H66.8541V85.6582Z" fill="#DD2025"/>
<path d="M56.7892 81.4005H55.809V85.0005H56.58V83.7863L56.7502 83.796C56.9157 83.7937 57.0797 83.7641 57.2355 83.7083C57.3724 83.6617 57.4983 83.5874 57.6052 83.49C57.7148 83.3981 57.801 83.2814 57.8565 83.1495C57.9324 82.931 57.9593 82.6985 57.9352 82.4685C57.9309 82.3041 57.9021 82.1413 57.8497 81.9855C57.8025 81.8729 57.7323 81.7713 57.6435 81.6874C57.5548 81.6034 57.4495 81.5389 57.3345 81.498C57.2352 81.4613 57.1324 81.4351 57.0277 81.42C56.9486 81.4071 56.8686 81.4006 56.7885 81.4005M56.6467 83.121H56.58V82.011H56.7247C56.7886 82.0064 56.8527 82.0162 56.9123 82.0397C56.9719 82.0632 57.0254 82.0998 57.069 82.1468C57.1592 82.2675 57.2074 82.4145 57.2062 82.5653C57.2062 82.7498 57.2062 82.917 57.0397 83.0348C56.9198 83.1008 56.7832 83.1313 56.6467 83.121ZM59.4 81.3908C59.3167 81.3908 59.2357 81.3968 59.1787 81.399L59.0002 81.4035H58.4152V85.0035H59.1037C59.3668 85.0103 59.6287 84.9657 59.8747 84.8723C60.0728 84.794 60.2481 84.6674 60.3847 84.504C60.5185 84.3399 60.6141 84.148 60.6645 83.9423C60.7236 83.7097 60.7524 83.4704 60.75 83.2305C60.7646 82.9471 60.7427 82.663 60.6847 82.3853C60.6292 82.181 60.5264 81.9927 60.3847 81.8355C60.2736 81.7084 60.1368 81.6062 59.9835 81.5355C59.8521 81.4746 59.7138 81.4298 59.5717 81.402C59.5152 81.3927 59.458 81.3885 59.4007 81.3893M59.2642 84.342H59.1892V82.044H59.199C59.3536 82.0261 59.5101 82.054 59.649 82.1243C59.7507 82.2055 59.8336 82.3079 59.892 82.4243C59.9549 82.5468 59.9912 82.6812 59.9985 82.8188C60.0052 82.9838 59.9985 83.1188 59.9985 83.2305C60.0012 83.3592 59.993 83.4879 59.9737 83.6153C59.9501 83.7458 59.9074 83.8722 59.847 83.9903C59.7787 84.1004 59.6854 84.1929 59.5747 84.2603C59.4822 84.3203 59.3726 84.3482 59.2627 84.3398M63.0727 81.4035H61.2502V85.0035H62.0212V83.5755H62.9962V82.9065H62.0212V82.0725H63.0712V81.4035" fill="#464648"/>
<path d="M66.3358 93.1911C66.3358 93.1911 68.7268 92.7576 68.7268 93.5744C68.7268 94.3911 67.2456 94.0589 66.3358 93.1911ZM64.5681 93.2534C64.1881 93.3371 63.8179 93.46 63.4633 93.6201L63.7633 92.9451C64.0633 92.2701 64.3746 91.3499 64.3746 91.3499C64.7317 91.953 65.1482 92.5188 65.6181 93.0389C65.2644 93.0916 64.9138 93.1637 64.5681 93.2549V93.2534ZM63.6216 88.3784C63.6216 87.6666 63.8518 87.4724 64.0311 87.4724C64.2103 87.4724 64.4121 87.5586 64.4188 88.1766C64.3603 88.798 64.2302 89.4106 64.0311 90.0021C63.7573 89.5058 63.6161 88.9474 63.6208 88.3806L63.6216 88.3784ZM60.1348 96.2654C59.4013 95.8266 61.6731 94.4759 62.0848 94.4324C62.0826 94.4331 60.9028 96.7244 60.1348 96.2654ZM69.4251 93.6711C69.4176 93.5961 69.3501 92.7659 67.8726 92.8011C67.2567 92.7903 66.6411 92.8338 66.0328 92.9309C65.4432 92.3374 64.9357 91.6677 64.5238 90.9396C64.7832 90.1891 64.9403 89.4071 64.9911 88.6146C64.9693 87.7146 64.7541 87.1986 64.0641 87.2061C63.3741 87.2136 63.2736 87.8174 63.3643 88.7159C63.4531 89.3197 63.6208 89.9092 63.8631 90.4694C63.8631 90.4694 63.5443 91.4616 63.1228 92.4486C62.7013 93.4356 62.4133 93.9531 62.4133 93.9531C61.6803 94.1915 60.9902 94.546 60.3696 95.0031C59.7516 95.5784 59.5003 96.0201 59.8258 96.4619C60.1063 96.8429 61.0881 96.9291 61.9656 95.7794C62.431 95.185 62.8569 94.5606 63.2406 93.9104C63.2406 93.9104 64.5786 93.5436 64.9948 93.4431C65.4111 93.3426 65.9143 93.2631 65.9143 93.2631C65.9143 93.2631 67.1361 94.4924 68.3143 94.4489C69.4926 94.4054 69.4356 93.7446 69.4281 93.6726" fill="#DD2025"/>
<path d="M67.9657 79.5576V83.9624H72.1904L67.9657 79.5576Z" fill="#909090"/>
<path d="M68.0234 79.5V83.9047H72.2481L68.0234 79.5Z" fill="#F4F4F4"/>
<path d="M56.7313 81.3429H55.7511V84.9429H56.5251V83.7294L56.6961 83.7391C56.8616 83.7369 57.0255 83.7072 57.1813 83.6514C57.3183 83.6049 57.4442 83.5306 57.5511 83.4331C57.6599 83.341 57.7452 83.2243 57.8001 83.0926C57.876 82.8742 57.9029 82.6417 57.8788 82.4116C57.8746 82.2473 57.8458 82.0845 57.7933 81.9286C57.7461 81.816 57.6759 81.7144 57.5872 81.6305C57.4985 81.5466 57.3932 81.4821 57.2781 81.4411C57.1784 81.404 57.0751 81.3776 56.9698 81.3624C56.8907 81.3495 56.8107 81.343 56.7306 81.3429M56.5888 83.0634H56.5221V81.9534H56.6676C56.7315 81.9488 56.7956 81.9586 56.8552 81.9821C56.9148 82.0056 56.9683 82.0422 57.0118 82.0891C57.1021 82.2099 57.1503 82.3569 57.1491 82.5076C57.1491 82.6921 57.1491 82.8594 56.9826 82.9771C56.8627 83.0432 56.7261 83.0729 56.5896 83.0626M59.3421 81.3331C59.2588 81.3331 59.1778 81.3391 59.1208 81.3414L58.9446 81.3459H58.3596V84.9459H59.0481C59.3112 84.9526 59.5731 84.9081 59.8191 84.8146C60.0172 84.7364 60.1925 84.6098 60.3291 84.4464C60.4629 84.2822 60.5585 84.0903 60.6088 83.8846C60.668 83.6521 60.6967 83.4128 60.6943 83.1729C60.709 82.8895 60.6871 82.6054 60.6291 82.3276C60.5736 82.1234 60.4708 81.9351 60.3291 81.7779C60.2179 81.6508 60.0812 81.5485 59.9278 81.4779C59.7965 81.417 59.6582 81.3722 59.5161 81.3444C59.4596 81.3351 59.4024 81.3309 59.3451 81.3316M59.2086 84.2844H59.1336V81.9864H59.1433C59.298 81.9685 59.4544 81.9964 59.5933 82.0666C59.6951 82.1479 59.778 82.2502 59.8363 82.3666C59.8993 82.4891 59.9356 82.6236 59.9428 82.7611C59.9496 82.9261 59.9428 83.0611 59.9428 83.1729C59.9456 83.3016 59.9373 83.4303 59.9181 83.5576C59.8945 83.6882 59.8518 83.8145 59.7913 83.9326C59.7231 84.0428 59.6298 84.1353 59.5191 84.2026C59.4266 84.2626 59.317 84.2906 59.2071 84.2821M63.0148 81.3459H61.1923V84.9459H61.9633V83.5179H62.9383V82.8489H61.9633V82.0149H63.0133V81.3459" fill="white"/>
<path d="M87.7189 87.5653C87.6734 87.1619 87.4859 86.8494 87.1564 86.6278C86.8268 86.4034 86.4121 86.2912 85.9121 86.2912C85.5541 86.2912 85.2444 86.348 84.9831 86.4616C84.7217 86.5724 84.5186 86.7259 84.3737 86.9219C84.2317 87.1151 84.1606 87.3352 84.1606 87.5824C84.1606 87.7898 84.2089 87.9687 84.3055 88.1193C84.405 88.2699 84.5342 88.3963 84.6933 88.4986C84.8552 88.598 85.0285 88.6818 85.2132 88.75C85.3978 88.8153 85.5754 88.8693 85.7459 88.9119L86.5981 89.1335C86.8765 89.2017 87.1621 89.294 87.4547 89.4105C87.7473 89.527 88.0186 89.6804 88.2686 89.8707C88.5186 90.0611 88.7203 90.2969 88.8737 90.5781C89.03 90.8594 89.1081 91.196 89.1081 91.5881C89.1081 92.0824 88.9802 92.5213 88.7246 92.9048C88.4717 93.2884 88.1038 93.5909 87.6209 93.8125C87.1407 94.0341 86.5598 94.1449 85.878 94.1449C85.2246 94.1449 84.6592 94.0412 84.1819 93.8338C83.7047 93.6264 83.3311 93.3324 83.0612 92.9517C82.7913 92.5682 82.6422 92.1136 82.6138 91.5881H83.9348C83.9603 91.9034 84.0626 92.1662 84.2416 92.3764C84.4234 92.5838 84.655 92.7386 84.9362 92.8409C85.2203 92.9403 85.5314 92.9901 85.8694 92.9901C86.2416 92.9901 86.5726 92.9318 86.8623 92.8153C87.155 92.696 87.3851 92.5312 87.5527 92.321C87.7203 92.108 87.8041 91.8594 87.8041 91.5753C87.8041 91.3168 87.7302 91.1051 87.5825 90.9403C87.4376 90.7756 87.2402 90.6392 86.9902 90.5312C86.743 90.4233 86.4632 90.3281 86.1507 90.2457L85.1194 89.9645C84.4206 89.7741 83.8666 89.4943 83.4575 89.125C83.0513 88.7557 82.8481 88.267 82.8481 87.6591C82.8481 87.1562 82.9845 86.7173 83.2572 86.3423C83.53 85.9673 83.8993 85.6761 84.3652 85.4688C84.8311 85.2585 85.3567 85.1534 85.9419 85.1534C86.5328 85.1534 87.0541 85.2571 87.5058 85.4645C87.9603 85.6719 88.3183 85.9574 88.5797 86.321C88.841 86.6818 88.9774 87.0966 88.9888 87.5653H87.7189ZM93.4003 94.1321C92.7554 94.1321 92.2001 93.9943 91.7341 93.7188C91.2711 93.4403 90.9131 93.0497 90.6603 92.5469C90.4103 92.0412 90.2853 91.4489 90.2853 90.7699C90.2853 90.0994 90.4103 89.5085 90.6603 88.9972C90.9131 88.4858 91.2654 88.0866 91.7171 87.7997C92.1716 87.5128 92.7029 87.3693 93.3108 87.3693C93.6802 87.3693 94.0381 87.4304 94.3847 87.5526C94.7313 87.6747 95.0424 87.8665 95.3179 88.1278C95.5935 88.3892 95.8108 88.7287 95.9699 89.1463C96.129 89.5611 96.2086 90.0653 96.2086 90.6591V91.1108H91.0054V90.1562H94.96C94.96 89.821 94.8918 89.5241 94.7554 89.2656C94.6191 89.0043 94.4273 88.7983 94.1802 88.6477C93.9358 88.4972 93.6489 88.4219 93.3194 88.4219C92.9614 88.4219 92.6489 88.5099 92.3819 88.6861C92.1177 88.8594 91.9131 89.0866 91.7682 89.3679C91.6262 89.6463 91.5552 89.9489 91.5552 90.2756V91.0213C91.5552 91.4588 91.6319 91.831 91.7853 92.1378C91.9415 92.4446 92.1589 92.679 92.4373 92.8409C92.7157 93 93.041 93.0795 93.4131 93.0795C93.6546 93.0795 93.8748 93.0455 94.0736 92.9773C94.2725 92.9062 94.4444 92.8011 94.5893 92.6619C94.7341 92.5227 94.8449 92.3509 94.9216 92.1463L96.1276 92.3636C96.031 92.7187 95.8577 93.0298 95.6077 93.2969C95.3606 93.5611 95.0495 93.767 94.6745 93.9148C94.3023 94.0597 93.8776 94.1321 93.4003 94.1321ZM97.6223 94V87.4545H98.8538V88.4943H98.922C99.0413 88.142 99.2515 87.8651 99.5527 87.6634C99.8567 87.4588 100.2 87.3565 100.584 87.3565C100.663 87.3565 100.757 87.3594 100.865 87.3651C100.976 87.3707 101.063 87.3778 101.125 87.3864V88.6051C101.074 88.5909 100.983 88.5753 100.852 88.5582C100.722 88.5384 100.591 88.5284 100.46 88.5284C100.159 88.5284 99.8907 88.5923 99.655 88.7202C99.422 88.8452 99.2373 89.0199 99.101 89.2443C98.9646 89.4659 98.8964 89.7187 98.8964 90.0028V94H97.6223ZM108.026 87.4545L105.653 94H104.289L101.911 87.4545H103.279L104.937 92.4915H105.005L106.659 87.4545H108.026ZM109.224 94V87.4545H110.498V94H109.224ZM109.867 86.4446C109.646 86.4446 109.455 86.3707 109.296 86.223C109.14 86.0724 109.062 85.8935 109.062 85.6861C109.062 85.4759 109.14 85.2969 109.296 85.1491C109.455 84.9986 109.646 84.9233 109.867 84.9233C110.089 84.9233 110.278 84.9986 110.434 85.1491C110.593 85.2969 110.673 85.4759 110.673 85.6861C110.673 85.8935 110.593 86.0724 110.434 86.223C110.278 86.3707 110.089 86.4446 109.867 86.4446ZM114.969 94.1321C114.336 94.1321 113.79 93.9886 113.333 93.7017C112.878 93.4119 112.529 93.0128 112.285 92.5043C112.04 91.9957 111.918 91.4134 111.918 90.7571C111.918 90.0923 112.043 89.5057 112.293 88.9972C112.543 88.4858 112.895 88.0866 113.35 87.7997C113.804 87.5128 114.34 87.3693 114.956 87.3693C115.454 87.3693 115.897 87.4616 116.286 87.6463C116.675 87.8281 116.989 88.0838 117.228 88.4134C117.469 88.7429 117.613 89.1278 117.658 89.5682H116.418C116.35 89.2614 116.194 88.9972 115.949 88.7756C115.708 88.554 115.384 88.4432 114.978 88.4432C114.623 88.4432 114.312 88.5369 114.045 88.7244C113.78 88.9091 113.574 89.1733 113.427 89.517C113.279 89.858 113.205 90.2614 113.205 90.7273C113.205 91.2045 113.277 91.6165 113.422 91.9631C113.567 92.3097 113.772 92.5781 114.036 92.7685C114.303 92.9588 114.617 93.054 114.978 93.054C115.219 93.054 115.438 93.0099 115.634 92.9219C115.833 92.831 115.999 92.7017 116.133 92.5341C116.269 92.3665 116.364 92.1648 116.418 91.929H117.658C117.613 92.3523 117.475 92.7301 117.245 93.0625C117.015 93.3949 116.706 93.6562 116.32 93.8466C115.937 94.0369 115.486 94.1321 114.969 94.1321ZM121.842 94.1321C121.197 94.1321 120.641 93.9943 120.176 93.7188C119.712 93.4403 119.355 93.0497 119.102 92.5469C118.852 92.0412 118.727 91.4489 118.727 90.7699C118.727 90.0994 118.852 89.5085 119.102 88.9972C119.355 88.4858 119.707 88.0866 120.159 87.7997C120.613 87.5128 121.144 87.3693 121.752 87.3693C122.122 87.3693 122.48 87.4304 122.826 87.5526C123.173 87.6747 123.484 87.8665 123.759 88.1278C124.035 88.3892 124.252 88.7287 124.411 89.1463C124.57 89.5611 124.65 90.0653 124.65 90.6591V91.1108H119.447V90.1562H123.401C123.401 89.821 123.333 89.5241 123.197 89.2656C123.06 89.0043 122.869 88.7983 122.622 88.6477C122.377 88.4972 122.09 88.4219 121.761 88.4219C121.403 88.4219 121.09 88.5099 120.823 88.6861C120.559 88.8594 120.355 89.0866 120.21 89.3679C120.068 89.6463 119.997 89.9489 119.997 90.2756V91.0213C119.997 91.4588 120.073 91.831 120.227 92.1378C120.383 92.4446 120.6 92.679 120.879 92.8409C121.157 93 121.482 93.0795 121.855 93.0795C122.096 93.0795 122.316 93.0455 122.515 92.9773C122.714 92.9062 122.886 92.8011 123.031 92.6619C123.176 92.5227 123.286 92.3509 123.363 92.1463L124.569 92.3636C124.472 92.7187 124.299 93.0298 124.049 93.2969C123.802 93.5611 123.491 93.767 123.116 93.9148C122.744 94.0597 122.319 94.1321 121.842 94.1321ZM130.738 94V95.0824H125.194V94H130.738ZM132.423 94H131.025L134.166 85.2727H135.687L138.828 94H137.43L134.962 86.858H134.894L132.423 94ZM132.657 90.5824H137.191V91.6903H132.657V90.5824ZM142.624 96.5909C142.105 96.5909 141.657 96.5227 141.282 96.3864C140.91 96.25 140.606 96.0696 140.37 95.8452C140.134 95.6207 139.958 95.375 139.842 95.108L140.937 94.6562C141.014 94.7812 141.116 94.9134 141.244 95.0526C141.374 95.1946 141.551 95.3153 141.772 95.4148C141.997 95.5142 142.285 95.5639 142.637 95.5639C143.12 95.5639 143.519 95.446 143.835 95.2102C144.15 94.9773 144.308 94.6051 144.308 94.0938V92.8068H144.227C144.15 92.946 144.039 93.1009 143.894 93.2713C143.752 93.4418 143.556 93.5895 143.306 93.7145C143.056 93.8395 142.731 93.902 142.33 93.902C141.813 93.902 141.347 93.7812 140.933 93.5398C140.521 93.2955 140.194 92.9361 139.953 92.4616C139.714 91.9844 139.595 91.3977 139.595 90.7017C139.595 90.0057 139.712 89.4091 139.948 88.9119C140.187 88.4148 140.514 88.0341 140.928 87.7699C141.343 87.5028 141.813 87.3693 142.339 87.3693C142.745 87.3693 143.073 87.4375 143.323 87.5739C143.573 87.7074 143.768 87.8636 143.907 88.0426C144.049 88.2216 144.159 88.3793 144.235 88.5156H144.329V87.4545H145.578V94.1449C145.578 94.7074 145.447 95.169 145.185 95.5298C144.924 95.8906 144.57 96.1577 144.124 96.331C143.681 96.5043 143.181 96.5909 142.624 96.5909ZM142.612 92.8452C142.978 92.8452 143.288 92.7599 143.541 92.5895C143.796 92.4162 143.989 92.169 144.12 91.848C144.254 91.5241 144.32 91.1364 144.32 90.6847C144.32 90.2443 144.255 89.8565 144.124 89.5213C143.994 89.1861 143.802 88.9247 143.549 88.7372C143.296 88.5469 142.984 88.4517 142.612 88.4517C142.228 88.4517 141.909 88.5511 141.653 88.75C141.397 88.946 141.204 89.2131 141.073 89.5511C140.945 89.8892 140.882 90.267 140.882 90.6847C140.882 91.1136 140.947 91.4901 141.078 91.8139C141.208 92.1378 141.401 92.3906 141.657 92.5724C141.916 92.7543 142.234 92.8452 142.612 92.8452ZM147.286 94V87.4545H148.518V88.4943H148.586C148.705 88.142 148.916 87.8651 149.217 87.6634C149.521 87.4588 149.864 87.3565 150.248 87.3565C150.328 87.3565 150.421 87.3594 150.529 87.3651C150.64 87.3707 150.727 87.3778 150.789 87.3864V88.6051C150.738 88.5909 150.647 88.5753 150.516 88.5582C150.386 88.5384 150.255 88.5284 150.124 88.5284C149.823 88.5284 149.555 88.5923 149.319 88.7202C149.086 88.8452 148.901 89.0199 148.765 89.2443C148.629 89.4659 148.56 89.7187 148.56 90.0028V94H147.286ZM154.478 94.1321C153.834 94.1321 153.278 93.9943 152.812 93.7188C152.349 93.4403 151.991 93.0497 151.738 92.5469C151.488 92.0412 151.363 91.4489 151.363 90.7699C151.363 90.0994 151.488 89.5085 151.738 88.9972C151.991 88.4858 152.344 88.0866 152.795 87.7997C153.25 87.5128 153.781 87.3693 154.389 87.3693C154.758 87.3693 155.116 87.4304 155.463 87.5526C155.809 87.6747 156.121 87.8665 156.396 88.1278C156.672 88.3892 156.889 88.7287 157.048 89.1463C157.207 89.5611 157.287 90.0653 157.287 90.6591V91.1108H152.084V90.1562H156.038C156.038 89.821 155.97 89.5241 155.834 89.2656C155.697 89.0043 155.505 88.7983 155.258 88.6477C155.014 88.4972 154.727 88.4219 154.397 88.4219C154.04 88.4219 153.727 88.5099 153.46 88.6861C153.196 88.8594 152.991 89.0866 152.846 89.3679C152.704 89.6463 152.633 89.9489 152.633 90.2756V91.0213C152.633 91.4588 152.71 91.831 152.863 92.1378C153.02 92.4446 153.237 92.679 153.515 92.8409C153.794 93 154.119 93.0795 154.491 93.0795C154.733 93.0795 154.953 93.0455 155.152 92.9773C155.351 92.9062 155.522 92.8011 155.667 92.6619C155.812 92.5227 155.923 92.3509 156 92.1463L157.206 92.3636C157.109 92.7187 156.936 93.0298 156.686 93.2969C156.439 93.5611 156.128 93.767 155.753 93.9148C155.38 94.0597 154.956 94.1321 154.478 94.1321ZM161.521 94.1321C160.877 94.1321 160.321 93.9943 159.855 93.7188C159.392 93.4403 159.034 93.0497 158.781 92.5469C158.531 92.0412 158.406 91.4489 158.406 90.7699C158.406 90.0994 158.531 89.5085 158.781 88.9972C159.034 88.4858 159.386 88.0866 159.838 87.7997C160.293 87.5128 160.824 87.3693 161.432 87.3693C161.801 87.3693 162.159 87.4304 162.506 87.5526C162.852 87.6747 163.163 87.8665 163.439 88.1278C163.715 88.3892 163.932 88.7287 164.091 89.1463C164.25 89.5611 164.33 90.0653 164.33 90.6591V91.1108H159.127V90.1562H163.081C163.081 89.821 163.013 89.5241 162.877 89.2656C162.74 89.0043 162.548 88.7983 162.301 88.6477C162.057 88.4972 161.77 88.4219 161.44 88.4219C161.083 88.4219 160.77 88.5099 160.503 88.6861C160.239 88.8594 160.034 89.0866 159.889 89.3679C159.747 89.6463 159.676 89.9489 159.676 90.2756V91.0213C159.676 91.4588 159.753 91.831 159.906 92.1378C160.063 92.4446 160.28 92.679 160.558 92.8409C160.837 93 161.162 93.0795 161.534 93.0795C161.776 93.0795 161.996 93.0455 162.195 92.9773C162.394 92.9062 162.565 92.8011 162.71 92.6619C162.855 92.5227 162.966 92.3509 163.043 92.1463L164.249 92.3636C164.152 92.7187 163.979 93.0298 163.729 93.2969C163.482 93.5611 163.171 93.767 162.796 93.9148C162.423 94.0597 161.999 94.1321 161.521 94.1321ZM165.743 94V87.4545H166.966V88.5199H167.047C167.184 88.1591 167.407 87.8778 167.716 87.6761C168.026 87.4716 168.397 87.3693 168.829 87.3693C169.266 87.3693 169.633 87.4716 169.928 87.6761C170.226 87.8807 170.447 88.1619 170.589 88.5199H170.657C170.813 88.1705 171.062 87.892 171.402 87.6847C171.743 87.4744 172.15 87.3693 172.621 87.3693C173.215 87.3693 173.699 87.5554 174.074 87.9276C174.452 88.2997 174.641 88.8608 174.641 89.6108V94H173.367V89.7301C173.367 89.2869 173.246 88.9659 173.005 88.767C172.763 88.5682 172.475 88.4688 172.14 88.4688C171.725 88.4688 171.402 88.5966 171.172 88.8523C170.942 89.1051 170.827 89.4304 170.827 89.8281V94H169.557V89.6491C169.557 89.294 169.447 89.0085 169.225 88.7926C169.003 88.5767 168.715 88.4688 168.36 88.4688C168.118 88.4688 167.895 88.5327 167.691 88.6605C167.489 88.7855 167.326 88.9602 167.201 89.1847C167.079 89.4091 167.018 89.669 167.018 89.9645V94H165.743ZM179.17 94.1321C178.525 94.1321 177.97 93.9943 177.504 93.7188C177.041 93.4403 176.683 93.0497 176.43 92.5469C176.18 92.0412 176.055 91.4489 176.055 90.7699C176.055 90.0994 176.18 89.5085 176.43 88.9972C176.683 88.4858 177.035 88.0866 177.487 87.7997C177.941 87.5128 178.472 87.3693 179.08 87.3693C179.45 87.3693 179.808 87.4304 180.154 87.5526C180.501 87.6747 180.812 87.8665 181.087 88.1278C181.363 88.3892 181.58 88.7287 181.739 89.1463C181.899 89.5611 181.978 90.0653 181.978 90.6591V91.1108H176.775V90.1562H180.73C180.73 89.821 180.661 89.5241 180.525 89.2656C180.389 89.0043 180.197 88.7983 179.95 88.6477C179.705 88.4972 179.418 88.4219 179.089 88.4219C178.731 88.4219 178.418 88.5099 178.151 88.6861C177.887 88.8594 177.683 89.0866 177.538 89.3679C177.396 89.6463 177.325 89.9489 177.325 90.2756V91.0213C177.325 91.4588 177.401 91.831 177.555 92.1378C177.711 92.4446 177.928 92.679 178.207 92.8409C178.485 93 178.81 93.0795 179.183 93.0795C179.424 93.0795 179.644 93.0455 179.843 92.9773C180.042 92.9062 180.214 92.8011 180.359 92.6619C180.504 92.5227 180.614 92.3509 180.691 92.1463L181.897 92.3636C181.801 92.7187 181.627 93.0298 181.377 93.2969C181.13 93.5611 180.819 93.767 180.444 93.9148C180.072 94.0597 179.647 94.1321 179.17 94.1321ZM184.666 90.1136V94H183.392V87.4545H184.615V88.5199H184.696C184.846 88.1733 185.082 87.8949 185.403 87.6847C185.727 87.4744 186.135 87.3693 186.626 87.3693C187.072 87.3693 187.463 87.4631 187.798 87.6506C188.133 87.8352 188.393 88.1108 188.578 88.4773C188.763 88.8437 188.855 89.2969 188.855 89.8366V94H187.581V89.9901C187.581 89.5156 187.457 89.1449 187.21 88.8778C186.963 88.608 186.623 88.473 186.192 88.473C185.896 88.473 185.633 88.5369 185.403 88.6648C185.176 88.7926 184.996 88.9801 184.862 89.2273C184.731 89.4716 184.666 89.767 184.666 90.1136ZM193.619 87.4545V88.4773H190.044V87.4545H193.619ZM191.003 85.8864H192.277V92.0781C192.277 92.3253 192.314 92.5114 192.388 92.6364C192.461 92.7585 192.557 92.8423 192.673 92.8878C192.792 92.9304 192.922 92.9517 193.061 92.9517C193.163 92.9517 193.253 92.9446 193.329 92.9304C193.406 92.9162 193.466 92.9048 193.508 92.8963L193.738 93.9489C193.665 93.9773 193.559 94.0057 193.423 94.0341C193.287 94.0653 193.116 94.0824 192.912 94.0852C192.576 94.0909 192.264 94.0312 191.974 93.9062C191.684 93.7812 191.45 93.5881 191.271 93.3267C191.092 93.0653 191.003 92.7372 191.003 92.3423V85.8864Z" fill="#2E2F59" fill-opacity="0.5"/>
<mask id="mask0_1538_3051" style="mask-type:alpha" maskUnits="userSpaceOnUse" x="340" y="80" width="21" height="20">
<rect x="340" y="80" width="20" height="20" fill="#D9D9D9"/>
</mask>
<g mask="url(#mask0_1538_3051)">
<path d="M347 94.1665L345.834 92.9998L348.834 89.9998L345.834 87.0207L347 85.854L350 88.854L352.979 85.854L354.146 87.0207L351.146 89.9998L354.146 92.9998L352.979 94.1665L350 91.1665L347 94.1665Z" fill="#9696AB"/>
</g>
</g>
<g filter="url(#filter4_d_1538_3051)">
<rect x="38.0001" y="124" width="334" height="100" rx="8.66441" fill="white"/>
<rect x="38.2501" y="124.25" width="333.5" height="99.5" rx="8.41441" stroke="#D9DAEC" stroke-width="0.5"/>
<path d="M50.8609 148V139.273H54.2018C54.8325 139.273 55.3567 139.372 55.7743 139.571C56.1947 139.767 56.5086 140.036 56.716 140.376C56.9263 140.717 57.0314 141.104 57.0314 141.536C57.0314 141.891 56.9632 142.195 56.8268 142.447C56.6905 142.697 56.5072 142.901 56.2771 143.057C56.047 143.213 55.7899 143.325 55.5058 143.393V143.479C55.8155 143.496 56.1123 143.591 56.3964 143.764C56.6834 143.935 56.9177 144.176 57.0996 144.489C57.2814 144.801 57.3723 145.179 57.3723 145.622C57.3723 146.074 57.2629 146.48 57.0442 146.841C56.8254 147.199 56.4959 147.482 56.0555 147.689C55.6152 147.896 55.0612 148 54.3936 148H50.8609ZM52.4419 146.679H54.1422C54.716 146.679 55.1294 146.57 55.3822 146.351C55.6379 146.129 55.7657 145.845 55.7657 145.499C55.7657 145.24 55.7018 145.007 55.574 144.8C55.4461 144.589 55.2643 144.425 55.0285 144.305C54.7927 144.183 54.5115 144.122 54.1848 144.122H52.4419V146.679ZM52.4419 142.984H54.0058C54.2785 142.984 54.5243 142.935 54.743 142.835C54.9618 142.733 55.1336 142.589 55.2586 142.405C55.3865 142.217 55.4504 141.996 55.4504 141.74C55.4504 141.402 55.3311 141.124 55.0925 140.905C54.8567 140.686 54.5058 140.577 54.0399 140.577H52.4419V142.984ZM60.563 148.132C60.1482 148.132 59.7746 148.058 59.4422 147.911C59.1127 147.76 58.8513 147.538 58.6581 147.246C58.4678 146.953 58.3726 146.592 58.3726 146.163C58.3726 145.794 58.4408 145.489 58.5772 145.247C58.7135 145.006 58.8996 144.812 59.1354 144.668C59.3712 144.523 59.6368 144.413 59.9323 144.339C60.2306 144.263 60.5388 144.207 60.857 144.173C61.2405 144.134 61.5516 144.098 61.7902 144.067C62.0289 144.033 62.2022 143.982 62.3101 143.913C62.4209 143.842 62.4763 143.733 62.4763 143.585V143.56C62.4763 143.239 62.3812 142.99 62.1908 142.814C62.0005 142.638 61.7263 142.55 61.3684 142.55C60.9905 142.55 60.6908 142.632 60.4692 142.797C60.2505 142.962 60.1028 143.156 60.026 143.381L58.5857 143.176C58.6993 142.778 58.8868 142.446 59.1482 142.179C59.4096 141.909 59.7292 141.707 60.107 141.574C60.4849 141.438 60.9025 141.369 61.3599 141.369C61.6752 141.369 61.9891 141.406 62.3016 141.48C62.6141 141.554 62.8996 141.676 63.1581 141.847C63.4167 142.014 63.6241 142.243 63.7803 142.533C63.9394 142.822 64.0189 143.185 64.0189 143.619V148H62.536V147.101H62.4849C62.3911 147.283 62.259 147.453 62.0885 147.612C61.9209 147.768 61.7093 147.895 61.4536 147.991C61.2008 148.085 60.9039 148.132 60.563 148.132ZM60.9635 146.999C61.2732 146.999 61.5417 146.937 61.7689 146.815C61.9962 146.69 62.1709 146.526 62.2931 146.321C62.4181 146.116 62.4806 145.893 62.4806 145.652V144.881C62.4323 144.92 62.3499 144.957 62.2334 144.991C62.1198 145.026 61.992 145.055 61.8499 145.081C61.7079 145.107 61.5672 145.129 61.428 145.149C61.2888 145.169 61.1681 145.186 61.0658 145.2C60.8357 145.232 60.6297 145.283 60.4479 145.354C60.2661 145.425 60.1226 145.524 60.0175 145.652C59.9124 145.777 59.8599 145.939 59.8599 146.138C59.8599 146.422 59.9635 146.636 60.1709 146.781C60.3783 146.926 60.6425 146.999 60.9635 146.999ZM70.7434 143.185L69.3371 143.338C69.2974 143.196 69.2277 143.062 69.1283 142.938C69.0317 142.812 68.901 142.712 68.7363 142.635C68.5715 142.558 68.3698 142.52 68.1312 142.52C67.8101 142.52 67.5402 142.589 67.3215 142.729C67.1056 142.868 66.9991 143.048 67.0019 143.27C66.9991 143.46 67.0687 143.615 67.2107 143.734C67.3556 143.854 67.5942 143.952 67.9266 144.028L69.0431 144.267C69.6624 144.401 70.1226 144.612 70.4238 144.902C70.7278 145.192 70.8812 145.571 70.884 146.04C70.8812 146.452 70.7604 146.815 70.5218 147.131C70.286 147.443 69.9579 147.687 69.5374 147.864C69.117 148.04 68.634 148.128 68.0885 148.128C67.2874 148.128 66.6425 147.96 66.1539 147.625C65.6652 147.287 65.3741 146.817 65.2803 146.214L66.7846 146.07C66.8527 146.365 66.9976 146.588 67.2192 146.739C67.4408 146.889 67.7292 146.964 68.0843 146.964C68.4508 146.964 68.7448 146.889 68.9664 146.739C69.1908 146.588 69.303 146.402 69.303 146.18C69.303 145.993 69.2306 145.838 69.0857 145.716C68.9437 145.594 68.7221 145.5 68.4209 145.435L67.3045 145.2C66.6766 145.07 66.2121 144.849 65.911 144.54C65.6099 144.227 65.4607 143.832 65.4635 143.355C65.4607 142.952 65.5701 142.602 65.7917 142.307C66.0161 142.009 66.3272 141.778 66.7249 141.616C67.1255 141.452 67.5871 141.369 68.1099 141.369C68.8769 141.369 69.4806 141.533 69.9209 141.859C70.3641 142.186 70.6383 142.628 70.7434 143.185ZM72.156 148V141.455H73.6986V148H72.156ZM72.9316 140.526C72.6873 140.526 72.477 140.445 72.3009 140.283C72.1248 140.118 72.0367 139.92 72.0367 139.69C72.0367 139.457 72.1248 139.26 72.3009 139.098C72.477 138.933 72.6873 138.851 72.9316 138.851C73.1787 138.851 73.389 138.933 73.5623 139.098C73.7384 139.26 73.8265 139.457 73.8265 139.69C73.8265 139.92 73.7384 140.118 73.5623 140.283C73.389 140.445 73.1787 140.526 72.9316 140.526ZM78.14 148.128C77.4866 148.128 76.9255 147.984 76.4568 147.697C75.9909 147.411 75.6315 147.014 75.3787 146.509C75.1287 146 75.0037 145.415 75.0037 144.753C75.0037 144.088 75.1315 143.501 75.3872 142.993C75.6429 142.482 76.0037 142.084 76.4696 141.8C76.9383 141.513 77.4923 141.369 78.1315 141.369C78.6628 141.369 79.1329 141.467 79.542 141.663C79.954 141.857 80.2821 142.131 80.5264 142.486C80.7707 142.838 80.9099 143.25 80.944 143.722H79.4696C79.4099 143.406 79.2679 143.143 79.0434 142.933C78.8219 142.72 78.525 142.614 78.1528 142.614C77.8375 142.614 77.5605 142.699 77.3219 142.869C77.0832 143.037 76.8971 143.278 76.7636 143.594C76.6329 143.909 76.5676 144.287 76.5676 144.727C76.5676 145.173 76.6329 145.557 76.7636 145.878C76.8943 146.196 77.0775 146.442 77.3133 146.615C77.552 146.786 77.8318 146.871 78.1528 146.871C78.3801 146.871 78.5832 146.828 78.7622 146.743C78.944 146.655 79.096 146.528 79.2182 146.364C79.3403 146.199 79.4241 145.999 79.4696 145.763H80.944C80.9071 146.226 80.7707 146.636 80.5349 146.994C80.2991 147.349 79.9781 147.628 79.5719 147.83C79.1656 148.028 78.6883 148.128 78.14 148.128ZM90.3606 143.185L88.9543 143.338C88.9145 143.196 88.8449 143.062 88.7455 142.938C88.6489 142.812 88.5182 142.712 88.3535 142.635C88.1887 142.558 87.987 142.52 87.7483 142.52C87.4273 142.52 87.1574 142.589 86.9387 142.729C86.7228 142.868 86.6162 143.048 86.6191 143.27C86.6162 143.46 86.6858 143.615 86.8279 143.734C86.9728 143.854 87.2114 143.952 87.5438 144.028L88.6603 144.267C89.2796 144.401 89.7398 144.612 90.041 144.902C90.3449 145.192 90.4983 145.571 90.5012 146.04C90.4983 146.452 90.3776 146.815 90.139 147.131C89.9032 147.443 89.5751 147.687 89.1546 147.864C88.7341 148.04 88.2512 148.128 87.7057 148.128C86.9046 148.128 86.2597 147.96 85.7711 147.625C85.2824 147.287 84.9912 146.817 84.8975 146.214L86.4018 146.07C86.4699 146.365 86.6148 146.588 86.8364 146.739C87.058 146.889 87.3464 146.964 87.7015 146.964C88.0679 146.964 88.362 146.889 88.5836 146.739C88.808 146.588 88.9202 146.402 88.9202 146.18C88.9202 145.993 88.8478 145.838 88.7029 145.716C88.5608 145.594 88.3393 145.5 88.0381 145.435L86.9216 145.2C86.2938 145.07 85.8293 144.849 85.5282 144.54C85.227 144.227 85.0779 143.832 85.0807 143.355C85.0779 142.952 85.1873 142.602 85.4089 142.307C85.6333 142.009 85.9444 141.778 86.3421 141.616C86.7427 141.452 87.2043 141.369 87.727 141.369C88.4941 141.369 89.0978 141.533 89.5381 141.859C89.9813 142.186 90.2554 142.628 90.3606 143.185ZM95.9451 145.247V141.455H97.4877V148H95.992V146.837H95.9238C95.776 147.203 95.5331 147.503 95.1951 147.736C94.8599 147.969 94.4465 148.085 93.955 148.085C93.526 148.085 93.1468 147.99 92.8172 147.8C92.4905 147.607 92.2349 147.327 92.0502 146.96C91.8655 146.591 91.7732 146.145 91.7732 145.622V141.455H93.3158V145.384C93.3158 145.798 93.4295 146.128 93.6567 146.372C93.884 146.616 94.1823 146.739 94.5516 146.739C94.7789 146.739 94.9991 146.683 95.2121 146.572C95.4252 146.462 95.5999 146.297 95.7363 146.078C95.8755 145.857 95.9451 145.58 95.9451 145.247ZM99.074 148V141.455H100.548V142.567H100.625C100.761 142.192 100.987 141.899 101.303 141.689C101.618 141.476 101.994 141.369 102.432 141.369C102.875 141.369 103.249 141.477 103.553 141.693C103.859 141.906 104.075 142.197 104.2 142.567H104.269C104.413 142.203 104.658 141.913 105.002 141.697C105.348 141.479 105.759 141.369 106.233 141.369C106.835 141.369 107.327 141.56 107.708 141.94C108.088 142.321 108.279 142.876 108.279 143.607V148H106.732V143.845C106.732 143.439 106.624 143.142 106.408 142.955C106.192 142.764 105.928 142.669 105.615 142.669C105.243 142.669 104.952 142.786 104.742 143.018C104.534 143.249 104.431 143.548 104.431 143.918V148H102.918V143.781C102.918 143.443 102.815 143.173 102.611 142.972C102.409 142.77 102.145 142.669 101.818 142.669C101.597 142.669 101.395 142.726 101.213 142.839C101.031 142.95 100.886 143.108 100.779 143.312C100.671 143.514 100.617 143.75 100.617 144.02V148H99.074ZM109.844 148V141.455H111.318V142.567H111.395C111.531 142.192 111.757 141.899 112.072 141.689C112.388 141.476 112.764 141.369 113.201 141.369C113.645 141.369 114.018 141.477 114.322 141.693C114.629 141.906 114.845 142.197 114.97 142.567H115.038C115.183 142.203 115.427 141.913 115.771 141.697C116.118 141.479 116.528 141.369 117.003 141.369C117.605 141.369 118.096 141.56 118.477 141.94C118.858 142.321 119.048 142.876 119.048 143.607V148H117.501V143.845C117.501 143.439 117.393 143.142 117.177 142.955C116.961 142.764 116.697 142.669 116.385 142.669C116.013 142.669 115.721 142.786 115.511 143.018C115.304 143.249 115.2 143.548 115.2 143.918V148H113.687V143.781C113.687 143.443 113.585 143.173 113.38 142.972C113.179 142.77 112.915 142.669 112.588 142.669C112.366 142.669 112.165 142.726 111.983 142.839C111.801 142.95 111.656 143.108 111.548 143.312C111.44 143.514 111.386 143.75 111.386 144.02V148H109.844ZM122.497 148.132C122.082 148.132 121.708 148.058 121.376 147.911C121.046 147.76 120.785 147.538 120.592 147.246C120.401 146.953 120.306 146.592 120.306 146.163C120.306 145.794 120.374 145.489 120.511 145.247C120.647 145.006 120.833 144.812 121.069 144.668C121.305 144.523 121.57 144.413 121.866 144.339C122.164 144.263 122.472 144.207 122.791 144.173C123.174 144.134 123.485 144.098 123.724 144.067C123.962 144.033 124.136 143.982 124.244 143.913C124.355 143.842 124.41 143.733 124.41 143.585V143.56C124.41 143.239 124.315 142.99 124.124 142.814C123.934 142.638 123.66 142.55 123.302 142.55C122.924 142.55 122.624 142.632 122.403 142.797C122.184 142.962 122.036 143.156 121.96 143.381L120.519 143.176C120.633 142.778 120.82 142.446 121.082 142.179C121.343 141.909 121.663 141.707 122.041 141.574C122.418 141.438 122.836 141.369 123.293 141.369C123.609 141.369 123.923 141.406 124.235 141.48C124.548 141.554 124.833 141.676 125.092 141.847C125.35 142.014 125.558 142.243 125.714 142.533C125.873 142.822 125.953 143.185 125.953 143.619V148H124.47V147.101H124.418C124.325 147.283 124.193 147.453 124.022 147.612C123.855 147.768 123.643 147.895 123.387 147.991C123.134 148.085 122.837 148.132 122.497 148.132ZM122.897 146.999C123.207 146.999 123.475 146.937 123.703 146.815C123.93 146.69 124.105 146.526 124.227 146.321C124.352 146.116 124.414 145.893 124.414 145.652V144.881C124.366 144.92 124.284 144.957 124.167 144.991C124.053 145.026 123.926 145.055 123.784 145.081C123.641 145.107 123.501 145.129 123.362 145.149C123.222 145.169 123.102 145.186 122.999 145.2C122.769 145.232 122.563 145.283 122.382 145.354C122.2 145.425 122.056 145.524 121.951 145.652C121.846 145.777 121.793 145.939 121.793 146.138C121.793 146.422 121.897 146.636 122.105 146.781C122.312 146.926 122.576 146.999 122.897 146.999ZM127.504 148V141.455H128.999V142.545H129.068C129.187 142.168 129.391 141.876 129.681 141.672C129.974 141.464 130.308 141.361 130.683 141.361C130.768 141.361 130.863 141.365 130.968 141.374C131.076 141.379 131.166 141.389 131.237 141.403V142.822C131.171 142.8 131.068 142.78 130.926 142.763C130.786 142.743 130.651 142.733 130.521 142.733C130.239 142.733 129.987 142.794 129.762 142.916C129.541 143.036 129.366 143.202 129.238 143.415C129.11 143.628 129.046 143.874 129.046 144.152V148H127.504ZM133.42 150.455C133.209 150.455 133.015 150.438 132.836 150.403C132.66 150.372 132.519 150.335 132.414 150.293L132.772 149.091C132.996 149.156 133.196 149.188 133.373 149.185C133.549 149.182 133.704 149.126 133.837 149.018C133.973 148.913 134.089 148.737 134.182 148.49L134.314 148.136L131.941 141.455H133.577L135.086 146.398H135.154L136.667 141.455H138.307L135.687 148.793C135.564 149.139 135.402 149.436 135.201 149.683C134.999 149.933 134.752 150.124 134.459 150.254C134.17 150.388 133.823 150.455 133.42 150.455Z" fill="#2E2F59"/>
<rect x="50.0001" y="164" width="104" height="8" rx="4" fill="#EBE6FA"/>
<rect x="162" y="164" width="198" height="8" rx="4" fill="#EBE6FA"/>
<rect x="50.0001" y="184" width="181" height="8" rx="4" fill="#EBE6FA"/>
<rect x="239" y="184" width="121" height="8" rx="4" fill="#EBE6FA"/>
<rect x="50.0001" y="204" width="104" height="8" rx="4" fill="#EBE6FA"/>
<rect x="162" y="204" width="198" height="8" rx="4" fill="#EBE6FA"/>
</g>
<g filter="url(#filter5_d_1538_3051)">
<rect x="139.5" y="234" width="218" height="40" rx="8" fill="url(#paint0_linear_1538_3051)"/>
<mask id="mask1_1538_3051" style="mask-type:alpha" maskUnits="userSpaceOnUse" x="147" y="242" width="25" height="24">
<rect x="147.5" y="242" width="24" height="24" fill="#D9D9D9"/>
</mask>
<g mask="url(#mask1_1538_3051)">
<path d="M157.05 260.191L151.159 254.3L152.781 252.678L157.05 256.947L166.219 247.778L167.841 249.4L157.05 260.191Z" fill="white"/>
</g>
<path d="M185.369 261.192C184.612 261.192 183.908 261.053 183.257 260.776C182.617 260.499 182.062 260.115 181.593 259.624C181.134 259.123 180.798 258.541 180.585 257.88L182.393 257.096C182.681 257.779 183.097 258.317 183.641 258.712C184.185 259.096 184.798 259.288 185.481 259.288C185.865 259.288 186.196 259.229 186.473 259.112C186.761 258.984 186.98 258.813 187.129 258.6C187.289 258.387 187.369 258.131 187.369 257.832C187.369 257.48 187.262 257.192 187.049 256.968C186.846 256.733 186.537 256.552 186.121 256.424L183.833 255.688C182.905 255.4 182.206 254.968 181.737 254.392C181.268 253.816 181.033 253.139 181.033 252.36C181.033 251.677 181.198 251.075 181.529 250.552C181.87 250.029 182.34 249.624 182.937 249.336C183.545 249.037 184.238 248.888 185.017 248.888C185.732 248.888 186.388 249.016 186.985 249.272C187.582 249.517 188.094 249.864 188.521 250.312C188.958 250.749 189.284 251.267 189.497 251.864L187.705 252.664C187.47 252.067 187.118 251.608 186.649 251.288C186.18 250.957 185.636 250.792 185.017 250.792C184.654 250.792 184.334 250.856 184.057 250.984C183.78 251.101 183.561 251.272 183.401 251.496C183.252 251.709 183.177 251.965 183.177 252.264C183.177 252.595 183.284 252.888 183.497 253.144C183.71 253.389 184.036 253.581 184.473 253.72L186.665 254.408C187.614 254.717 188.324 255.144 188.793 255.688C189.273 256.232 189.513 256.904 189.513 257.704C189.513 258.387 189.337 258.989 188.985 259.512C188.633 260.035 188.148 260.445 187.529 260.744C186.91 261.043 186.19 261.192 185.369 261.192ZM194.4 261.192C193.728 261.192 193.142 261.043 192.64 260.744C192.15 260.445 191.771 260.029 191.504 259.496C191.248 258.963 191.12 258.339 191.12 257.624V252.296H193.216V257.448C193.216 257.811 193.286 258.131 193.424 258.408C193.574 258.675 193.782 258.888 194.048 259.048C194.326 259.197 194.635 259.272 194.976 259.272C195.318 259.272 195.622 259.197 195.888 259.048C196.155 258.888 196.363 258.669 196.512 258.392C196.662 258.115 196.736 257.784 196.736 257.4V252.296H198.832V261H196.848V259.288L197.024 259.592C196.822 260.125 196.486 260.525 196.016 260.792C195.558 261.059 195.019 261.192 194.4 261.192ZM200.781 261V252.296H202.749V254.312L202.525 253.976C202.685 253.347 203.005 252.877 203.485 252.568C203.965 252.259 204.53 252.104 205.181 252.104C205.895 252.104 206.525 252.291 207.069 252.664C207.613 253.037 207.965 253.528 208.125 254.136L207.533 254.184C207.799 253.491 208.199 252.973 208.733 252.632C209.266 252.28 209.879 252.104 210.573 252.104C211.191 252.104 211.741 252.243 212.221 252.52C212.711 252.797 213.095 253.187 213.373 253.688C213.65 254.179 213.789 254.749 213.789 255.4V261H211.693V255.896C211.693 255.512 211.623 255.181 211.485 254.904C211.346 254.627 211.154 254.413 210.909 254.264C210.663 254.104 210.365 254.024 210.013 254.024C209.682 254.024 209.389 254.104 209.133 254.264C208.877 254.413 208.679 254.627 208.541 254.904C208.402 255.181 208.333 255.512 208.333 255.896V261H206.237V255.896C206.237 255.512 206.167 255.181 206.029 254.904C205.89 254.627 205.693 254.413 205.437 254.264C205.191 254.104 204.898 254.024 204.557 254.024C204.226 254.024 203.933 254.104 203.677 254.264C203.421 254.413 203.223 254.627 203.085 254.904C202.946 255.181 202.877 255.512 202.877 255.896V261H200.781ZM215.562 261V252.296H217.53V254.312L217.306 253.976C217.466 253.347 217.786 252.877 218.266 252.568C218.746 252.259 219.311 252.104 219.962 252.104C220.677 252.104 221.306 252.291 221.85 252.664C222.394 253.037 222.746 253.528 222.906 254.136L222.314 254.184C222.581 253.491 222.981 252.973 223.514 252.632C224.047 252.28 224.661 252.104 225.354 252.104C225.973 252.104 226.522 252.243 227.002 252.52C227.493 252.797 227.877 253.187 228.154 253.688C228.431 254.179 228.57 254.749 228.57 255.4V261H226.474V255.896C226.474 255.512 226.405 255.181 226.266 254.904C226.127 254.627 225.935 254.413 225.69 254.264C225.445 254.104 225.146 254.024 224.794 254.024C224.463 254.024 224.17 254.104 223.914 254.264C223.658 254.413 223.461 254.627 223.322 254.904C223.183 255.181 223.114 255.512 223.114 255.896V261H221.018V255.896C221.018 255.512 220.949 255.181 220.81 254.904C220.671 254.627 220.474 254.413 220.218 254.264C219.973 254.104 219.679 254.024 219.338 254.024C219.007 254.024 218.714 254.104 218.458 254.264C218.202 254.413 218.005 254.627 217.866 254.904C217.727 255.181 217.658 255.512 217.658 255.896V261H215.562ZM232.983 261.192C232.375 261.192 231.847 261.091 231.399 260.888C230.951 260.685 230.605 260.397 230.359 260.024C230.114 259.64 229.991 259.197 229.991 258.696C229.991 258.216 230.098 257.789 230.311 257.416C230.525 257.032 230.855 256.712 231.303 256.456C231.751 256.2 232.317 256.019 232.999 255.912L235.847 255.448V257.048L233.399 257.464C232.983 257.539 232.674 257.672 232.471 257.864C232.269 258.056 232.167 258.307 232.167 258.616C232.167 258.915 232.279 259.155 232.503 259.336C232.738 259.507 233.026 259.592 233.367 259.592C233.805 259.592 234.189 259.501 234.519 259.32C234.861 259.128 235.122 258.867 235.303 258.536C235.495 258.205 235.591 257.843 235.591 257.448V255.208C235.591 254.835 235.442 254.525 235.143 254.28C234.855 254.024 234.471 253.896 233.991 253.896C233.543 253.896 233.143 254.019 232.791 254.264C232.45 254.499 232.199 254.813 232.039 255.208L230.327 254.376C230.498 253.917 230.765 253.523 231.127 253.192C231.501 252.851 231.938 252.584 232.439 252.392C232.941 252.2 233.485 252.104 234.071 252.104C234.786 252.104 235.415 252.237 235.959 252.504C236.503 252.76 236.925 253.123 237.223 253.592C237.533 254.051 237.687 254.589 237.687 255.208V261H235.703V259.512L236.151 259.48C235.927 259.853 235.661 260.168 235.351 260.424C235.042 260.669 234.69 260.861 234.295 261C233.901 261.128 233.463 261.192 232.983 261.192ZM239.625 261V252.296H241.593V254.232L241.433 253.944C241.635 253.293 241.95 252.84 242.377 252.584C242.814 252.328 243.337 252.2 243.945 252.2H244.457V254.056H243.705C243.107 254.056 242.627 254.243 242.265 254.616C241.902 254.979 241.721 255.491 241.721 256.152V261H239.625ZM246.665 264.536C246.43 264.536 246.201 264.515 245.977 264.472C245.753 264.44 245.55 264.381 245.369 264.296V262.536C245.508 262.568 245.673 262.6 245.865 262.632C246.068 262.664 246.254 262.68 246.425 262.68C246.905 262.68 247.252 262.568 247.465 262.344C247.689 262.12 247.886 261.827 248.057 261.464L248.633 260.12L248.601 261.88L244.809 252.296H247.065L249.721 259.368H248.921L251.561 252.296H253.833L250.041 261.88C249.817 262.445 249.545 262.925 249.225 263.32C248.905 263.715 248.532 264.013 248.105 264.216C247.689 264.429 247.209 264.536 246.665 264.536ZM263.652 261.192C262.798 261.192 262.009 261.037 261.284 260.728C260.558 260.419 259.924 259.987 259.38 259.432C258.836 258.877 258.409 258.227 258.1 257.48C257.801 256.733 257.652 255.917 257.652 255.032C257.652 254.147 257.796 253.331 258.084 252.584C258.382 251.827 258.798 251.176 259.332 250.632C259.876 250.077 260.51 249.651 261.236 249.352C261.961 249.043 262.75 248.888 263.604 248.888C264.457 248.888 265.22 249.032 265.892 249.32C266.574 249.608 267.15 249.992 267.62 250.472C268.089 250.941 268.425 251.459 268.628 252.024L266.692 252.952C266.468 252.333 266.089 251.832 265.556 251.448C265.022 251.064 264.372 250.872 263.604 250.872C262.857 250.872 262.196 251.048 261.62 251.4C261.054 251.752 260.612 252.237 260.292 252.856C259.982 253.475 259.828 254.2 259.828 255.032C259.828 255.864 259.988 256.595 260.308 257.224C260.638 257.843 261.092 258.328 261.668 258.68C262.244 259.032 262.905 259.208 263.652 259.208C264.26 259.208 264.82 259.091 265.332 258.856C265.844 258.611 266.254 258.269 266.564 257.832C266.873 257.384 267.028 256.856 267.028 256.248V255.336L268.02 256.2H263.604V254.36H269.204V255.56C269.204 256.477 269.049 257.288 268.74 257.992C268.43 258.696 268.009 259.288 267.476 259.768C266.953 260.237 266.361 260.595 265.7 260.84C265.038 261.075 264.356 261.192 263.652 261.192ZM274.878 261.192C273.982 261.192 273.198 260.989 272.526 260.584C271.854 260.179 271.331 259.629 270.958 258.936C270.584 258.243 270.398 257.475 270.398 256.632C270.398 255.757 270.584 254.984 270.958 254.312C271.342 253.629 271.859 253.091 272.51 252.696C273.171 252.301 273.907 252.104 274.718 252.104C275.4 252.104 275.998 252.216 276.51 252.44C277.032 252.664 277.475 252.973 277.838 253.368C278.2 253.763 278.478 254.216 278.67 254.728C278.862 255.229 278.958 255.773 278.958 256.36C278.958 256.509 278.947 256.664 278.926 256.824C278.915 256.984 278.888 257.123 278.846 257.24H272.126V255.64H277.662L276.67 256.392C276.766 255.901 276.739 255.464 276.59 255.08C276.451 254.696 276.216 254.392 275.886 254.168C275.566 253.944 275.176 253.832 274.718 253.832C274.28 253.832 273.891 253.944 273.55 254.168C273.208 254.381 272.947 254.701 272.766 255.128C272.595 255.544 272.531 256.051 272.574 256.648C272.531 257.181 272.6 257.656 272.782 258.072C272.974 258.477 273.251 258.792 273.614 259.016C273.987 259.24 274.414 259.352 274.894 259.352C275.374 259.352 275.779 259.251 276.11 259.048C276.451 258.845 276.718 258.573 276.91 258.232L278.606 259.064C278.435 259.48 278.168 259.848 277.806 260.168C277.443 260.488 277.011 260.739 276.51 260.92C276.019 261.101 275.475 261.192 274.878 261.192ZM280.546 261V252.296H282.514V254.008L282.354 253.704C282.557 253.181 282.888 252.787 283.346 252.52C283.816 252.243 284.36 252.104 284.978 252.104C285.618 252.104 286.184 252.243 286.674 252.52C287.176 252.797 287.565 253.187 287.842 253.688C288.12 254.179 288.258 254.749 288.258 255.4V261H286.162V255.896C286.162 255.512 286.088 255.181 285.938 254.904C285.789 254.627 285.581 254.413 285.314 254.264C285.058 254.104 284.754 254.024 284.402 254.024C284.061 254.024 283.757 254.104 283.49 254.264C283.224 254.413 283.016 254.627 282.866 254.904C282.717 255.181 282.642 255.512 282.642 255.896V261H280.546ZM294.159 261.192C293.263 261.192 292.479 260.989 291.807 260.584C291.135 260.179 290.612 259.629 290.239 258.936C289.865 258.243 289.679 257.475 289.679 256.632C289.679 255.757 289.865 254.984 290.239 254.312C290.623 253.629 291.14 253.091 291.791 252.696C292.452 252.301 293.188 252.104 293.999 252.104C294.681 252.104 295.279 252.216 295.791 252.44C296.313 252.664 296.756 252.973 297.119 253.368C297.481 253.763 297.759 254.216 297.951 254.728C298.143 255.229 298.239 255.773 298.239 256.36C298.239 256.509 298.228 256.664 298.207 256.824C298.196 256.984 298.169 257.123 298.127 257.24H291.407V255.64H296.943L295.951 256.392C296.047 255.901 296.02 255.464 295.871 255.08C295.732 254.696 295.497 254.392 295.167 254.168C294.847 253.944 294.457 253.832 293.999 253.832C293.561 253.832 293.172 253.944 292.831 254.168C292.489 254.381 292.228 254.701 292.047 255.128C291.876 255.544 291.812 256.051 291.855 256.648C291.812 257.181 291.881 257.656 292.063 258.072C292.255 258.477 292.532 258.792 292.895 259.016C293.268 259.24 293.695 259.352 294.175 259.352C294.655 259.352 295.06 259.251 295.391 259.048C295.732 258.845 295.999 258.573 296.191 258.232L297.887 259.064C297.716 259.48 297.449 259.848 297.087 260.168C296.724 260.488 296.292 260.739 295.791 260.92C295.3 261.101 294.756 261.192 294.159 261.192ZM299.828 261V252.296H301.796V254.232L301.636 253.944C301.838 253.293 302.153 252.84 302.58 252.584C303.017 252.328 303.54 252.2 304.148 252.2H304.66V254.056H303.908C303.31 254.056 302.83 254.243 302.468 254.616C302.105 254.979 301.924 255.491 301.924 256.152V261H299.828ZM308.452 261.192C307.844 261.192 307.316 261.091 306.868 260.888C306.42 260.685 306.073 260.397 305.828 260.024C305.583 259.64 305.46 259.197 305.46 258.696C305.46 258.216 305.567 257.789 305.78 257.416C305.993 257.032 306.324 256.712 306.772 256.456C307.22 256.2 307.785 256.019 308.468 255.912L311.316 255.448V257.048L308.868 257.464C308.452 257.539 308.143 257.672 307.94 257.864C307.737 258.056 307.636 258.307 307.636 258.616C307.636 258.915 307.748 259.155 307.972 259.336C308.207 259.507 308.495 259.592 308.836 259.592C309.273 259.592 309.657 259.501 309.988 259.32C310.329 259.128 310.591 258.867 310.772 258.536C310.964 258.205 311.06 257.843 311.06 257.448V255.208C311.06 254.835 310.911 254.525 310.612 254.28C310.324 254.024 309.94 253.896 309.46 253.896C309.012 253.896 308.612 254.019 308.26 254.264C307.919 254.499 307.668 254.813 307.508 255.208L305.796 254.376C305.967 253.917 306.233 253.523 306.596 253.192C306.969 252.851 307.407 252.584 307.908 252.392C308.409 252.2 308.953 252.104 309.54 252.104C310.255 252.104 310.884 252.237 311.428 252.504C311.972 252.76 312.393 253.123 312.692 253.592C313.001 254.051 313.156 254.589 313.156 255.208V261H311.172V259.512L311.62 259.48C311.396 259.853 311.129 260.168 310.82 260.424C310.511 260.669 310.159 260.861 309.764 261C309.369 261.128 308.932 261.192 308.452 261.192ZM318.905 261.096C317.924 261.096 317.161 260.829 316.617 260.296C316.084 259.752 315.817 258.989 315.817 258.008V254.168H314.313V252.296H314.473C314.9 252.296 315.23 252.184 315.465 251.96C315.7 251.736 315.817 251.411 315.817 250.984V250.312H317.913V252.296H319.913V254.168H317.913V257.896C317.913 258.184 317.961 258.429 318.057 258.632C318.164 258.835 318.324 258.989 318.537 259.096C318.761 259.203 319.044 259.256 319.385 259.256C319.46 259.256 319.545 259.251 319.641 259.24C319.748 259.229 319.849 259.219 319.945 259.208V261C319.796 261.021 319.625 261.043 319.433 261.064C319.241 261.085 319.065 261.096 318.905 261.096ZM325.596 261.192C324.7 261.192 323.916 260.989 323.244 260.584C322.572 260.179 322.05 259.629 321.676 258.936C321.303 258.243 321.116 257.475 321.116 256.632C321.116 255.757 321.303 254.984 321.676 254.312C322.06 253.629 322.578 253.091 323.228 252.696C323.89 252.301 324.626 252.104 325.436 252.104C326.119 252.104 326.716 252.216 327.228 252.44C327.751 252.664 328.194 252.973 328.556 253.368C328.919 253.763 329.196 254.216 329.388 254.728C329.58 255.229 329.676 255.773 329.676 256.36C329.676 256.509 329.666 256.664 329.644 256.824C329.634 256.984 329.607 257.123 329.564 257.24H322.844V255.64H328.38L327.388 256.392C327.484 255.901 327.458 255.464 327.308 255.08C327.17 254.696 326.935 254.392 326.604 254.168C326.284 253.944 325.895 253.832 325.436 253.832C324.999 253.832 324.61 253.944 324.268 254.168C323.927 254.381 323.666 254.701 323.484 255.128C323.314 255.544 323.25 256.051 323.292 256.648C323.25 257.181 323.319 257.656 323.5 258.072C323.692 258.477 323.97 258.792 324.332 259.016C324.706 259.24 325.132 259.352 325.612 259.352C326.092 259.352 326.498 259.251 326.828 259.048C327.17 258.845 327.436 258.573 327.628 258.232L329.324 259.064C329.154 259.48 328.887 259.848 328.524 260.168C328.162 260.488 327.73 260.739 327.228 260.92C326.738 261.101 326.194 261.192 325.596 261.192ZM335.313 261.192C334.471 261.192 333.719 260.995 333.057 260.6C332.396 260.195 331.873 259.645 331.489 258.952C331.105 258.259 330.913 257.491 330.913 256.648C330.913 255.795 331.105 255.027 331.489 254.344C331.873 253.661 332.396 253.117 333.057 252.712C333.729 252.307 334.476 252.104 335.297 252.104C335.959 252.104 336.545 252.237 337.057 252.504C337.58 252.76 337.991 253.123 338.289 253.592L337.969 254.024V248.888H340.065V261H338.081V259.32L338.305 259.736C338.007 260.205 337.591 260.568 337.057 260.824C336.524 261.069 335.943 261.192 335.313 261.192ZM335.537 259.272C336.017 259.272 336.439 259.16 336.801 258.936C337.164 258.712 337.447 258.403 337.649 258.008C337.863 257.613 337.969 257.16 337.969 256.648C337.969 256.147 337.863 255.699 337.649 255.304C337.447 254.899 337.164 254.584 336.801 254.36C336.439 254.136 336.017 254.024 335.537 254.024C335.068 254.024 334.647 254.141 334.273 254.376C333.9 254.6 333.607 254.909 333.393 255.304C333.191 255.688 333.089 256.136 333.089 256.648C333.089 257.16 333.191 257.613 333.393 258.008C333.607 258.403 333.9 258.712 334.273 258.936C334.647 259.16 335.068 259.272 335.537 259.272Z" fill="white"/>
</g>
</g>
<path d="M6.58337 24C6.58337 13.0924 15.4257 4.25 26.3334 4.25H383.667C394.574 4.25 403.417 13.0924 403.417 24V436C403.417 446.908 394.574 455.75 383.667 455.75H26.3334C15.4258 455.75 6.58337 446.908 6.58337 436V24Z" stroke="#DADAEA" stroke-width="0.5"/>
</g>
<defs>
<filter id="filter0_d_1538_3051" x="0.333374" y="0" width="409.333" height="464" filterUnits="userSpaceOnUse" color-interpolation-filters="sRGB">
<feFlood flood-opacity="0" result="BackgroundImageFix"/>
<feColorMatrix in="SourceAlpha" type="matrix" values="0 0 0 0 0 0 0 0 0 0 0 0 0 0 0 0 0 0 127 0" result="hardAlpha"/>
<feOffset dy="2"/>
<feGaussianBlur stdDeviation="3"/>
<feComposite in2="hardAlpha" operator="out"/>
<feColorMatrix type="matrix" values="0 0 0 0 0 0 0 0 0 0 0 0 0 0 0 0 0 0 0.09 0"/>
<feBlend mode="normal" in2="BackgroundImageFix" result="effect1_dropShadow_1538_3051"/>
<feBlend mode="normal" in="SourceGraphic" in2="effect1_dropShadow_1538_3051" result="shape"/>
</filter>
<filter id="filter1_f_1538_3051" x="37.891" y="-71.4996" width="445.329" height="484.439" filterUnits="userSpaceOnUse" color-interpolation-filters="sRGB">
<feFlood flood-opacity="0" result="BackgroundImageFix"/>
<feBlend mode="normal" in="SourceGraphic" in2="BackgroundImageFix" result="shape"/>
<feGaussianBlur stdDeviation="47.8503" result="effect1_foregroundBlur_1538_3051"/>
</filter>
<filter id="filter2_f_1538_3051" x="-89.4528" y="-75.773" width="445.775" height="416.224" filterUnits="userSpaceOnUse" color-interpolation-filters="sRGB">
<feFlood flood-opacity="0" result="BackgroundImageFix"/>
<feBlend mode="normal" in="SourceGraphic" in2="BackgroundImageFix" result="shape"/>
<feGaussianBlur stdDeviation="47.8502" result="effect1_foregroundBlur_1538_3051"/>
</filter>
<filter id="filter3_d_1538_3051" x="32.0001" y="34" width="346" height="94" filterUnits="userSpaceOnUse" color-interpolation-filters="sRGB">
<feFlood flood-opacity="0" result="BackgroundImageFix"/>
<feColorMatrix in="SourceAlpha" type="matrix" values="0 0 0 0 0 0 0 0 0 0 0 0 0 0 0 0 0 0 127 0" result="hardAlpha"/>
<feOffset dy="4"/>
<feGaussianBlur stdDeviation="3"/>
<feComposite in2="hardAlpha" operator="out"/>
<feColorMatrix type="matrix" values="0 0 0 0 0 0 0 0 0 0 0 0 0 0 0 0 0 0 0.06 0"/>
<feBlend mode="normal" in2="BackgroundImageFix" result="effect1_dropShadow_1538_3051"/>
<feBlend mode="normal" in="SourceGraphic" in2="effect1_dropShadow_1538_3051" result="shape"/>
</filter>
<filter id="filter4_d_1538_3051" x="32.0001" y="122" width="346" height="112" filterUnits="userSpaceOnUse" color-interpolation-filters="sRGB">
<feFlood flood-opacity="0" result="BackgroundImageFix"/>
<feColorMatrix in="SourceAlpha" type="matrix" values="0 0 0 0 0 0 0 0 0 0 0 0 0 0 0 0 0 0 127 0" result="hardAlpha"/>
<feOffset dy="4"/>
<feGaussianBlur stdDeviation="3"/>
<feComposite in2="hardAlpha" operator="out"/>
<feColorMatrix type="matrix" values="0 0 0 0 0 0 0 0 0 0 0 0 0 0 0 0 0 0 0.06 0"/>
<feBlend mode="normal" in2="BackgroundImageFix" result="effect1_dropShadow_1538_3051"/>
<feBlend mode="normal" in="SourceGraphic" in2="effect1_dropShadow_1538_3051" result="shape"/>
</filter>
<filter id="filter5_d_1538_3051" x="130.5" y="227" width="236" height="58" filterUnits="userSpaceOnUse" color-interpolation-filters="sRGB">
<feFlood flood-opacity="0" result="BackgroundImageFix"/>
<feColorMatrix in="SourceAlpha" type="matrix" values="0 0 0 0 0 0 0 0 0 0 0 0 0 0 0 0 0 0 127 0" result="hardAlpha"/>
<feOffset dy="2"/>
<feGaussianBlur stdDeviation="4.5"/>
<feComposite in2="hardAlpha" operator="out"/>
<feColorMatrix type="matrix" values="0 0 0 0 0.658333 0 0 0 0 0.684615 0 0 0 0 1 0 0 0 1 0"/>
<feBlend mode="normal" in2="BackgroundImageFix" result="effect1_dropShadow_1538_3051"/>
<feBlend mode="normal" in="SourceGraphic" in2="effect1_dropShadow_1538_3051" result="shape"/>
</filter>
<linearGradient id="paint0_linear_1538_3051" x1="111.21" y1="230.19" x2="378.752" y2="263.791" gradientUnits="userSpaceOnUse">
<stop stop-color="#319F43"/>
<stop offset="1" stop-color="#55BF67"/>
</linearGradient>
<clipPath id="clip0_1538_3051">
<path d="M6.33337 24C6.33337 12.9543 15.2877 4 26.3334 4H383.667C394.712 4 403.667 12.9543 403.667 24V436C403.667 447.046 394.712 456 383.667 456H26.3334C15.2877 456 6.33337 447.046 6.33337 436V24Z" fill="white"/>
</clipPath>
</defs>
</svg>
