<svg width="28" height="25" viewBox="0 0 28 25" fill="none" xmlns="http://www.w3.org/2000/svg">
<path d="M18.8614 20.6948L14.9795 16.6189C15.9141 15.3125 16.4186 13.7223 16.4169 12.0884C16.4169 7.91497 13.1832 4.51953 9.20847 4.51953C5.23375 4.51953 2 7.91497 2 12.0884C2 16.2619 5.23375 19.6573 9.20847 19.6573C10.7646 19.6591 12.279 19.1294 13.5232 18.1481L17.4051 22.224C17.6016 22.4085 17.8579 22.5069 18.1213 22.4992C18.3848 22.4915 18.6354 22.3781 18.8218 22.1824C19.0082 21.9867 19.1161 21.7235 19.1235 21.4469C19.1309 21.1703 19.0371 20.9012 18.8614 20.6948ZM4.05956 12.0884C4.05956 11.0192 4.36154 9.97389 4.92731 9.08482C5.49308 8.19575 6.29723 7.5028 7.23807 7.09361C8.17891 6.68441 9.21419 6.57735 10.213 6.78596C11.2118 6.99456 12.1292 7.50947 12.8493 8.26556C13.5694 9.02165 14.0598 9.98497 14.2584 11.0337C14.4571 12.0824 14.3552 13.1695 13.9654 14.1574C13.5757 15.1452 12.9158 15.9896 12.0691 16.5836C11.2223 17.1777 10.2268 17.4948 9.20847 17.4948C7.8434 17.4931 6.53471 16.9229 5.56945 15.9094C4.6042 14.8959 4.0612 13.5218 4.05956 12.0884Z" fill="#777BEA"/>
<path d="M21.1209 5.71028C21.1934 5.46966 21.5004 5.46966 21.5729 5.71028L21.9978 7.12268C22.0914 7.43317 22.249 7.71527 22.4581 7.94663C22.6673 8.17799 22.9223 8.35225 23.2029 8.45561L24.4784 8.92592C24.6959 9.00613 24.6959 9.34592 24.4784 9.42613L23.2022 9.89645C22.9217 9.99997 22.6668 10.1744 22.4577 10.4059C22.2487 10.6374 22.0912 10.9196 21.9978 11.2301L21.5729 12.6418C21.5573 12.6945 21.527 12.7403 21.4864 12.7729C21.4458 12.8054 21.397 12.8229 21.3469 12.8229C21.2968 12.8229 21.248 12.8054 21.2074 12.7729C21.1668 12.7403 21.1365 12.6945 21.1209 12.6418L20.6959 11.2294C20.6025 10.919 20.445 10.6369 20.2359 10.4056C20.0269 10.1742 19.772 9.99989 19.4915 9.89645L18.2153 9.42613C18.1677 9.40884 18.1263 9.37535 18.0969 9.33043C18.0675 9.28552 18.0517 9.23148 18.0517 9.17603C18.0517 9.12057 18.0675 9.06653 18.0969 9.02162C18.1263 8.97671 18.1677 8.94321 18.2153 8.92592L19.4915 8.45561C19.772 8.35216 20.0269 8.17785 20.2359 7.9465C20.445 7.71514 20.6025 7.43309 20.6959 7.12268L21.1209 5.71028ZM18.5757 1.99225C18.5852 1.96067 18.6034 1.93319 18.6278 1.91371C18.6521 1.89424 18.6814 1.88375 18.7115 1.88375C18.7415 1.88375 18.7708 1.89424 18.7952 1.91371C18.8195 1.93319 18.8377 1.96067 18.8472 1.99225L19.1022 2.83954C19.2161 3.21725 19.4836 3.51329 19.8249 3.63944L20.5905 3.92163C20.6191 3.93208 20.6439 3.95223 20.6615 3.97919C20.6791 4.00616 20.6886 4.03857 20.6886 4.07184C20.6886 4.1051 20.6791 4.13752 20.6615 4.16448C20.6439 4.19145 20.6191 4.21159 20.5905 4.22205L19.8249 4.50424C19.6566 4.5663 19.5037 4.6709 19.3782 4.80974C19.2528 4.94858 19.1582 5.11785 19.1022 5.30413L18.8472 6.15143C18.8377 6.18301 18.8195 6.21049 18.7952 6.22996C18.7708 6.24944 18.7415 6.25992 18.7115 6.25992C18.6814 6.25992 18.6521 6.24944 18.6278 6.22996C18.6034 6.21049 18.5852 6.18301 18.5757 6.15143L18.3208 5.30413C18.2647 5.11785 18.1702 4.94858 18.0447 4.80974C17.9193 4.6709 17.7663 4.5663 17.598 4.50424L16.8324 4.22205C16.8039 4.21159 16.779 4.19145 16.7614 4.16448C16.7438 4.13752 16.7344 4.1051 16.7344 4.07184C16.7344 4.03857 16.7438 4.00616 16.7614 3.97919C16.779 3.95223 16.8039 3.93208 16.8324 3.92163L17.598 3.63944C17.7663 3.57738 17.9193 3.47278 18.0447 3.33394C18.1702 3.19509 18.2647 3.02583 18.3208 2.83954L18.5757 1.99225ZM23.2332 1.22735C23.2397 1.20658 23.2519 1.18858 23.2681 1.17584C23.2842 1.1631 23.3036 1.15625 23.3235 1.15625C23.3433 1.15625 23.3627 1.1631 23.3789 1.17584C23.395 1.18858 23.4072 1.20658 23.4137 1.22735L23.5837 1.79172C23.6595 2.04402 23.838 2.24162 24.066 2.32548L24.5759 2.5136C24.5947 2.5208 24.611 2.53429 24.6225 2.55219C24.634 2.57009 24.6402 2.59152 24.6402 2.6135C24.6402 2.63547 24.634 2.6569 24.6225 2.6748C24.611 2.69271 24.5947 2.7062 24.5759 2.71339L24.066 2.90152C23.9536 2.94288 23.8516 3.01266 23.7678 3.10531C23.6841 3.19796 23.6211 3.31094 23.5837 3.43527L23.4137 3.99965C23.4072 4.02041 23.395 4.03842 23.3789 4.05116C23.3627 4.0639 23.3433 4.07075 23.3235 4.07075C23.3036 4.07075 23.2842 4.0639 23.2681 4.05116C23.2519 4.03842 23.2397 4.02041 23.2332 3.99965L23.0632 3.43527C23.0258 3.31094 22.9628 3.19796 22.8791 3.10531C22.7954 3.01266 22.6933 2.94288 22.5809 2.90152L22.0716 2.71339C22.0529 2.7062 22.0366 2.69271 22.0251 2.6748C22.0136 2.6569 22.0074 2.63547 22.0074 2.6135C22.0074 2.59152 22.0136 2.57009 22.0251 2.55219C22.0366 2.53429 22.0529 2.5208 22.0716 2.5136L22.5816 2.32548C22.8095 2.24162 22.9881 2.04402 23.0639 1.79172L23.2332 1.22808V1.22735Z" fill="#777BEA"/>
</svg>
