<svg width="26" height="26" viewBox="0 0 26 26" fill="none" xmlns="http://www.w3.org/2000/svg">
<mask id="mask0_1037_37318" style="mask-type:alpha" maskUnits="userSpaceOnUse" x="0" y="0" width="26" height="26">
<rect width="26" height="26" fill="#D9D9D9"/>
</mask>
<g mask="url(#mask0_1037_37318)">
<path d="M10.2107 15.9534C11.5288 14.9784 12.558 13.9086 13.2982 12.744C14.0385 11.5794 14.4087 10.4194 14.4087 9.2638C14.4087 8.68602 14.3139 8.26172 14.1243 7.99089C13.9347 7.72005 13.6774 7.58464 13.3524 7.58464C12.5038 7.58464 11.7545 8.30234 11.1045 9.73776C10.4545 11.1732 10.1295 12.7937 10.1295 14.5992C10.1295 14.852 10.134 15.0912 10.143 15.3169C10.1521 15.5426 10.1746 15.7548 10.2107 15.9534ZM11.7003 20.5846C11.1587 20.5846 10.6621 20.4808 10.2107 20.2732C9.75935 20.0655 9.37116 19.727 9.04616 19.2576C8.59477 19.5103 8.12984 19.736 7.65137 19.9346C7.17289 20.1332 6.68088 20.3319 6.17533 20.5305L5.41699 18.4992C5.92255 18.3187 6.40553 18.1246 6.86595 17.9169C7.32637 17.7093 7.77324 17.4881 8.20658 17.2534C8.1163 16.8562 8.04859 16.4228 8.00345 15.9534C7.95831 15.4839 7.93574 14.9784 7.93574 14.4367C7.93574 11.8367 8.45033 9.68359 9.47949 7.97734C10.5087 6.27109 11.7996 5.41797 13.3524 5.41797C14.2913 5.41797 15.0587 5.76554 15.6545 6.46068C16.2503 7.15582 16.5482 8.1263 16.5482 9.37214C16.5482 10.9249 16.0562 12.4596 15.0722 13.9763C14.0882 15.493 12.7205 16.8562 10.9691 18.0659C11.0955 18.1923 11.2264 18.2871 11.3618 18.3503C11.4972 18.4135 11.6371 18.4451 11.7816 18.4451C12.251 18.4451 12.7972 18.1471 13.4201 17.5513C14.043 16.9555 14.6073 16.1701 15.1128 15.1951L17.0899 16.1159C16.9635 16.4228 16.8642 16.793 16.792 17.2263C16.7198 17.6596 16.7288 18.0388 16.8191 18.3638C16.9996 18.2735 17.2118 18.1201 17.4555 17.9034C17.6993 17.6867 17.9475 17.4159 18.2003 17.0909L19.9066 18.418C19.4371 19.068 18.8955 19.5916 18.2816 19.9888C17.6677 20.386 17.0989 20.5846 16.5753 20.5846C16.1962 20.5846 15.8576 20.4718 15.5597 20.2461C15.2618 20.0204 15.0135 19.6728 14.8149 19.2034C14.3094 19.6548 13.7948 19.9978 13.2712 20.2326C12.7475 20.4673 12.2239 20.5846 11.7003 20.5846Z" fill="#767796"/>
</g>
</svg>
